G04 #@! TF.GenerationSoftware,KiCad,Pcbnew,(5.1.5)-3*
G04 #@! TF.CreationDate,2020-06-28T02:39:40-04:00*
G04 #@! TF.ProjectId,SteeringWheelKicad,53746565-7269-46e6-9757-6865656c4b69,3.0*
G04 #@! TF.SameCoordinates,Original*
G04 #@! TF.FileFunction,Copper,L1,Top*
G04 #@! TF.FilePolarity,Positive*
%FSLAX46Y46*%
G04 Gerber Fmt 4.6, Leading zero omitted, Abs format (unit mm)*
G04 Created by KiCad (PCBNEW (5.1.5)-3) date 2020-06-28 02:39:40*
%MOMM*%
%LPD*%
G04 APERTURE LIST*
%ADD10O,1.700000X1.700000*%
%ADD11R,1.700000X1.700000*%
%ADD12R,2.450000X2.350000*%
%ADD13C,3.500000*%
%ADD14O,1.600000X1.600000*%
%ADD15C,1.600000*%
%ADD16C,0.160000*%
%ADD17C,0.254000*%
G04 APERTURE END LIST*
D10*
X97028000Y-141040000D03*
D11*
X97028000Y-138500000D03*
D10*
X99045000Y-102940000D03*
D11*
X96505000Y-102940000D03*
D10*
X99045000Y-99130000D03*
D11*
X96505000Y-99130000D03*
D10*
X99045000Y-95320000D03*
D11*
X96505000Y-95320000D03*
D10*
X99045000Y-91510000D03*
D11*
X96505000Y-91510000D03*
D12*
X134605000Y-99915000D03*
X134605000Y-106115000D03*
X140955000Y-99915000D03*
X140955000Y-106115000D03*
D13*
X136510000Y-94050000D03*
X97200000Y-148600000D03*
X97200000Y-87600000D03*
D10*
X97028000Y-133350000D03*
X97028000Y-130810000D03*
X97028000Y-128270000D03*
X97028000Y-125730000D03*
X97028000Y-123190000D03*
X97028000Y-120650000D03*
X97028000Y-118110000D03*
X97028000Y-115570000D03*
X97028000Y-113030000D03*
X97028000Y-110490000D03*
D11*
X97028000Y-107950000D03*
X147940000Y-87630000D03*
D10*
X150480000Y-87630000D03*
X153020000Y-87630000D03*
X155560000Y-87630000D03*
X156640000Y-98140000D03*
D11*
X156640000Y-95600000D03*
X156640000Y-104060000D03*
D10*
X156640000Y-106600000D03*
X142860000Y-87630000D03*
X140320000Y-87630000D03*
X137780000Y-87630000D03*
D11*
X135240000Y-87630000D03*
D10*
X153020000Y-148930000D03*
X150480000Y-148930000D03*
X147940000Y-148930000D03*
X145400000Y-148930000D03*
X142860000Y-148930000D03*
X140320000Y-148930000D03*
D11*
X137780000Y-148930000D03*
D10*
X146420000Y-119850000D03*
D11*
X143880000Y-119850000D03*
D10*
X128270000Y-142160000D03*
X125730000Y-142160000D03*
X128270000Y-139620000D03*
X125730000Y-139620000D03*
X128270000Y-137080000D03*
X125730000Y-137080000D03*
X128270000Y-134540000D03*
X125730000Y-134540000D03*
X128270000Y-132000000D03*
X125730000Y-132000000D03*
X128270000Y-129460000D03*
X125730000Y-129460000D03*
X128270000Y-126920000D03*
X125730000Y-126920000D03*
X128270000Y-124380000D03*
X125730000Y-124380000D03*
X128270000Y-121840000D03*
X125730000Y-121840000D03*
X128270000Y-119300000D03*
X125730000Y-119300000D03*
X128270000Y-116760000D03*
X125730000Y-116760000D03*
X128270000Y-114220000D03*
X125730000Y-114220000D03*
X128270000Y-111680000D03*
X125730000Y-111680000D03*
X128270000Y-109140000D03*
X125730000Y-109140000D03*
X128270000Y-106600000D03*
X125730000Y-106600000D03*
X128270000Y-104060000D03*
X125730000Y-104060000D03*
X128270000Y-101520000D03*
X125730000Y-101520000D03*
X128270000Y-98980000D03*
X125730000Y-98980000D03*
X128270000Y-96440000D03*
X125730000Y-96440000D03*
X128270000Y-93900000D03*
D11*
X125730000Y-93900000D03*
D14*
X145400000Y-108020000D03*
D15*
X145400000Y-97860000D03*
X149210000Y-97860000D03*
D14*
X149210000Y-108020000D03*
D16*
X127889000Y-91440000D02*
X128270000Y-91821000D01*
X128270000Y-91821000D02*
X128270000Y-93900000D01*
X151350000Y-150600000D02*
X153020000Y-148930000D01*
X97028000Y-107950000D02*
X96018000Y-107950000D01*
X95304990Y-108657010D02*
X95123000Y-108839000D01*
X96018000Y-107950000D02*
X95310990Y-108657010D01*
X95310990Y-108657010D02*
X95304990Y-108657010D01*
X95123000Y-142977000D02*
X101977000Y-142977000D01*
X95123000Y-108839000D02*
X95123000Y-142977000D01*
X101977000Y-142977000D02*
X103000000Y-144000000D01*
X103000000Y-144000000D02*
X103000000Y-150600000D01*
X103000000Y-150600000D02*
X151350000Y-150600000D01*
X155132081Y-86000000D02*
X140500000Y-86000000D01*
X140500000Y-86000000D02*
X140320000Y-86180000D01*
X155560000Y-87630000D02*
X155560000Y-86427919D01*
X140320000Y-86180000D02*
X140320000Y-87630000D01*
X155560000Y-86427919D02*
X155132081Y-86000000D01*
X132320000Y-86180000D02*
X140320000Y-86180000D01*
X131000000Y-87500000D02*
X132320000Y-86180000D01*
X128270000Y-93900000D02*
X131000000Y-93900000D01*
X131000000Y-93900000D02*
X131000000Y-87500000D01*
X131000000Y-93900000D02*
X133185000Y-93900000D01*
X133185000Y-93900000D02*
X133970000Y-94685000D01*
X133970000Y-94685000D02*
X133970000Y-95955000D01*
X133970000Y-95955000D02*
X134605000Y-96590000D01*
X134605000Y-96590000D02*
X137780000Y-96590000D01*
X141590000Y-96590000D02*
X142539990Y-97539990D01*
X137780000Y-96590000D02*
X141590000Y-96590000D01*
X142539990Y-105915010D02*
X142340000Y-106115000D01*
X142539990Y-97539990D02*
X142539990Y-105915010D01*
X142340000Y-106115000D02*
X140955000Y-106115000D01*
X140955000Y-106115000D02*
X134605000Y-106115000D01*
X127889000Y-91440000D02*
X123760000Y-91440000D01*
X123760000Y-91440000D02*
X122600000Y-92600000D01*
X122600000Y-102700000D02*
X120530018Y-104769982D01*
X122600000Y-92600000D02*
X122600000Y-102700000D01*
X120530018Y-104769982D02*
X98630018Y-104769982D01*
X98630018Y-104769982D02*
X97030000Y-106370000D01*
X97030000Y-106370000D02*
X97030000Y-107950000D01*
X129472081Y-98980000D02*
X130257081Y-99765000D01*
X128270000Y-98980000D02*
X129472081Y-98980000D01*
X130257081Y-99765000D02*
X134605000Y-99765000D01*
X134605000Y-99765000D02*
X140955000Y-99765000D01*
X98298000Y-109220000D02*
X98933000Y-108585000D01*
X95631000Y-112835081D02*
X95631000Y-109474000D01*
X95825919Y-113030000D02*
X95631000Y-112835081D01*
X95631000Y-109474000D02*
X95885000Y-109220000D01*
X97028000Y-113030000D02*
X95825919Y-113030000D01*
X95885000Y-109220000D02*
X98298000Y-109220000D01*
X124720000Y-93900000D02*
X123600000Y-95020000D01*
X125730000Y-93900000D02*
X124720000Y-93900000D01*
X123600000Y-104300000D02*
X122810010Y-105089990D01*
X123600000Y-95020000D02*
X123600000Y-104300000D01*
X100197447Y-105089991D02*
X98933000Y-106354438D01*
X98933000Y-106354438D02*
X98933000Y-108585000D01*
X122810010Y-105089990D02*
X100197447Y-105089991D01*
X96505000Y-91510000D02*
X96505000Y-95320000D01*
X96505000Y-95320000D02*
X96505000Y-99130000D01*
X96505000Y-99130000D02*
X96505000Y-102940000D01*
X99314000Y-115570000D02*
X99695000Y-115189000D01*
X99695000Y-106045000D02*
X100330000Y-105410000D01*
X97028000Y-115570000D02*
X99314000Y-115570000D01*
X99695000Y-115189000D02*
X99695000Y-106045000D01*
X100330000Y-105410000D02*
X126790000Y-105410000D01*
X126790000Y-105410000D02*
X126900000Y-105300000D01*
X126900000Y-105300000D02*
X126900000Y-102800000D01*
X126900000Y-102800000D02*
X128200000Y-101500000D01*
X128200000Y-101500000D02*
X128300000Y-101500000D01*
X126400000Y-115500000D02*
X127680000Y-114220000D01*
X127680000Y-114220000D02*
X128270000Y-114220000D01*
X124100000Y-117200000D02*
X124100000Y-115800000D01*
X97028000Y-118110000D02*
X123190000Y-118110000D01*
X124100000Y-115800000D02*
X124400000Y-115500000D01*
X123190000Y-118110000D02*
X124100000Y-117200000D01*
X124400000Y-115500000D02*
X126400000Y-115500000D01*
X126859989Y-117889989D02*
X128270000Y-119300000D01*
X125074247Y-117889989D02*
X126859989Y-117889989D01*
X124179991Y-118784245D02*
X125074247Y-117889989D01*
X123450000Y-120650000D02*
X124179990Y-119920010D01*
X124179990Y-119920010D02*
X124179991Y-118784245D01*
X97028000Y-120650000D02*
X123450000Y-120650000D01*
X126820001Y-118776799D02*
X126820001Y-120390001D01*
X126820001Y-120390001D02*
X128270000Y-121840000D01*
X121387438Y-123190000D02*
X124500000Y-120077438D01*
X125206799Y-118209999D02*
X126253201Y-118209999D01*
X97028000Y-123190000D02*
X121387438Y-123190000D01*
X124500000Y-120077438D02*
X124500000Y-118916798D01*
X126253201Y-118209999D02*
X126820001Y-118776799D01*
X124500000Y-118916798D02*
X125206799Y-118209999D01*
X127179999Y-123289999D02*
X128270000Y-124380000D01*
X95500000Y-132200000D02*
X97725438Y-132200000D01*
X95825919Y-125730000D02*
X95443010Y-126112909D01*
X97028000Y-125730000D02*
X95825919Y-125730000D01*
X95443010Y-132143010D02*
X95500000Y-132200000D01*
X120160011Y-131939989D02*
X121779990Y-130320010D01*
X97725438Y-132200000D02*
X97985449Y-131939989D01*
X121779990Y-124620010D02*
X123110001Y-123289999D01*
X123110001Y-123289999D02*
X127179999Y-123289999D01*
X95443010Y-126112909D02*
X95443010Y-132143010D01*
X97985449Y-131939989D02*
X120160011Y-131939989D01*
X121779990Y-130320010D02*
X121779990Y-124620010D01*
X97028000Y-128270000D02*
X120989980Y-128270000D01*
X120989980Y-128270000D02*
X121459980Y-127800000D01*
X124107438Y-121840000D02*
X125730000Y-121840000D01*
X121459981Y-124487457D02*
X124107438Y-121840000D01*
X121459980Y-127800000D02*
X121459981Y-124487457D01*
X121139971Y-123890029D02*
X125730000Y-119300000D01*
X121139971Y-126460029D02*
X121139971Y-123890029D01*
X95825919Y-130810000D02*
X95763020Y-130747101D01*
X95763020Y-130747101D02*
X95763020Y-127100000D01*
X97028000Y-130810000D02*
X95825919Y-130810000D01*
X95763020Y-127100000D02*
X120500000Y-127100000D01*
X120500000Y-127100000D02*
X121139971Y-126460029D01*
X126990000Y-115500000D02*
X125730000Y-116760000D01*
X130100000Y-116500000D02*
X129100000Y-115500000D01*
X130100000Y-124900000D02*
X130100000Y-116500000D01*
X129300000Y-125700000D02*
X130100000Y-124900000D01*
X97028000Y-133350000D02*
X98118001Y-132259999D01*
X123100000Y-125700000D02*
X129300000Y-125700000D01*
X129100000Y-115500000D02*
X126990000Y-115500000D01*
X122100000Y-126700000D02*
X123100000Y-125700000D01*
X120292563Y-132259999D02*
X98118001Y-132259999D01*
X122099999Y-130452563D02*
X120292563Y-132259999D01*
X122100000Y-126700000D02*
X122099999Y-130452563D01*
X150480000Y-93820000D02*
X150480000Y-87630000D01*
X150100000Y-94200000D02*
X150480000Y-93820000D01*
X143600000Y-95100000D02*
X144500000Y-94200000D01*
X143880000Y-120860000D02*
X145220000Y-122200000D01*
X143600000Y-104300000D02*
X143600000Y-95100000D01*
X145220000Y-122200000D02*
X148700000Y-122200000D01*
X148700000Y-122200000D02*
X151920010Y-118979990D01*
X143880000Y-119850000D02*
X143880000Y-120860000D01*
X151920010Y-118979990D02*
X151920010Y-106067448D01*
X151920010Y-106067448D02*
X151032552Y-105179990D01*
X151032552Y-105179990D02*
X144479990Y-105179990D01*
X144479990Y-105179990D02*
X143600000Y-104300000D01*
X144500000Y-94200000D02*
X150100000Y-94200000D01*
X147940000Y-93039990D02*
X147940000Y-87630000D01*
X147100000Y-93879990D02*
X147940000Y-93039990D01*
X144367448Y-93879990D02*
X147100000Y-93879990D01*
X143279991Y-94967447D02*
X144367448Y-93879990D01*
X143279990Y-104432552D02*
X143279991Y-94967447D01*
X151600000Y-114670000D02*
X151600000Y-106200000D01*
X150900000Y-105500000D02*
X144347437Y-105499999D01*
X151600000Y-106200000D02*
X150900000Y-105500000D01*
X146420000Y-119850000D02*
X151600000Y-114670000D01*
X144347437Y-105499999D02*
X143279990Y-104432552D01*
X145600000Y-95600000D02*
X156640000Y-95600000D01*
X145400000Y-97860000D02*
X145400000Y-95800000D01*
X145400000Y-95800000D02*
X145600000Y-95600000D01*
X149210000Y-97860000D02*
X151260000Y-97860000D01*
X151260000Y-97860000D02*
X152600000Y-99200000D01*
X152600000Y-99200000D02*
X152600000Y-103200000D01*
X153460000Y-104060000D02*
X156640000Y-104060000D01*
X152600000Y-103200000D02*
X153460000Y-104060000D01*
X138629999Y-88479999D02*
X137780000Y-87630000D01*
X128270000Y-106600000D02*
X129472081Y-106600000D01*
X129800000Y-106927919D02*
X129800000Y-111100000D01*
X141740000Y-111680000D02*
X142860000Y-110560000D01*
X138629999Y-91724999D02*
X138629999Y-88479999D01*
X129472081Y-106600000D02*
X129800000Y-106927919D01*
X130380000Y-111680000D02*
X141740000Y-111680000D01*
X139050000Y-92145000D02*
X138629999Y-91724999D01*
X129800000Y-111100000D02*
X130380000Y-111680000D01*
X142860000Y-110560000D02*
X142860000Y-92780000D01*
X142860000Y-92780000D02*
X142225000Y-92145000D01*
X142225000Y-92145000D02*
X139050000Y-92145000D01*
X126820001Y-133449999D02*
X128270000Y-132000000D01*
X137780000Y-148930000D02*
X123630000Y-148930000D01*
X123630000Y-148930000D02*
X123300000Y-148600000D01*
X123300000Y-148600000D02*
X123300000Y-134100000D01*
X123300000Y-134100000D02*
X123950001Y-133449999D01*
X123950001Y-133449999D02*
X126820001Y-133449999D01*
X133550000Y-142160000D02*
X128270000Y-142160000D01*
X140320000Y-148930000D02*
X133550000Y-142160000D01*
X133550000Y-139620000D02*
X128270000Y-139620000D01*
X142860000Y-148930000D02*
X133550000Y-139620000D01*
X125730000Y-138282081D02*
X125730000Y-137080000D01*
X125747919Y-138300000D02*
X125730000Y-138282081D01*
X134770000Y-138300000D02*
X125747919Y-138300000D01*
X145400000Y-148930000D02*
X134770000Y-138300000D01*
X127000000Y-112800000D02*
X127000000Y-106667919D01*
X126932081Y-106600000D02*
X125730000Y-106600000D01*
X130500000Y-113300000D02*
X130200000Y-113000000D01*
X130389999Y-128010001D02*
X130500000Y-127900000D01*
X127200000Y-113000000D02*
X127000000Y-112800000D01*
X147940000Y-148930000D02*
X147940000Y-147727919D01*
X125566797Y-128010001D02*
X130389999Y-128010001D01*
X130500000Y-127900000D02*
X130500000Y-113300000D01*
X127746799Y-130909999D02*
X127179999Y-131476799D01*
X130200000Y-113000000D02*
X127200000Y-113000000D01*
X147940000Y-147727919D02*
X131122080Y-130909999D01*
X127179999Y-132637439D02*
X126687449Y-133129989D01*
X127000000Y-106667919D02*
X126932081Y-106600000D01*
X131122080Y-130909999D02*
X127746799Y-130909999D01*
X126687449Y-133129989D02*
X124129989Y-133129989D01*
X123900000Y-132900000D02*
X123900000Y-129676798D01*
X124129989Y-133129989D02*
X123900000Y-132900000D01*
X127179999Y-131476799D02*
X127179999Y-132637439D01*
X123900000Y-129676798D02*
X125566797Y-128010001D01*
X130522552Y-128330010D02*
X130820010Y-128032552D01*
X125730000Y-129460000D02*
X126859989Y-128330011D01*
X126859989Y-128330011D02*
X130522552Y-128330010D01*
X130820010Y-128032552D02*
X130820010Y-113379990D01*
X130820010Y-113379990D02*
X131100000Y-113100000D01*
X131100000Y-113100000D02*
X144600000Y-113100000D01*
X144600000Y-113100000D02*
X145400000Y-112300000D01*
X145400000Y-112300000D02*
X145400000Y-108020000D01*
X149210000Y-113190000D02*
X149210000Y-108020000D01*
X127140011Y-130589989D02*
X130910011Y-130589989D01*
X125730000Y-132000000D02*
X127140011Y-130589989D01*
X130910011Y-130589989D02*
X131300000Y-130200000D01*
X131579990Y-113420010D02*
X148979990Y-113420010D01*
X131300000Y-130200000D02*
X131300000Y-113700000D01*
X148979990Y-113420010D02*
X149210000Y-113190000D01*
X131300000Y-113700000D02*
X131579990Y-113420010D01*
D17*
G36*
X159380000Y-150167581D02*
G01*
X159380000Y-150540000D01*
X154957000Y-150540000D01*
X154957000Y-147130000D01*
X154954560Y-147105224D01*
X154947333Y-147081399D01*
X154935597Y-147059443D01*
X154919803Y-147040197D01*
X154900557Y-147024403D01*
X154878601Y-147012667D01*
X154854776Y-147005440D01*
X154830000Y-147003000D01*
X148226244Y-147003000D01*
X131863579Y-130640337D01*
X131897377Y-130599154D01*
X131963770Y-130474942D01*
X132000114Y-130355130D01*
X132004654Y-130340165D01*
X132007128Y-130315046D01*
X132015000Y-130235120D01*
X132015000Y-130235112D01*
X132018458Y-130200000D01*
X132015000Y-130164888D01*
X132015000Y-114135010D01*
X148944880Y-114135010D01*
X148979990Y-114138468D01*
X149015100Y-114135010D01*
X149015110Y-114135010D01*
X149120154Y-114124664D01*
X149254932Y-114083780D01*
X149379144Y-114017387D01*
X149488017Y-113928037D01*
X149510411Y-113900750D01*
X149690745Y-113720416D01*
X149718026Y-113698027D01*
X149807377Y-113589154D01*
X149873770Y-113464942D01*
X149914654Y-113330164D01*
X149925000Y-113225120D01*
X149925000Y-113225111D01*
X149928458Y-113190001D01*
X149925000Y-113154891D01*
X149925000Y-109268111D01*
X150124759Y-109134637D01*
X150324637Y-108934759D01*
X150481680Y-108699727D01*
X150589853Y-108438574D01*
X150645000Y-108161335D01*
X150645000Y-107878665D01*
X150589853Y-107601426D01*
X150481680Y-107340273D01*
X150324637Y-107105241D01*
X150124759Y-106905363D01*
X149889727Y-106748320D01*
X149628574Y-106640147D01*
X149351335Y-106585000D01*
X149068665Y-106585000D01*
X148791426Y-106640147D01*
X148530273Y-106748320D01*
X148295241Y-106905363D01*
X148095363Y-107105241D01*
X147938320Y-107340273D01*
X147830147Y-107601426D01*
X147775000Y-107878665D01*
X147775000Y-108161335D01*
X147830147Y-108438574D01*
X147938320Y-108699727D01*
X148095363Y-108934759D01*
X148295241Y-109134637D01*
X148495001Y-109268112D01*
X148495000Y-112705010D01*
X145992571Y-112705010D01*
X145997376Y-112699155D01*
X145997377Y-112699154D01*
X146063770Y-112574942D01*
X146104654Y-112440164D01*
X146115000Y-112335120D01*
X146115000Y-112335110D01*
X146118458Y-112300000D01*
X146115000Y-112264890D01*
X146115000Y-109268111D01*
X146314759Y-109134637D01*
X146514637Y-108934759D01*
X146671680Y-108699727D01*
X146779853Y-108438574D01*
X146835000Y-108161335D01*
X146835000Y-107878665D01*
X146779853Y-107601426D01*
X146671680Y-107340273D01*
X146514637Y-107105241D01*
X146314759Y-106905363D01*
X146079727Y-106748320D01*
X145818574Y-106640147D01*
X145541335Y-106585000D01*
X145258665Y-106585000D01*
X144981426Y-106640147D01*
X144720273Y-106748320D01*
X144485241Y-106905363D01*
X144285363Y-107105241D01*
X144128320Y-107340273D01*
X144020147Y-107601426D01*
X143965000Y-107878665D01*
X143965000Y-108161335D01*
X144020147Y-108438574D01*
X144128320Y-108699727D01*
X144285363Y-108934759D01*
X144485241Y-109134637D01*
X144685001Y-109268112D01*
X144685000Y-112003837D01*
X144303838Y-112385000D01*
X141876651Y-112385000D01*
X141880164Y-112384654D01*
X142014942Y-112343770D01*
X142139154Y-112277377D01*
X142248027Y-112188027D01*
X142270420Y-112160741D01*
X143340750Y-111090412D01*
X143368026Y-111068027D01*
X143410536Y-111016230D01*
X143457376Y-110959155D01*
X143457378Y-110959153D01*
X143523770Y-110834942D01*
X143564654Y-110700164D01*
X143575000Y-110595120D01*
X143575000Y-110595111D01*
X143578458Y-110560001D01*
X143575000Y-110524891D01*
X143575000Y-105738724D01*
X143817023Y-105980747D01*
X143839410Y-106008025D01*
X143866685Y-106030409D01*
X143866689Y-106030413D01*
X143948282Y-106097375D01*
X144072494Y-106163768D01*
X144207272Y-106204652D01*
X144347436Y-106218457D01*
X144382556Y-106214998D01*
X150603838Y-106215000D01*
X150885001Y-106496163D01*
X150885000Y-114373838D01*
X147335839Y-117923000D01*
X142080000Y-117923000D01*
X142055224Y-117925440D01*
X142031399Y-117932667D01*
X142009443Y-117944403D01*
X141990197Y-117960197D01*
X141974403Y-117979443D01*
X141962667Y-118001399D01*
X141955440Y-118025224D01*
X141953000Y-118050000D01*
X141953000Y-121650000D01*
X141955440Y-121674776D01*
X141962667Y-121698601D01*
X141974403Y-121720557D01*
X141990197Y-121739803D01*
X142009443Y-121755597D01*
X142031399Y-121767333D01*
X142055224Y-121774560D01*
X142080000Y-121777000D01*
X143785839Y-121777000D01*
X144689584Y-122680746D01*
X144711973Y-122708027D01*
X144820846Y-122797377D01*
X144945058Y-122863770D01*
X145079836Y-122904654D01*
X145184880Y-122915000D01*
X145184889Y-122915000D01*
X145219999Y-122918458D01*
X145255109Y-122915000D01*
X148664890Y-122915000D01*
X148700000Y-122918458D01*
X148735110Y-122915000D01*
X148735120Y-122915000D01*
X148840164Y-122904654D01*
X148974942Y-122863770D01*
X149099154Y-122797377D01*
X149208027Y-122708027D01*
X149230420Y-122680741D01*
X152400766Y-119510397D01*
X152428036Y-119488017D01*
X152450417Y-119460746D01*
X152450425Y-119460738D01*
X152517386Y-119379145D01*
X152517387Y-119379144D01*
X152583780Y-119254932D01*
X152624664Y-119120154D01*
X152635010Y-119015110D01*
X152635010Y-119015100D01*
X152638468Y-118979990D01*
X152635010Y-118944880D01*
X152635010Y-106102557D01*
X152638468Y-106067447D01*
X152635010Y-106032337D01*
X152635010Y-106032328D01*
X152624664Y-105927284D01*
X152583780Y-105792506D01*
X152517387Y-105668294D01*
X152428037Y-105559421D01*
X152400756Y-105537032D01*
X151562972Y-104699249D01*
X151540579Y-104671963D01*
X151431706Y-104582613D01*
X151307494Y-104516220D01*
X151172716Y-104475336D01*
X151067672Y-104464990D01*
X151067662Y-104464990D01*
X151032552Y-104461532D01*
X150997442Y-104464990D01*
X144776152Y-104464990D01*
X144315000Y-104003838D01*
X144315000Y-98804396D01*
X144485241Y-98974637D01*
X144720273Y-99131680D01*
X144981426Y-99239853D01*
X145258665Y-99295000D01*
X145541335Y-99295000D01*
X145818574Y-99239853D01*
X146079727Y-99131680D01*
X146314759Y-98974637D01*
X146514637Y-98774759D01*
X146671680Y-98539727D01*
X146779853Y-98278574D01*
X146835000Y-98001335D01*
X146835000Y-97718665D01*
X147775000Y-97718665D01*
X147775000Y-98001335D01*
X147830147Y-98278574D01*
X147938320Y-98539727D01*
X148095363Y-98774759D01*
X148295241Y-98974637D01*
X148530273Y-99131680D01*
X148791426Y-99239853D01*
X149068665Y-99295000D01*
X149351335Y-99295000D01*
X149628574Y-99239853D01*
X149889727Y-99131680D01*
X150124759Y-98974637D01*
X150324637Y-98774759D01*
X150458111Y-98575000D01*
X150963839Y-98575000D01*
X151885000Y-99496162D01*
X151885001Y-103164880D01*
X151881542Y-103200000D01*
X151885001Y-103235120D01*
X151895347Y-103340164D01*
X151936231Y-103474942D01*
X152002624Y-103599154D01*
X152091974Y-103708027D01*
X152119254Y-103730415D01*
X152929588Y-104540751D01*
X152951973Y-104568027D01*
X152979248Y-104590411D01*
X152979252Y-104590415D01*
X153043066Y-104642785D01*
X153060846Y-104657377D01*
X153185058Y-104723770D01*
X153259100Y-104746230D01*
X153319835Y-104764654D01*
X153331948Y-104765847D01*
X153424880Y-104775000D01*
X153424888Y-104775000D01*
X153460000Y-104778458D01*
X153495112Y-104775000D01*
X154713000Y-104775000D01*
X154713000Y-108410000D01*
X154715440Y-108434776D01*
X154722667Y-108458601D01*
X154734403Y-108480557D01*
X154750197Y-108499803D01*
X154769443Y-108515597D01*
X154791399Y-108527333D01*
X154815224Y-108534560D01*
X154840000Y-108537000D01*
X158440000Y-108537000D01*
X158464776Y-108534560D01*
X158488601Y-108527333D01*
X158510557Y-108515597D01*
X158529803Y-108499803D01*
X158545597Y-108480557D01*
X158557333Y-108458601D01*
X158564560Y-108434776D01*
X158567000Y-108410000D01*
X158567000Y-102260000D01*
X158564560Y-102235224D01*
X158557333Y-102211399D01*
X158545597Y-102189443D01*
X158529803Y-102170197D01*
X158510557Y-102154403D01*
X158488601Y-102142667D01*
X158464776Y-102135440D01*
X158440000Y-102133000D01*
X154840000Y-102133000D01*
X154815224Y-102135440D01*
X154791399Y-102142667D01*
X154769443Y-102154403D01*
X154750197Y-102170197D01*
X154734403Y-102189443D01*
X154722667Y-102211399D01*
X154715440Y-102235224D01*
X154713000Y-102260000D01*
X154713000Y-103345000D01*
X153756162Y-103345000D01*
X153315000Y-102903838D01*
X153315000Y-99235109D01*
X153318458Y-99199999D01*
X153315000Y-99164889D01*
X153315000Y-99164880D01*
X153304654Y-99059836D01*
X153263770Y-98925058D01*
X153197377Y-98800846D01*
X153175968Y-98774759D01*
X153130414Y-98719252D01*
X153130412Y-98719250D01*
X153108026Y-98691973D01*
X153080750Y-98669588D01*
X151790420Y-97379259D01*
X151768027Y-97351973D01*
X151659154Y-97262623D01*
X151534942Y-97196230D01*
X151400164Y-97155346D01*
X151295120Y-97145000D01*
X151295110Y-97145000D01*
X151260000Y-97141542D01*
X151224890Y-97145000D01*
X150458111Y-97145000D01*
X150324637Y-96945241D01*
X150124759Y-96745363D01*
X149889727Y-96588320D01*
X149628574Y-96480147D01*
X149351335Y-96425000D01*
X149068665Y-96425000D01*
X148791426Y-96480147D01*
X148530273Y-96588320D01*
X148295241Y-96745363D01*
X148095363Y-96945241D01*
X147938320Y-97180273D01*
X147830147Y-97441426D01*
X147775000Y-97718665D01*
X146835000Y-97718665D01*
X146779853Y-97441426D01*
X146671680Y-97180273D01*
X146514637Y-96945241D01*
X146314759Y-96745363D01*
X146115000Y-96611889D01*
X146115000Y-96315000D01*
X154713000Y-96315000D01*
X154713000Y-99950000D01*
X154715440Y-99974776D01*
X154722667Y-99998601D01*
X154734403Y-100020557D01*
X154750197Y-100039803D01*
X154769443Y-100055597D01*
X154791399Y-100067333D01*
X154815224Y-100074560D01*
X154840000Y-100077000D01*
X158440000Y-100077000D01*
X158464776Y-100074560D01*
X158488601Y-100067333D01*
X158510557Y-100055597D01*
X158529803Y-100039803D01*
X158545597Y-100020557D01*
X158557333Y-99998601D01*
X158564560Y-99974776D01*
X158567000Y-99950000D01*
X158567000Y-93800000D01*
X158564560Y-93775224D01*
X158557333Y-93751399D01*
X158545597Y-93729443D01*
X158529803Y-93710197D01*
X158510557Y-93694403D01*
X158488601Y-93682667D01*
X158464776Y-93675440D01*
X158440000Y-93673000D01*
X154840000Y-93673000D01*
X154815224Y-93675440D01*
X154791399Y-93682667D01*
X154769443Y-93694403D01*
X154750197Y-93710197D01*
X154734403Y-93729443D01*
X154722667Y-93751399D01*
X154715440Y-93775224D01*
X154713000Y-93800000D01*
X154713000Y-94885000D01*
X150304955Y-94885000D01*
X150374942Y-94863770D01*
X150499154Y-94797377D01*
X150608027Y-94708027D01*
X150630421Y-94680740D01*
X150960745Y-94350416D01*
X150988026Y-94328027D01*
X151077377Y-94219154D01*
X151143770Y-94094942D01*
X151184654Y-93960164D01*
X151195000Y-93855120D01*
X151195000Y-93855111D01*
X151198458Y-93820001D01*
X151195000Y-93784891D01*
X151195000Y-89557000D01*
X157245213Y-89557000D01*
X157269989Y-89554560D01*
X157293814Y-89547333D01*
X157315770Y-89535597D01*
X157335016Y-89519803D01*
X157350810Y-89500557D01*
X157362546Y-89478601D01*
X157369773Y-89454776D01*
X157372213Y-89430000D01*
X157372213Y-85830000D01*
X157369773Y-85805224D01*
X157362546Y-85781399D01*
X157350810Y-85759443D01*
X157335016Y-85740197D01*
X157315770Y-85724403D01*
X157293814Y-85712667D01*
X157269989Y-85705440D01*
X157245213Y-85703000D01*
X155846242Y-85703000D01*
X155803242Y-85660000D01*
X159380001Y-85660000D01*
X159380000Y-150167581D01*
G37*
X159380000Y-150167581D02*
X159380000Y-150540000D01*
X154957000Y-150540000D01*
X154957000Y-147130000D01*
X154954560Y-147105224D01*
X154947333Y-147081399D01*
X154935597Y-147059443D01*
X154919803Y-147040197D01*
X154900557Y-147024403D01*
X154878601Y-147012667D01*
X154854776Y-147005440D01*
X154830000Y-147003000D01*
X148226244Y-147003000D01*
X131863579Y-130640337D01*
X131897377Y-130599154D01*
X131963770Y-130474942D01*
X132000114Y-130355130D01*
X132004654Y-130340165D01*
X132007128Y-130315046D01*
X132015000Y-130235120D01*
X132015000Y-130235112D01*
X132018458Y-130200000D01*
X132015000Y-130164888D01*
X132015000Y-114135010D01*
X148944880Y-114135010D01*
X148979990Y-114138468D01*
X149015100Y-114135010D01*
X149015110Y-114135010D01*
X149120154Y-114124664D01*
X149254932Y-114083780D01*
X149379144Y-114017387D01*
X149488017Y-113928037D01*
X149510411Y-113900750D01*
X149690745Y-113720416D01*
X149718026Y-113698027D01*
X149807377Y-113589154D01*
X149873770Y-113464942D01*
X149914654Y-113330164D01*
X149925000Y-113225120D01*
X149925000Y-113225111D01*
X149928458Y-113190001D01*
X149925000Y-113154891D01*
X149925000Y-109268111D01*
X150124759Y-109134637D01*
X150324637Y-108934759D01*
X150481680Y-108699727D01*
X150589853Y-108438574D01*
X150645000Y-108161335D01*
X150645000Y-107878665D01*
X150589853Y-107601426D01*
X150481680Y-107340273D01*
X150324637Y-107105241D01*
X150124759Y-106905363D01*
X149889727Y-106748320D01*
X149628574Y-106640147D01*
X149351335Y-106585000D01*
X149068665Y-106585000D01*
X148791426Y-106640147D01*
X148530273Y-106748320D01*
X148295241Y-106905363D01*
X148095363Y-107105241D01*
X147938320Y-107340273D01*
X147830147Y-107601426D01*
X147775000Y-107878665D01*
X147775000Y-108161335D01*
X147830147Y-108438574D01*
X147938320Y-108699727D01*
X148095363Y-108934759D01*
X148295241Y-109134637D01*
X148495001Y-109268112D01*
X148495000Y-112705010D01*
X145992571Y-112705010D01*
X145997376Y-112699155D01*
X145997377Y-112699154D01*
X146063770Y-112574942D01*
X146104654Y-112440164D01*
X146115000Y-112335120D01*
X146115000Y-112335110D01*
X146118458Y-112300000D01*
X146115000Y-112264890D01*
X146115000Y-109268111D01*
X146314759Y-109134637D01*
X146514637Y-108934759D01*
X146671680Y-108699727D01*
X146779853Y-108438574D01*
X146835000Y-108161335D01*
X146835000Y-107878665D01*
X146779853Y-107601426D01*
X146671680Y-107340273D01*
X146514637Y-107105241D01*
X146314759Y-106905363D01*
X146079727Y-106748320D01*
X145818574Y-106640147D01*
X145541335Y-106585000D01*
X145258665Y-106585000D01*
X144981426Y-106640147D01*
X144720273Y-106748320D01*
X144485241Y-106905363D01*
X144285363Y-107105241D01*
X144128320Y-107340273D01*
X144020147Y-107601426D01*
X143965000Y-107878665D01*
X143965000Y-108161335D01*
X144020147Y-108438574D01*
X144128320Y-108699727D01*
X144285363Y-108934759D01*
X144485241Y-109134637D01*
X144685001Y-109268112D01*
X144685000Y-112003837D01*
X144303838Y-112385000D01*
X141876651Y-112385000D01*
X141880164Y-112384654D01*
X142014942Y-112343770D01*
X142139154Y-112277377D01*
X142248027Y-112188027D01*
X142270420Y-112160741D01*
X143340750Y-111090412D01*
X143368026Y-111068027D01*
X143410536Y-111016230D01*
X143457376Y-110959155D01*
X143457378Y-110959153D01*
X143523770Y-110834942D01*
X143564654Y-110700164D01*
X143575000Y-110595120D01*
X143575000Y-110595111D01*
X143578458Y-110560001D01*
X143575000Y-110524891D01*
X143575000Y-105738724D01*
X143817023Y-105980747D01*
X143839410Y-106008025D01*
X143866685Y-106030409D01*
X143866689Y-106030413D01*
X143948282Y-106097375D01*
X144072494Y-106163768D01*
X144207272Y-106204652D01*
X144347436Y-106218457D01*
X144382556Y-106214998D01*
X150603838Y-106215000D01*
X150885001Y-106496163D01*
X150885000Y-114373838D01*
X147335839Y-117923000D01*
X142080000Y-117923000D01*
X142055224Y-117925440D01*
X142031399Y-117932667D01*
X142009443Y-117944403D01*
X141990197Y-117960197D01*
X141974403Y-117979443D01*
X141962667Y-118001399D01*
X141955440Y-118025224D01*
X141953000Y-118050000D01*
X141953000Y-121650000D01*
X141955440Y-121674776D01*
X141962667Y-121698601D01*
X141974403Y-121720557D01*
X141990197Y-121739803D01*
X142009443Y-121755597D01*
X142031399Y-121767333D01*
X142055224Y-121774560D01*
X142080000Y-121777000D01*
X143785839Y-121777000D01*
X144689584Y-122680746D01*
X144711973Y-122708027D01*
X144820846Y-122797377D01*
X144945058Y-122863770D01*
X145079836Y-122904654D01*
X145184880Y-122915000D01*
X145184889Y-122915000D01*
X145219999Y-122918458D01*
X145255109Y-122915000D01*
X148664890Y-122915000D01*
X148700000Y-122918458D01*
X148735110Y-122915000D01*
X148735120Y-122915000D01*
X148840164Y-122904654D01*
X148974942Y-122863770D01*
X149099154Y-122797377D01*
X149208027Y-122708027D01*
X149230420Y-122680741D01*
X152400766Y-119510397D01*
X152428036Y-119488017D01*
X152450417Y-119460746D01*
X152450425Y-119460738D01*
X152517386Y-119379145D01*
X152517387Y-119379144D01*
X152583780Y-119254932D01*
X152624664Y-119120154D01*
X152635010Y-119015110D01*
X152635010Y-119015100D01*
X152638468Y-118979990D01*
X152635010Y-118944880D01*
X152635010Y-106102557D01*
X152638468Y-106067447D01*
X152635010Y-106032337D01*
X152635010Y-106032328D01*
X152624664Y-105927284D01*
X152583780Y-105792506D01*
X152517387Y-105668294D01*
X152428037Y-105559421D01*
X152400756Y-105537032D01*
X151562972Y-104699249D01*
X151540579Y-104671963D01*
X151431706Y-104582613D01*
X151307494Y-104516220D01*
X151172716Y-104475336D01*
X151067672Y-104464990D01*
X151067662Y-104464990D01*
X151032552Y-104461532D01*
X150997442Y-104464990D01*
X144776152Y-104464990D01*
X144315000Y-104003838D01*
X144315000Y-98804396D01*
X144485241Y-98974637D01*
X144720273Y-99131680D01*
X144981426Y-99239853D01*
X145258665Y-99295000D01*
X145541335Y-99295000D01*
X145818574Y-99239853D01*
X146079727Y-99131680D01*
X146314759Y-98974637D01*
X146514637Y-98774759D01*
X146671680Y-98539727D01*
X146779853Y-98278574D01*
X146835000Y-98001335D01*
X146835000Y-97718665D01*
X147775000Y-97718665D01*
X147775000Y-98001335D01*
X147830147Y-98278574D01*
X147938320Y-98539727D01*
X148095363Y-98774759D01*
X148295241Y-98974637D01*
X148530273Y-99131680D01*
X148791426Y-99239853D01*
X149068665Y-99295000D01*
X149351335Y-99295000D01*
X149628574Y-99239853D01*
X149889727Y-99131680D01*
X150124759Y-98974637D01*
X150324637Y-98774759D01*
X150458111Y-98575000D01*
X150963839Y-98575000D01*
X151885000Y-99496162D01*
X151885001Y-103164880D01*
X151881542Y-103200000D01*
X151885001Y-103235120D01*
X151895347Y-103340164D01*
X151936231Y-103474942D01*
X152002624Y-103599154D01*
X152091974Y-103708027D01*
X152119254Y-103730415D01*
X152929588Y-104540751D01*
X152951973Y-104568027D01*
X152979248Y-104590411D01*
X152979252Y-104590415D01*
X153043066Y-104642785D01*
X153060846Y-104657377D01*
X153185058Y-104723770D01*
X153259100Y-104746230D01*
X153319835Y-104764654D01*
X153331948Y-104765847D01*
X153424880Y-104775000D01*
X153424888Y-104775000D01*
X153460000Y-104778458D01*
X153495112Y-104775000D01*
X154713000Y-104775000D01*
X154713000Y-108410000D01*
X154715440Y-108434776D01*
X154722667Y-108458601D01*
X154734403Y-108480557D01*
X154750197Y-108499803D01*
X154769443Y-108515597D01*
X154791399Y-108527333D01*
X154815224Y-108534560D01*
X154840000Y-108537000D01*
X158440000Y-108537000D01*
X158464776Y-108534560D01*
X158488601Y-108527333D01*
X158510557Y-108515597D01*
X158529803Y-108499803D01*
X158545597Y-108480557D01*
X158557333Y-108458601D01*
X158564560Y-108434776D01*
X158567000Y-108410000D01*
X158567000Y-102260000D01*
X158564560Y-102235224D01*
X158557333Y-102211399D01*
X158545597Y-102189443D01*
X158529803Y-102170197D01*
X158510557Y-102154403D01*
X158488601Y-102142667D01*
X158464776Y-102135440D01*
X158440000Y-102133000D01*
X154840000Y-102133000D01*
X154815224Y-102135440D01*
X154791399Y-102142667D01*
X154769443Y-102154403D01*
X154750197Y-102170197D01*
X154734403Y-102189443D01*
X154722667Y-102211399D01*
X154715440Y-102235224D01*
X154713000Y-102260000D01*
X154713000Y-103345000D01*
X153756162Y-103345000D01*
X153315000Y-102903838D01*
X153315000Y-99235109D01*
X153318458Y-99199999D01*
X153315000Y-99164889D01*
X153315000Y-99164880D01*
X153304654Y-99059836D01*
X153263770Y-98925058D01*
X153197377Y-98800846D01*
X153175968Y-98774759D01*
X153130414Y-98719252D01*
X153130412Y-98719250D01*
X153108026Y-98691973D01*
X153080750Y-98669588D01*
X151790420Y-97379259D01*
X151768027Y-97351973D01*
X151659154Y-97262623D01*
X151534942Y-97196230D01*
X151400164Y-97155346D01*
X151295120Y-97145000D01*
X151295110Y-97145000D01*
X151260000Y-97141542D01*
X151224890Y-97145000D01*
X150458111Y-97145000D01*
X150324637Y-96945241D01*
X150124759Y-96745363D01*
X149889727Y-96588320D01*
X149628574Y-96480147D01*
X149351335Y-96425000D01*
X149068665Y-96425000D01*
X148791426Y-96480147D01*
X148530273Y-96588320D01*
X148295241Y-96745363D01*
X148095363Y-96945241D01*
X147938320Y-97180273D01*
X147830147Y-97441426D01*
X147775000Y-97718665D01*
X146835000Y-97718665D01*
X146779853Y-97441426D01*
X146671680Y-97180273D01*
X146514637Y-96945241D01*
X146314759Y-96745363D01*
X146115000Y-96611889D01*
X146115000Y-96315000D01*
X154713000Y-96315000D01*
X154713000Y-99950000D01*
X154715440Y-99974776D01*
X154722667Y-99998601D01*
X154734403Y-100020557D01*
X154750197Y-100039803D01*
X154769443Y-100055597D01*
X154791399Y-100067333D01*
X154815224Y-100074560D01*
X154840000Y-100077000D01*
X158440000Y-100077000D01*
X158464776Y-100074560D01*
X158488601Y-100067333D01*
X158510557Y-100055597D01*
X158529803Y-100039803D01*
X158545597Y-100020557D01*
X158557333Y-99998601D01*
X158564560Y-99974776D01*
X158567000Y-99950000D01*
X158567000Y-93800000D01*
X158564560Y-93775224D01*
X158557333Y-93751399D01*
X158545597Y-93729443D01*
X158529803Y-93710197D01*
X158510557Y-93694403D01*
X158488601Y-93682667D01*
X158464776Y-93675440D01*
X158440000Y-93673000D01*
X154840000Y-93673000D01*
X154815224Y-93675440D01*
X154791399Y-93682667D01*
X154769443Y-93694403D01*
X154750197Y-93710197D01*
X154734403Y-93729443D01*
X154722667Y-93751399D01*
X154715440Y-93775224D01*
X154713000Y-93800000D01*
X154713000Y-94885000D01*
X150304955Y-94885000D01*
X150374942Y-94863770D01*
X150499154Y-94797377D01*
X150608027Y-94708027D01*
X150630421Y-94680740D01*
X150960745Y-94350416D01*
X150988026Y-94328027D01*
X151077377Y-94219154D01*
X151143770Y-94094942D01*
X151184654Y-93960164D01*
X151195000Y-93855120D01*
X151195000Y-93855111D01*
X151198458Y-93820001D01*
X151195000Y-93784891D01*
X151195000Y-89557000D01*
X157245213Y-89557000D01*
X157269989Y-89554560D01*
X157293814Y-89547333D01*
X157315770Y-89535597D01*
X157335016Y-89519803D01*
X157350810Y-89500557D01*
X157362546Y-89478601D01*
X157369773Y-89454776D01*
X157372213Y-89430000D01*
X157372213Y-85830000D01*
X157369773Y-85805224D01*
X157362546Y-85781399D01*
X157350810Y-85759443D01*
X157335016Y-85740197D01*
X157315770Y-85724403D01*
X157293814Y-85712667D01*
X157269989Y-85705440D01*
X157245213Y-85703000D01*
X155846242Y-85703000D01*
X155803242Y-85660000D01*
X159380001Y-85660000D01*
X159380000Y-150167581D01*
G36*
X102285000Y-144296163D02*
G01*
X102285001Y-150540000D01*
X98589471Y-150540000D01*
X98720349Y-150452550D01*
X99052550Y-150120349D01*
X99313560Y-149729721D01*
X99493346Y-149295679D01*
X99585000Y-148834902D01*
X99585000Y-148365098D01*
X99493346Y-147904321D01*
X99313560Y-147470279D01*
X99052550Y-147079651D01*
X98720349Y-146747450D01*
X98329721Y-146486440D01*
X97895679Y-146306654D01*
X97434902Y-146215000D01*
X96965098Y-146215000D01*
X96504321Y-146306654D01*
X96070279Y-146486440D01*
X95679651Y-146747450D01*
X95347450Y-147079651D01*
X95260000Y-147210529D01*
X95260000Y-143692000D01*
X101680839Y-143692000D01*
X102285000Y-144296163D01*
G37*
X102285000Y-144296163D02*
X102285001Y-150540000D01*
X98589471Y-150540000D01*
X98720349Y-150452550D01*
X99052550Y-150120349D01*
X99313560Y-149729721D01*
X99493346Y-149295679D01*
X99585000Y-148834902D01*
X99585000Y-148365098D01*
X99493346Y-147904321D01*
X99313560Y-147470279D01*
X99052550Y-147079651D01*
X98720349Y-146747450D01*
X98329721Y-146486440D01*
X97895679Y-146306654D01*
X97434902Y-146215000D01*
X96965098Y-146215000D01*
X96504321Y-146306654D01*
X96070279Y-146486440D01*
X95679651Y-146747450D01*
X95347450Y-147079651D01*
X95260000Y-147210529D01*
X95260000Y-143692000D01*
X101680839Y-143692000D01*
X102285000Y-144296163D01*
G36*
X123793000Y-128772637D02*
G01*
X123419255Y-129146382D01*
X123391974Y-129168771D01*
X123302624Y-129277644D01*
X123236231Y-129401856D01*
X123195347Y-129536634D01*
X123181542Y-129676798D01*
X123185001Y-129711917D01*
X123185000Y-132864890D01*
X123181542Y-132900000D01*
X123185000Y-132935110D01*
X123185000Y-132935119D01*
X123195346Y-133040163D01*
X123231032Y-133157806D01*
X122819255Y-133569584D01*
X122791974Y-133591973D01*
X122735815Y-133660403D01*
X122702624Y-133700846D01*
X122636231Y-133825058D01*
X122595347Y-133959836D01*
X122581542Y-134100000D01*
X122585001Y-134135120D01*
X122585000Y-148564890D01*
X122581542Y-148600000D01*
X122585000Y-148635110D01*
X122585000Y-148635119D01*
X122595346Y-148740163D01*
X122636230Y-148874941D01*
X122702623Y-148999153D01*
X122791973Y-149108026D01*
X122819255Y-149130416D01*
X123099583Y-149410745D01*
X123121973Y-149438027D01*
X123230846Y-149527377D01*
X123355058Y-149593770D01*
X123489836Y-149634654D01*
X123594880Y-149645000D01*
X123594889Y-149645000D01*
X123629999Y-149648458D01*
X123665109Y-149645000D01*
X135853000Y-149645000D01*
X135853000Y-149885000D01*
X103715000Y-149885000D01*
X103715000Y-144035109D01*
X103718458Y-143999999D01*
X103715000Y-143964889D01*
X103715000Y-143964880D01*
X103704654Y-143859836D01*
X103663770Y-143725058D01*
X103597377Y-143600846D01*
X103597376Y-143600844D01*
X103530414Y-143519251D01*
X103530407Y-143519244D01*
X103508026Y-143491973D01*
X103480756Y-143469593D01*
X102507420Y-142496259D01*
X102485027Y-142468973D01*
X102376154Y-142379623D01*
X102251942Y-142313230D01*
X102117164Y-142272346D01*
X102012120Y-142262000D01*
X102012110Y-142262000D01*
X101977000Y-142258542D01*
X101941890Y-142262000D01*
X99172000Y-142262000D01*
X99172000Y-136595000D01*
X99169560Y-136570224D01*
X99162333Y-136546399D01*
X99150597Y-136524443D01*
X99134803Y-136505197D01*
X99115557Y-136489403D01*
X99093601Y-136477667D01*
X99069776Y-136470440D01*
X99045000Y-136468000D01*
X95838000Y-136468000D01*
X95838000Y-135277000D01*
X98810000Y-135277000D01*
X98834776Y-135274560D01*
X98858601Y-135267333D01*
X98880557Y-135255597D01*
X98899803Y-135239803D01*
X98915597Y-135220557D01*
X98927333Y-135198601D01*
X98934560Y-135174776D01*
X98937000Y-135150000D01*
X98937000Y-132974999D01*
X120257453Y-132974999D01*
X120292563Y-132978457D01*
X120327673Y-132974999D01*
X120327683Y-132974999D01*
X120432727Y-132964653D01*
X120567505Y-132923769D01*
X120691717Y-132857376D01*
X120800590Y-132768026D01*
X120822983Y-132740740D01*
X122580755Y-130982970D01*
X122608025Y-130960590D01*
X122630405Y-130933320D01*
X122630414Y-130933311D01*
X122697375Y-130851718D01*
X122763768Y-130727506D01*
X122804653Y-130592728D01*
X122818458Y-130452563D01*
X122814998Y-130417433D01*
X122815000Y-126996162D01*
X123396163Y-126415000D01*
X123793000Y-126415000D01*
X123793000Y-128772637D01*
G37*
X123793000Y-128772637D02*
X123419255Y-129146382D01*
X123391974Y-129168771D01*
X123302624Y-129277644D01*
X123236231Y-129401856D01*
X123195347Y-129536634D01*
X123181542Y-129676798D01*
X123185001Y-129711917D01*
X123185000Y-132864890D01*
X123181542Y-132900000D01*
X123185000Y-132935110D01*
X123185000Y-132935119D01*
X123195346Y-133040163D01*
X123231032Y-133157806D01*
X122819255Y-133569584D01*
X122791974Y-133591973D01*
X122735815Y-133660403D01*
X122702624Y-133700846D01*
X122636231Y-133825058D01*
X122595347Y-133959836D01*
X122581542Y-134100000D01*
X122585001Y-134135120D01*
X122585000Y-148564890D01*
X122581542Y-148600000D01*
X122585000Y-148635110D01*
X122585000Y-148635119D01*
X122595346Y-148740163D01*
X122636230Y-148874941D01*
X122702623Y-148999153D01*
X122791973Y-149108026D01*
X122819255Y-149130416D01*
X123099583Y-149410745D01*
X123121973Y-149438027D01*
X123230846Y-149527377D01*
X123355058Y-149593770D01*
X123489836Y-149634654D01*
X123594880Y-149645000D01*
X123594889Y-149645000D01*
X123629999Y-149648458D01*
X123665109Y-149645000D01*
X135853000Y-149645000D01*
X135853000Y-149885000D01*
X103715000Y-149885000D01*
X103715000Y-144035109D01*
X103718458Y-143999999D01*
X103715000Y-143964889D01*
X103715000Y-143964880D01*
X103704654Y-143859836D01*
X103663770Y-143725058D01*
X103597377Y-143600846D01*
X103597376Y-143600844D01*
X103530414Y-143519251D01*
X103530407Y-143519244D01*
X103508026Y-143491973D01*
X103480756Y-143469593D01*
X102507420Y-142496259D01*
X102485027Y-142468973D01*
X102376154Y-142379623D01*
X102251942Y-142313230D01*
X102117164Y-142272346D01*
X102012120Y-142262000D01*
X102012110Y-142262000D01*
X101977000Y-142258542D01*
X101941890Y-142262000D01*
X99172000Y-142262000D01*
X99172000Y-136595000D01*
X99169560Y-136570224D01*
X99162333Y-136546399D01*
X99150597Y-136524443D01*
X99134803Y-136505197D01*
X99115557Y-136489403D01*
X99093601Y-136477667D01*
X99069776Y-136470440D01*
X99045000Y-136468000D01*
X95838000Y-136468000D01*
X95838000Y-135277000D01*
X98810000Y-135277000D01*
X98834776Y-135274560D01*
X98858601Y-135267333D01*
X98880557Y-135255597D01*
X98899803Y-135239803D01*
X98915597Y-135220557D01*
X98927333Y-135198601D01*
X98934560Y-135174776D01*
X98937000Y-135150000D01*
X98937000Y-132974999D01*
X120257453Y-132974999D01*
X120292563Y-132978457D01*
X120327673Y-132974999D01*
X120327683Y-132974999D01*
X120432727Y-132964653D01*
X120567505Y-132923769D01*
X120691717Y-132857376D01*
X120800590Y-132768026D01*
X120822983Y-132740740D01*
X122580755Y-130982970D01*
X122608025Y-130960590D01*
X122630405Y-130933320D01*
X122630414Y-130933311D01*
X122697375Y-130851718D01*
X122763768Y-130727506D01*
X122804653Y-130592728D01*
X122818458Y-130452563D01*
X122814998Y-130417433D01*
X122815000Y-126996162D01*
X123396163Y-126415000D01*
X123793000Y-126415000D01*
X123793000Y-128772637D01*
G36*
X137381838Y-147003000D02*
G01*
X135980000Y-147003000D01*
X135955224Y-147005440D01*
X135931399Y-147012667D01*
X135909443Y-147024403D01*
X135890197Y-147040197D01*
X135874403Y-147059443D01*
X135862667Y-147081399D01*
X135855440Y-147105224D01*
X135853000Y-147130000D01*
X135853000Y-148215000D01*
X124015000Y-148215000D01*
X124015000Y-144077000D01*
X130080000Y-144077000D01*
X130104776Y-144074560D01*
X130128601Y-144067333D01*
X130150557Y-144055597D01*
X130169803Y-144039803D01*
X130185597Y-144020557D01*
X130197333Y-143998601D01*
X130204560Y-143974776D01*
X130207000Y-143950000D01*
X130207000Y-142875000D01*
X133253839Y-142875000D01*
X137381838Y-147003000D01*
G37*
X137381838Y-147003000D02*
X135980000Y-147003000D01*
X135955224Y-147005440D01*
X135931399Y-147012667D01*
X135909443Y-147024403D01*
X135890197Y-147040197D01*
X135874403Y-147059443D01*
X135862667Y-147081399D01*
X135855440Y-147105224D01*
X135853000Y-147130000D01*
X135853000Y-148215000D01*
X124015000Y-148215000D01*
X124015000Y-144077000D01*
X130080000Y-144077000D01*
X130104776Y-144074560D01*
X130128601Y-144067333D01*
X130150557Y-144055597D01*
X130169803Y-144039803D01*
X130185597Y-144020557D01*
X130197333Y-143998601D01*
X130204560Y-143974776D01*
X130207000Y-143950000D01*
X130207000Y-142875000D01*
X133253839Y-142875000D01*
X137381838Y-147003000D01*
G36*
X146203918Y-147003000D02*
G01*
X144484162Y-147003000D01*
X135300421Y-137819260D01*
X135278027Y-137791973D01*
X135169154Y-137702623D01*
X135044942Y-137636230D01*
X134910164Y-137595346D01*
X134805120Y-137585000D01*
X134805110Y-137585000D01*
X134770000Y-137581542D01*
X134734890Y-137585000D01*
X130207000Y-137585000D01*
X130207000Y-131624999D01*
X130825919Y-131624999D01*
X146203918Y-147003000D01*
G37*
X146203918Y-147003000D02*
X144484162Y-147003000D01*
X135300421Y-137819260D01*
X135278027Y-137791973D01*
X135169154Y-137702623D01*
X135044942Y-137636230D01*
X134910164Y-137595346D01*
X134805120Y-137585000D01*
X134805110Y-137585000D01*
X134770000Y-137581542D01*
X134734890Y-137585000D01*
X130207000Y-137585000D01*
X130207000Y-131624999D01*
X130825919Y-131624999D01*
X146203918Y-147003000D01*
G36*
X142461838Y-147003000D02*
G01*
X141944162Y-147003000D01*
X134080421Y-139139260D01*
X134058027Y-139111973D01*
X133949154Y-139022623D01*
X133934892Y-139015000D01*
X134473839Y-139015000D01*
X142461838Y-147003000D01*
G37*
X142461838Y-147003000D02*
X141944162Y-147003000D01*
X134080421Y-139139260D01*
X134058027Y-139111973D01*
X133949154Y-139022623D01*
X133934892Y-139015000D01*
X134473839Y-139015000D01*
X142461838Y-147003000D01*
G36*
X139921838Y-147003000D02*
G01*
X139404163Y-147003000D01*
X134080420Y-141679259D01*
X134058027Y-141651973D01*
X133949154Y-141562623D01*
X133824942Y-141496230D01*
X133690164Y-141455346D01*
X133585120Y-141445000D01*
X133585110Y-141445000D01*
X133550000Y-141441542D01*
X133514890Y-141445000D01*
X130207000Y-141445000D01*
X130207000Y-140335000D01*
X133253839Y-140335000D01*
X139921838Y-147003000D01*
G37*
X139921838Y-147003000D02*
X139404163Y-147003000D01*
X134080420Y-141679259D01*
X134058027Y-141651973D01*
X133949154Y-141562623D01*
X133824942Y-141496230D01*
X133690164Y-141455346D01*
X133585120Y-141445000D01*
X133585110Y-141445000D01*
X133550000Y-141441542D01*
X133514890Y-141445000D01*
X130207000Y-141445000D01*
X130207000Y-140335000D01*
X133253839Y-140335000D01*
X139921838Y-147003000D01*
G36*
X121064990Y-130023848D02*
G01*
X119863850Y-131224989D01*
X98937000Y-131224989D01*
X98937000Y-128985000D01*
X120954870Y-128985000D01*
X120989980Y-128988458D01*
X121025090Y-128985000D01*
X121025100Y-128985000D01*
X121064990Y-128981071D01*
X121064990Y-130023848D01*
G37*
X121064990Y-130023848D02*
X119863850Y-131224989D01*
X98937000Y-131224989D01*
X98937000Y-128985000D01*
X120954870Y-128985000D01*
X120989980Y-128988458D01*
X121025090Y-128985000D01*
X121025100Y-128985000D01*
X121064990Y-128981071D01*
X121064990Y-130023848D01*
G36*
X130585000Y-129874989D02*
G01*
X130207000Y-129874989D01*
X130207000Y-129045009D01*
X130487433Y-129045009D01*
X130522552Y-129048468D01*
X130585000Y-129042317D01*
X130585000Y-129874989D01*
G37*
X130585000Y-129874989D02*
X130207000Y-129874989D01*
X130207000Y-129045009D01*
X130487433Y-129045009D01*
X130522552Y-129048468D01*
X130585000Y-129042317D01*
X130585000Y-129874989D01*
G36*
X120424972Y-123925148D02*
G01*
X120424971Y-126163867D01*
X120203838Y-126385000D01*
X98937000Y-126385000D01*
X98937000Y-123905000D01*
X120422988Y-123905000D01*
X120424972Y-123925148D01*
G37*
X120424972Y-123925148D02*
X120424971Y-126163867D01*
X120203838Y-126385000D01*
X98937000Y-126385000D01*
X98937000Y-123905000D01*
X120422988Y-123905000D01*
X120424972Y-123925148D01*
G36*
X123793000Y-124985000D02*
G01*
X123135112Y-124985000D01*
X123100000Y-124981542D01*
X123064888Y-124985000D01*
X123064880Y-124985000D01*
X122971948Y-124994153D01*
X122959835Y-124995346D01*
X122918951Y-125007748D01*
X122825058Y-125036230D01*
X122700846Y-125102623D01*
X122700844Y-125102624D01*
X122700845Y-125102624D01*
X122619252Y-125169585D01*
X122619248Y-125169589D01*
X122591973Y-125191973D01*
X122569588Y-125219249D01*
X122494990Y-125293847D01*
X122494990Y-124916171D01*
X123406164Y-124004999D01*
X123793000Y-124004999D01*
X123793000Y-124985000D01*
G37*
X123793000Y-124985000D02*
X123135112Y-124985000D01*
X123100000Y-124981542D01*
X123064888Y-124985000D01*
X123064880Y-124985000D01*
X122971948Y-124994153D01*
X122959835Y-124995346D01*
X122918951Y-125007748D01*
X122825058Y-125036230D01*
X122700846Y-125102623D01*
X122700844Y-125102624D01*
X122700845Y-125102624D01*
X122619252Y-125169585D01*
X122619248Y-125169589D01*
X122591973Y-125191973D01*
X122569588Y-125219249D01*
X122494990Y-125293847D01*
X122494990Y-124916171D01*
X123406164Y-124004999D01*
X123793000Y-124004999D01*
X123793000Y-124985000D01*
G36*
X121091277Y-122475000D02*
G01*
X98937000Y-122475000D01*
X98937000Y-121365000D01*
X122201276Y-121365000D01*
X121091277Y-122475000D01*
G37*
X121091277Y-122475000D02*
X98937000Y-122475000D01*
X98937000Y-121365000D01*
X122201276Y-121365000D01*
X121091277Y-122475000D01*
G36*
X151205010Y-118683827D02*
G01*
X148403839Y-121485000D01*
X148367000Y-121485000D01*
X148367000Y-118914161D01*
X151205010Y-116076152D01*
X151205010Y-118683827D01*
G37*
X151205010Y-118683827D02*
X148403839Y-121485000D01*
X148367000Y-121485000D01*
X148367000Y-118914161D01*
X151205010Y-116076152D01*
X151205010Y-118683827D01*
G36*
X123461533Y-118784245D02*
G01*
X123464992Y-118819364D01*
X123464991Y-119623847D01*
X123153838Y-119935000D01*
X98937000Y-119935000D01*
X98937000Y-118825000D01*
X123154890Y-118825000D01*
X123190000Y-118828458D01*
X123225110Y-118825000D01*
X123225120Y-118825000D01*
X123330164Y-118814654D01*
X123462491Y-118774513D01*
X123461533Y-118784245D01*
G37*
X123461533Y-118784245D02*
X123464992Y-118819364D01*
X123464991Y-119623847D01*
X123153838Y-119935000D01*
X98937000Y-119935000D01*
X98937000Y-118825000D01*
X123154890Y-118825000D01*
X123190000Y-118828458D01*
X123225110Y-118825000D01*
X123225120Y-118825000D01*
X123330164Y-118814654D01*
X123462491Y-118774513D01*
X123461533Y-118784245D01*
G36*
X123793000Y-115095839D02*
G01*
X123619255Y-115269584D01*
X123591974Y-115291973D01*
X123559069Y-115332068D01*
X123502624Y-115400846D01*
X123436231Y-115525058D01*
X123395347Y-115659836D01*
X123381542Y-115800000D01*
X123385001Y-115835119D01*
X123385000Y-116903837D01*
X122893839Y-117395000D01*
X98937000Y-117395000D01*
X98937000Y-116285000D01*
X99278890Y-116285000D01*
X99314000Y-116288458D01*
X99349110Y-116285000D01*
X99349120Y-116285000D01*
X99454164Y-116274654D01*
X99588942Y-116233770D01*
X99713154Y-116167377D01*
X99822027Y-116078027D01*
X99844420Y-116050741D01*
X100175750Y-115719412D01*
X100203026Y-115697027D01*
X100233549Y-115659836D01*
X100249693Y-115640164D01*
X100292377Y-115588154D01*
X100358770Y-115463942D01*
X100399654Y-115329164D01*
X100410000Y-115224120D01*
X100410000Y-115224111D01*
X100413458Y-115189001D01*
X100410000Y-115153891D01*
X100410000Y-106341162D01*
X100626162Y-106125000D01*
X123793000Y-106125000D01*
X123793000Y-115095839D01*
G37*
X123793000Y-115095839D02*
X123619255Y-115269584D01*
X123591974Y-115291973D01*
X123559069Y-115332068D01*
X123502624Y-115400846D01*
X123436231Y-115525058D01*
X123395347Y-115659836D01*
X123381542Y-115800000D01*
X123385001Y-115835119D01*
X123385000Y-116903837D01*
X122893839Y-117395000D01*
X98937000Y-117395000D01*
X98937000Y-116285000D01*
X99278890Y-116285000D01*
X99314000Y-116288458D01*
X99349110Y-116285000D01*
X99349120Y-116285000D01*
X99454164Y-116274654D01*
X99588942Y-116233770D01*
X99713154Y-116167377D01*
X99822027Y-116078027D01*
X99844420Y-116050741D01*
X100175750Y-115719412D01*
X100203026Y-115697027D01*
X100233549Y-115659836D01*
X100249693Y-115640164D01*
X100292377Y-115588154D01*
X100358770Y-115463942D01*
X100399654Y-115329164D01*
X100410000Y-115224120D01*
X100410000Y-115224111D01*
X100413458Y-115189001D01*
X100410000Y-115153891D01*
X100410000Y-106341162D01*
X100626162Y-106125000D01*
X123793000Y-106125000D01*
X123793000Y-115095839D01*
G36*
X98980000Y-114855000D02*
G01*
X98937000Y-114855000D01*
X98937000Y-109592161D01*
X98980001Y-109549161D01*
X98980000Y-114855000D01*
G37*
X98980000Y-114855000D02*
X98937000Y-114855000D01*
X98937000Y-109592161D01*
X98980001Y-109549161D01*
X98980000Y-114855000D01*
G36*
X130221961Y-100480000D02*
G01*
X130221969Y-100480000D01*
X130257081Y-100483458D01*
X130292193Y-100480000D01*
X132741928Y-100480000D01*
X132741928Y-101090000D01*
X132754188Y-101214482D01*
X132790498Y-101334180D01*
X132849463Y-101444494D01*
X132928815Y-101541185D01*
X133025506Y-101620537D01*
X133135820Y-101679502D01*
X133255518Y-101715812D01*
X133380000Y-101728072D01*
X135830000Y-101728072D01*
X135954482Y-101715812D01*
X136074180Y-101679502D01*
X136184494Y-101620537D01*
X136281185Y-101541185D01*
X136360537Y-101444494D01*
X136419502Y-101334180D01*
X136455812Y-101214482D01*
X136468072Y-101090000D01*
X136468072Y-100480000D01*
X139091928Y-100480000D01*
X139091928Y-101090000D01*
X139104188Y-101214482D01*
X139140498Y-101334180D01*
X139199463Y-101444494D01*
X139278815Y-101541185D01*
X139375506Y-101620537D01*
X139485820Y-101679502D01*
X139605518Y-101715812D01*
X139730000Y-101728072D01*
X141824991Y-101728072D01*
X141824991Y-104301928D01*
X139730000Y-104301928D01*
X139605518Y-104314188D01*
X139485820Y-104350498D01*
X139375506Y-104409463D01*
X139278815Y-104488815D01*
X139199463Y-104585506D01*
X139140498Y-104695820D01*
X139104188Y-104815518D01*
X139091928Y-104940000D01*
X139091928Y-105400000D01*
X136468072Y-105400000D01*
X136468072Y-104940000D01*
X136455812Y-104815518D01*
X136419502Y-104695820D01*
X136360537Y-104585506D01*
X136281185Y-104488815D01*
X136184494Y-104409463D01*
X136074180Y-104350498D01*
X135954482Y-104314188D01*
X135830000Y-104301928D01*
X133380000Y-104301928D01*
X133255518Y-104314188D01*
X133135820Y-104350498D01*
X133025506Y-104409463D01*
X132928815Y-104488815D01*
X132849463Y-104585506D01*
X132790498Y-104695820D01*
X132754188Y-104815518D01*
X132741928Y-104940000D01*
X132741928Y-107290000D01*
X132754188Y-107414482D01*
X132790498Y-107534180D01*
X132849463Y-107644494D01*
X132928815Y-107741185D01*
X133025506Y-107820537D01*
X133135820Y-107879502D01*
X133255518Y-107915812D01*
X133380000Y-107928072D01*
X135830000Y-107928072D01*
X135954482Y-107915812D01*
X136074180Y-107879502D01*
X136184494Y-107820537D01*
X136281185Y-107741185D01*
X136360537Y-107644494D01*
X136419502Y-107534180D01*
X136455812Y-107414482D01*
X136468072Y-107290000D01*
X136468072Y-106830000D01*
X139091928Y-106830000D01*
X139091928Y-107290000D01*
X139104188Y-107414482D01*
X139140498Y-107534180D01*
X139199463Y-107644494D01*
X139278815Y-107741185D01*
X139375506Y-107820537D01*
X139485820Y-107879502D01*
X139605518Y-107915812D01*
X139730000Y-107928072D01*
X142145000Y-107928072D01*
X142145000Y-110263838D01*
X141443839Y-110965000D01*
X130676162Y-110965000D01*
X130515000Y-110803838D01*
X130515000Y-106963028D01*
X130518458Y-106927918D01*
X130515000Y-106892808D01*
X130515000Y-106892799D01*
X130504654Y-106787755D01*
X130463770Y-106652977D01*
X130459728Y-106645414D01*
X130427435Y-106585000D01*
X130397377Y-106528765D01*
X130352586Y-106474188D01*
X130330414Y-106447171D01*
X130330412Y-106447169D01*
X130308026Y-106419892D01*
X130280750Y-106397507D01*
X130207000Y-106323757D01*
X130207000Y-100478526D01*
X130221961Y-100480000D01*
G37*
X130221961Y-100480000D02*
X130221969Y-100480000D01*
X130257081Y-100483458D01*
X130292193Y-100480000D01*
X132741928Y-100480000D01*
X132741928Y-101090000D01*
X132754188Y-101214482D01*
X132790498Y-101334180D01*
X132849463Y-101444494D01*
X132928815Y-101541185D01*
X133025506Y-101620537D01*
X133135820Y-101679502D01*
X133255518Y-101715812D01*
X133380000Y-101728072D01*
X135830000Y-101728072D01*
X135954482Y-101715812D01*
X136074180Y-101679502D01*
X136184494Y-101620537D01*
X136281185Y-101541185D01*
X136360537Y-101444494D01*
X136419502Y-101334180D01*
X136455812Y-101214482D01*
X136468072Y-101090000D01*
X136468072Y-100480000D01*
X139091928Y-100480000D01*
X139091928Y-101090000D01*
X139104188Y-101214482D01*
X139140498Y-101334180D01*
X139199463Y-101444494D01*
X139278815Y-101541185D01*
X139375506Y-101620537D01*
X139485820Y-101679502D01*
X139605518Y-101715812D01*
X139730000Y-101728072D01*
X141824991Y-101728072D01*
X141824991Y-104301928D01*
X139730000Y-104301928D01*
X139605518Y-104314188D01*
X139485820Y-104350498D01*
X139375506Y-104409463D01*
X139278815Y-104488815D01*
X139199463Y-104585506D01*
X139140498Y-104695820D01*
X139104188Y-104815518D01*
X139091928Y-104940000D01*
X139091928Y-105400000D01*
X136468072Y-105400000D01*
X136468072Y-104940000D01*
X136455812Y-104815518D01*
X136419502Y-104695820D01*
X136360537Y-104585506D01*
X136281185Y-104488815D01*
X136184494Y-104409463D01*
X136074180Y-104350498D01*
X135954482Y-104314188D01*
X135830000Y-104301928D01*
X133380000Y-104301928D01*
X133255518Y-104314188D01*
X133135820Y-104350498D01*
X133025506Y-104409463D01*
X132928815Y-104488815D01*
X132849463Y-104585506D01*
X132790498Y-104695820D01*
X132754188Y-104815518D01*
X132741928Y-104940000D01*
X132741928Y-107290000D01*
X132754188Y-107414482D01*
X132790498Y-107534180D01*
X132849463Y-107644494D01*
X132928815Y-107741185D01*
X133025506Y-107820537D01*
X133135820Y-107879502D01*
X133255518Y-107915812D01*
X133380000Y-107928072D01*
X135830000Y-107928072D01*
X135954482Y-107915812D01*
X136074180Y-107879502D01*
X136184494Y-107820537D01*
X136281185Y-107741185D01*
X136360537Y-107644494D01*
X136419502Y-107534180D01*
X136455812Y-107414482D01*
X136468072Y-107290000D01*
X136468072Y-106830000D01*
X139091928Y-106830000D01*
X139091928Y-107290000D01*
X139104188Y-107414482D01*
X139140498Y-107534180D01*
X139199463Y-107644494D01*
X139278815Y-107741185D01*
X139375506Y-107820537D01*
X139485820Y-107879502D01*
X139605518Y-107915812D01*
X139730000Y-107928072D01*
X142145000Y-107928072D01*
X142145000Y-110263838D01*
X141443839Y-110965000D01*
X130676162Y-110965000D01*
X130515000Y-110803838D01*
X130515000Y-106963028D01*
X130518458Y-106927918D01*
X130515000Y-106892808D01*
X130515000Y-106892799D01*
X130504654Y-106787755D01*
X130463770Y-106652977D01*
X130459728Y-106645414D01*
X130427435Y-106585000D01*
X130397377Y-106528765D01*
X130352586Y-106474188D01*
X130330414Y-106447171D01*
X130330412Y-106447169D01*
X130308026Y-106419892D01*
X130280750Y-106397507D01*
X130207000Y-106323757D01*
X130207000Y-100478526D01*
X130221961Y-100480000D01*
G36*
X98098368Y-104093475D02*
G01*
X98224550Y-104177787D01*
X98121991Y-104261955D01*
X98099603Y-104289235D01*
X96549255Y-105839584D01*
X96521973Y-105861974D01*
X96432623Y-105970847D01*
X96404747Y-106023000D01*
X95260000Y-106023000D01*
X95260000Y-104287295D01*
X95300506Y-104320537D01*
X95410820Y-104379502D01*
X95530518Y-104415812D01*
X95655000Y-104428072D01*
X97355000Y-104428072D01*
X97479482Y-104415812D01*
X97599180Y-104379502D01*
X97709494Y-104320537D01*
X97806185Y-104241185D01*
X97885537Y-104144494D01*
X97944502Y-104034180D01*
X97966513Y-103961620D01*
X98098368Y-104093475D01*
G37*
X98098368Y-104093475D02*
X98224550Y-104177787D01*
X98121991Y-104261955D01*
X98099603Y-104289235D01*
X96549255Y-105839584D01*
X96521973Y-105861974D01*
X96432623Y-105970847D01*
X96404747Y-106023000D01*
X95260000Y-106023000D01*
X95260000Y-104287295D01*
X95300506Y-104320537D01*
X95410820Y-104379502D01*
X95530518Y-104415812D01*
X95655000Y-104428072D01*
X97355000Y-104428072D01*
X97479482Y-104415812D01*
X97599180Y-104379502D01*
X97709494Y-104320537D01*
X97806185Y-104241185D01*
X97885537Y-104144494D01*
X97944502Y-104034180D01*
X97966513Y-103961620D01*
X98098368Y-104093475D01*
G36*
X122885001Y-104003837D02*
G01*
X122513848Y-104374990D01*
X121936172Y-104374990D01*
X122885001Y-103426162D01*
X122885001Y-104003837D01*
G37*
X122885001Y-104003837D02*
X122513848Y-104374990D01*
X121936172Y-104374990D01*
X122885001Y-103426162D01*
X122885001Y-104003837D01*
G36*
X131811973Y-85671973D02*
G01*
X131789588Y-85699249D01*
X130519255Y-86969584D01*
X130491974Y-86991973D01*
X130410140Y-87091688D01*
X130402624Y-87100846D01*
X130336231Y-87225058D01*
X130295347Y-87359836D01*
X130281542Y-87500000D01*
X130285001Y-87535120D01*
X130285000Y-93185000D01*
X130207000Y-93185000D01*
X130207000Y-92100000D01*
X130204560Y-92075224D01*
X130197333Y-92051399D01*
X130185597Y-92029443D01*
X130169803Y-92010197D01*
X130150557Y-91994403D01*
X130128601Y-91982667D01*
X130104776Y-91975440D01*
X130080000Y-91973000D01*
X128985000Y-91973000D01*
X128985000Y-91856109D01*
X128988458Y-91820999D01*
X128985000Y-91785889D01*
X128985000Y-91785880D01*
X128974654Y-91680836D01*
X128933770Y-91546058D01*
X128867377Y-91421846D01*
X128778026Y-91312973D01*
X128750750Y-91290588D01*
X128419420Y-90959259D01*
X128397027Y-90931973D01*
X128288154Y-90842623D01*
X128163942Y-90776230D01*
X128029164Y-90735346D01*
X127924120Y-90725000D01*
X127924110Y-90725000D01*
X127889000Y-90721542D01*
X127853890Y-90725000D01*
X123795112Y-90725000D01*
X123760000Y-90721542D01*
X123724888Y-90725000D01*
X123724880Y-90725000D01*
X123631948Y-90734153D01*
X123619835Y-90735346D01*
X123578951Y-90747748D01*
X123485058Y-90776230D01*
X123360846Y-90842623D01*
X123360844Y-90842624D01*
X123360845Y-90842624D01*
X123279252Y-90909585D01*
X123279248Y-90909589D01*
X123251973Y-90931973D01*
X123229588Y-90959249D01*
X122119255Y-92069584D01*
X122091973Y-92091974D01*
X122002623Y-92200847D01*
X121936230Y-92325059D01*
X121895346Y-92459837D01*
X121885000Y-92564881D01*
X121885000Y-92564890D01*
X121881542Y-92600000D01*
X121885000Y-92635110D01*
X121885001Y-102403836D01*
X120233857Y-104054982D01*
X100030125Y-104054982D01*
X100198475Y-103886632D01*
X100360990Y-103643411D01*
X100472932Y-103373158D01*
X100530000Y-103086260D01*
X100530000Y-102793740D01*
X100472932Y-102506842D01*
X100360990Y-102236589D01*
X100198475Y-101993368D01*
X99991632Y-101786525D01*
X99748411Y-101624010D01*
X99478158Y-101512068D01*
X99191260Y-101455000D01*
X98898740Y-101455000D01*
X98611842Y-101512068D01*
X98341589Y-101624010D01*
X98098368Y-101786525D01*
X97966513Y-101918380D01*
X97944502Y-101845820D01*
X97885537Y-101735506D01*
X97806185Y-101638815D01*
X97709494Y-101559463D01*
X97599180Y-101500498D01*
X97479482Y-101464188D01*
X97355000Y-101451928D01*
X97220000Y-101451928D01*
X97220000Y-100618072D01*
X97355000Y-100618072D01*
X97479482Y-100605812D01*
X97599180Y-100569502D01*
X97709494Y-100510537D01*
X97806185Y-100431185D01*
X97885537Y-100334494D01*
X97944502Y-100224180D01*
X97966513Y-100151620D01*
X98098368Y-100283475D01*
X98341589Y-100445990D01*
X98611842Y-100557932D01*
X98898740Y-100615000D01*
X99191260Y-100615000D01*
X99478158Y-100557932D01*
X99748411Y-100445990D01*
X99991632Y-100283475D01*
X100198475Y-100076632D01*
X100360990Y-99833411D01*
X100472932Y-99563158D01*
X100530000Y-99276260D01*
X100530000Y-98983740D01*
X100472932Y-98696842D01*
X100360990Y-98426589D01*
X100198475Y-98183368D01*
X99991632Y-97976525D01*
X99748411Y-97814010D01*
X99478158Y-97702068D01*
X99191260Y-97645000D01*
X98898740Y-97645000D01*
X98611842Y-97702068D01*
X98341589Y-97814010D01*
X98098368Y-97976525D01*
X97966513Y-98108380D01*
X97944502Y-98035820D01*
X97885537Y-97925506D01*
X97806185Y-97828815D01*
X97709494Y-97749463D01*
X97599180Y-97690498D01*
X97479482Y-97654188D01*
X97355000Y-97641928D01*
X97220000Y-97641928D01*
X97220000Y-96808072D01*
X97355000Y-96808072D01*
X97479482Y-96795812D01*
X97599180Y-96759502D01*
X97709494Y-96700537D01*
X97806185Y-96621185D01*
X97885537Y-96524494D01*
X97944502Y-96414180D01*
X97966513Y-96341620D01*
X98098368Y-96473475D01*
X98341589Y-96635990D01*
X98611842Y-96747932D01*
X98898740Y-96805000D01*
X99191260Y-96805000D01*
X99478158Y-96747932D01*
X99748411Y-96635990D01*
X99991632Y-96473475D01*
X100198475Y-96266632D01*
X100360990Y-96023411D01*
X100472932Y-95753158D01*
X100530000Y-95466260D01*
X100530000Y-95173740D01*
X100472932Y-94886842D01*
X100360990Y-94616589D01*
X100198475Y-94373368D01*
X99991632Y-94166525D01*
X99748411Y-94004010D01*
X99478158Y-93892068D01*
X99191260Y-93835000D01*
X98898740Y-93835000D01*
X98611842Y-93892068D01*
X98341589Y-94004010D01*
X98098368Y-94166525D01*
X97966513Y-94298380D01*
X97944502Y-94225820D01*
X97885537Y-94115506D01*
X97806185Y-94018815D01*
X97709494Y-93939463D01*
X97599180Y-93880498D01*
X97479482Y-93844188D01*
X97355000Y-93831928D01*
X97220000Y-93831928D01*
X97220000Y-92998072D01*
X97355000Y-92998072D01*
X97479482Y-92985812D01*
X97599180Y-92949502D01*
X97709494Y-92890537D01*
X97806185Y-92811185D01*
X97885537Y-92714494D01*
X97944502Y-92604180D01*
X97966513Y-92531620D01*
X98098368Y-92663475D01*
X98341589Y-92825990D01*
X98611842Y-92937932D01*
X98898740Y-92995000D01*
X99191260Y-92995000D01*
X99478158Y-92937932D01*
X99748411Y-92825990D01*
X99991632Y-92663475D01*
X100198475Y-92456632D01*
X100360990Y-92213411D01*
X100472932Y-91943158D01*
X100530000Y-91656260D01*
X100530000Y-91363740D01*
X100472932Y-91076842D01*
X100360990Y-90806589D01*
X100198475Y-90563368D01*
X99991632Y-90356525D01*
X99748411Y-90194010D01*
X99478158Y-90082068D01*
X99191260Y-90025000D01*
X98898740Y-90025000D01*
X98611842Y-90082068D01*
X98341589Y-90194010D01*
X98098368Y-90356525D01*
X97966513Y-90488380D01*
X97944502Y-90415820D01*
X97885537Y-90305506D01*
X97806185Y-90208815D01*
X97709494Y-90129463D01*
X97599180Y-90070498D01*
X97479482Y-90034188D01*
X97355000Y-90021928D01*
X95655000Y-90021928D01*
X95530518Y-90034188D01*
X95410820Y-90070498D01*
X95300506Y-90129463D01*
X95260000Y-90162705D01*
X95260000Y-88989471D01*
X95347450Y-89120349D01*
X95679651Y-89452550D01*
X96070279Y-89713560D01*
X96504321Y-89893346D01*
X96965098Y-89985000D01*
X97434902Y-89985000D01*
X97895679Y-89893346D01*
X98329721Y-89713560D01*
X98720349Y-89452550D01*
X99052550Y-89120349D01*
X99313560Y-88729721D01*
X99493346Y-88295679D01*
X99585000Y-87834902D01*
X99585000Y-87365098D01*
X99493346Y-86904321D01*
X99313560Y-86470279D01*
X99052550Y-86079651D01*
X98720349Y-85747450D01*
X98589471Y-85660000D01*
X131826562Y-85660000D01*
X131811973Y-85671973D01*
G37*
X131811973Y-85671973D02*
X131789588Y-85699249D01*
X130519255Y-86969584D01*
X130491974Y-86991973D01*
X130410140Y-87091688D01*
X130402624Y-87100846D01*
X130336231Y-87225058D01*
X130295347Y-87359836D01*
X130281542Y-87500000D01*
X130285001Y-87535120D01*
X130285000Y-93185000D01*
X130207000Y-93185000D01*
X130207000Y-92100000D01*
X130204560Y-92075224D01*
X130197333Y-92051399D01*
X130185597Y-92029443D01*
X130169803Y-92010197D01*
X130150557Y-91994403D01*
X130128601Y-91982667D01*
X130104776Y-91975440D01*
X130080000Y-91973000D01*
X128985000Y-91973000D01*
X128985000Y-91856109D01*
X128988458Y-91820999D01*
X128985000Y-91785889D01*
X128985000Y-91785880D01*
X128974654Y-91680836D01*
X128933770Y-91546058D01*
X128867377Y-91421846D01*
X128778026Y-91312973D01*
X128750750Y-91290588D01*
X128419420Y-90959259D01*
X128397027Y-90931973D01*
X128288154Y-90842623D01*
X128163942Y-90776230D01*
X128029164Y-90735346D01*
X127924120Y-90725000D01*
X127924110Y-90725000D01*
X127889000Y-90721542D01*
X127853890Y-90725000D01*
X123795112Y-90725000D01*
X123760000Y-90721542D01*
X123724888Y-90725000D01*
X123724880Y-90725000D01*
X123631948Y-90734153D01*
X123619835Y-90735346D01*
X123578951Y-90747748D01*
X123485058Y-90776230D01*
X123360846Y-90842623D01*
X123360844Y-90842624D01*
X123360845Y-90842624D01*
X123279252Y-90909585D01*
X123279248Y-90909589D01*
X123251973Y-90931973D01*
X123229588Y-90959249D01*
X122119255Y-92069584D01*
X122091973Y-92091974D01*
X122002623Y-92200847D01*
X121936230Y-92325059D01*
X121895346Y-92459837D01*
X121885000Y-92564881D01*
X121885000Y-92564890D01*
X121881542Y-92600000D01*
X121885000Y-92635110D01*
X121885001Y-102403836D01*
X120233857Y-104054982D01*
X100030125Y-104054982D01*
X100198475Y-103886632D01*
X100360990Y-103643411D01*
X100472932Y-103373158D01*
X100530000Y-103086260D01*
X100530000Y-102793740D01*
X100472932Y-102506842D01*
X100360990Y-102236589D01*
X100198475Y-101993368D01*
X99991632Y-101786525D01*
X99748411Y-101624010D01*
X99478158Y-101512068D01*
X99191260Y-101455000D01*
X98898740Y-101455000D01*
X98611842Y-101512068D01*
X98341589Y-101624010D01*
X98098368Y-101786525D01*
X97966513Y-101918380D01*
X97944502Y-101845820D01*
X97885537Y-101735506D01*
X97806185Y-101638815D01*
X97709494Y-101559463D01*
X97599180Y-101500498D01*
X97479482Y-101464188D01*
X97355000Y-101451928D01*
X97220000Y-101451928D01*
X97220000Y-100618072D01*
X97355000Y-100618072D01*
X97479482Y-100605812D01*
X97599180Y-100569502D01*
X97709494Y-100510537D01*
X97806185Y-100431185D01*
X97885537Y-100334494D01*
X97944502Y-100224180D01*
X97966513Y-100151620D01*
X98098368Y-100283475D01*
X98341589Y-100445990D01*
X98611842Y-100557932D01*
X98898740Y-100615000D01*
X99191260Y-100615000D01*
X99478158Y-100557932D01*
X99748411Y-100445990D01*
X99991632Y-100283475D01*
X100198475Y-100076632D01*
X100360990Y-99833411D01*
X100472932Y-99563158D01*
X100530000Y-99276260D01*
X100530000Y-98983740D01*
X100472932Y-98696842D01*
X100360990Y-98426589D01*
X100198475Y-98183368D01*
X99991632Y-97976525D01*
X99748411Y-97814010D01*
X99478158Y-97702068D01*
X99191260Y-97645000D01*
X98898740Y-97645000D01*
X98611842Y-97702068D01*
X98341589Y-97814010D01*
X98098368Y-97976525D01*
X97966513Y-98108380D01*
X97944502Y-98035820D01*
X97885537Y-97925506D01*
X97806185Y-97828815D01*
X97709494Y-97749463D01*
X97599180Y-97690498D01*
X97479482Y-97654188D01*
X97355000Y-97641928D01*
X97220000Y-97641928D01*
X97220000Y-96808072D01*
X97355000Y-96808072D01*
X97479482Y-96795812D01*
X97599180Y-96759502D01*
X97709494Y-96700537D01*
X97806185Y-96621185D01*
X97885537Y-96524494D01*
X97944502Y-96414180D01*
X97966513Y-96341620D01*
X98098368Y-96473475D01*
X98341589Y-96635990D01*
X98611842Y-96747932D01*
X98898740Y-96805000D01*
X99191260Y-96805000D01*
X99478158Y-96747932D01*
X99748411Y-96635990D01*
X99991632Y-96473475D01*
X100198475Y-96266632D01*
X100360990Y-96023411D01*
X100472932Y-95753158D01*
X100530000Y-95466260D01*
X100530000Y-95173740D01*
X100472932Y-94886842D01*
X100360990Y-94616589D01*
X100198475Y-94373368D01*
X99991632Y-94166525D01*
X99748411Y-94004010D01*
X99478158Y-93892068D01*
X99191260Y-93835000D01*
X98898740Y-93835000D01*
X98611842Y-93892068D01*
X98341589Y-94004010D01*
X98098368Y-94166525D01*
X97966513Y-94298380D01*
X97944502Y-94225820D01*
X97885537Y-94115506D01*
X97806185Y-94018815D01*
X97709494Y-93939463D01*
X97599180Y-93880498D01*
X97479482Y-93844188D01*
X97355000Y-93831928D01*
X97220000Y-93831928D01*
X97220000Y-92998072D01*
X97355000Y-92998072D01*
X97479482Y-92985812D01*
X97599180Y-92949502D01*
X97709494Y-92890537D01*
X97806185Y-92811185D01*
X97885537Y-92714494D01*
X97944502Y-92604180D01*
X97966513Y-92531620D01*
X98098368Y-92663475D01*
X98341589Y-92825990D01*
X98611842Y-92937932D01*
X98898740Y-92995000D01*
X99191260Y-92995000D01*
X99478158Y-92937932D01*
X99748411Y-92825990D01*
X99991632Y-92663475D01*
X100198475Y-92456632D01*
X100360990Y-92213411D01*
X100472932Y-91943158D01*
X100530000Y-91656260D01*
X100530000Y-91363740D01*
X100472932Y-91076842D01*
X100360990Y-90806589D01*
X100198475Y-90563368D01*
X99991632Y-90356525D01*
X99748411Y-90194010D01*
X99478158Y-90082068D01*
X99191260Y-90025000D01*
X98898740Y-90025000D01*
X98611842Y-90082068D01*
X98341589Y-90194010D01*
X98098368Y-90356525D01*
X97966513Y-90488380D01*
X97944502Y-90415820D01*
X97885537Y-90305506D01*
X97806185Y-90208815D01*
X97709494Y-90129463D01*
X97599180Y-90070498D01*
X97479482Y-90034188D01*
X97355000Y-90021928D01*
X95655000Y-90021928D01*
X95530518Y-90034188D01*
X95410820Y-90070498D01*
X95300506Y-90129463D01*
X95260000Y-90162705D01*
X95260000Y-88989471D01*
X95347450Y-89120349D01*
X95679651Y-89452550D01*
X96070279Y-89713560D01*
X96504321Y-89893346D01*
X96965098Y-89985000D01*
X97434902Y-89985000D01*
X97895679Y-89893346D01*
X98329721Y-89713560D01*
X98720349Y-89452550D01*
X99052550Y-89120349D01*
X99313560Y-88729721D01*
X99493346Y-88295679D01*
X99585000Y-87834902D01*
X99585000Y-87365098D01*
X99493346Y-86904321D01*
X99313560Y-86470279D01*
X99052550Y-86079651D01*
X98720349Y-85747450D01*
X98589471Y-85660000D01*
X131826562Y-85660000D01*
X131811973Y-85671973D01*
G36*
X95300506Y-100510537D02*
G01*
X95410820Y-100569502D01*
X95530518Y-100605812D01*
X95655000Y-100618072D01*
X95790000Y-100618072D01*
X95790001Y-101451928D01*
X95655000Y-101451928D01*
X95530518Y-101464188D01*
X95410820Y-101500498D01*
X95300506Y-101559463D01*
X95260000Y-101592705D01*
X95260000Y-100477295D01*
X95300506Y-100510537D01*
G37*
X95300506Y-100510537D02*
X95410820Y-100569502D01*
X95530518Y-100605812D01*
X95655000Y-100618072D01*
X95790000Y-100618072D01*
X95790001Y-101451928D01*
X95655000Y-101451928D01*
X95530518Y-101464188D01*
X95410820Y-101500498D01*
X95300506Y-101559463D01*
X95260000Y-101592705D01*
X95260000Y-100477295D01*
X95300506Y-100510537D01*
G36*
X131000000Y-94618459D02*
G01*
X131035119Y-94615000D01*
X132888838Y-94615000D01*
X133255000Y-94981163D01*
X133255001Y-95919881D01*
X133251542Y-95955000D01*
X133255001Y-95990120D01*
X133265347Y-96095164D01*
X133306231Y-96229942D01*
X133372624Y-96354154D01*
X133461974Y-96463027D01*
X133489254Y-96485415D01*
X134074588Y-97070751D01*
X134096973Y-97098027D01*
X134124248Y-97120411D01*
X134124252Y-97120415D01*
X134166816Y-97155346D01*
X134205846Y-97187377D01*
X134330058Y-97253770D01*
X134423951Y-97282252D01*
X134464835Y-97294654D01*
X134476948Y-97295847D01*
X134569880Y-97305000D01*
X134569888Y-97305000D01*
X134605000Y-97308458D01*
X134640112Y-97305000D01*
X141293839Y-97305000D01*
X141824990Y-97836153D01*
X141824990Y-98101928D01*
X139730000Y-98101928D01*
X139605518Y-98114188D01*
X139485820Y-98150498D01*
X139375506Y-98209463D01*
X139278815Y-98288815D01*
X139199463Y-98385506D01*
X139140498Y-98495820D01*
X139104188Y-98615518D01*
X139091928Y-98740000D01*
X139091928Y-99050000D01*
X136468072Y-99050000D01*
X136468072Y-98740000D01*
X136455812Y-98615518D01*
X136419502Y-98495820D01*
X136360537Y-98385506D01*
X136281185Y-98288815D01*
X136184494Y-98209463D01*
X136074180Y-98150498D01*
X135954482Y-98114188D01*
X135830000Y-98101928D01*
X133380000Y-98101928D01*
X133255518Y-98114188D01*
X133135820Y-98150498D01*
X133025506Y-98209463D01*
X132928815Y-98288815D01*
X132849463Y-98385506D01*
X132790498Y-98495820D01*
X132754188Y-98615518D01*
X132741928Y-98740000D01*
X132741928Y-99050000D01*
X130553243Y-99050000D01*
X130207000Y-98703757D01*
X130207000Y-94615000D01*
X130964880Y-94615000D01*
X131000000Y-94618459D01*
G37*
X131000000Y-94618459D02*
X131035119Y-94615000D01*
X132888838Y-94615000D01*
X133255000Y-94981163D01*
X133255001Y-95919881D01*
X133251542Y-95955000D01*
X133255001Y-95990120D01*
X133265347Y-96095164D01*
X133306231Y-96229942D01*
X133372624Y-96354154D01*
X133461974Y-96463027D01*
X133489254Y-96485415D01*
X134074588Y-97070751D01*
X134096973Y-97098027D01*
X134124248Y-97120411D01*
X134124252Y-97120415D01*
X134166816Y-97155346D01*
X134205846Y-97187377D01*
X134330058Y-97253770D01*
X134423951Y-97282252D01*
X134464835Y-97294654D01*
X134476948Y-97295847D01*
X134569880Y-97305000D01*
X134569888Y-97305000D01*
X134605000Y-97308458D01*
X134640112Y-97305000D01*
X141293839Y-97305000D01*
X141824990Y-97836153D01*
X141824990Y-98101928D01*
X139730000Y-98101928D01*
X139605518Y-98114188D01*
X139485820Y-98150498D01*
X139375506Y-98209463D01*
X139278815Y-98288815D01*
X139199463Y-98385506D01*
X139140498Y-98495820D01*
X139104188Y-98615518D01*
X139091928Y-98740000D01*
X139091928Y-99050000D01*
X136468072Y-99050000D01*
X136468072Y-98740000D01*
X136455812Y-98615518D01*
X136419502Y-98495820D01*
X136360537Y-98385506D01*
X136281185Y-98288815D01*
X136184494Y-98209463D01*
X136074180Y-98150498D01*
X135954482Y-98114188D01*
X135830000Y-98101928D01*
X133380000Y-98101928D01*
X133255518Y-98114188D01*
X133135820Y-98150498D01*
X133025506Y-98209463D01*
X132928815Y-98288815D01*
X132849463Y-98385506D01*
X132790498Y-98495820D01*
X132754188Y-98615518D01*
X132741928Y-98740000D01*
X132741928Y-99050000D01*
X130553243Y-99050000D01*
X130207000Y-98703757D01*
X130207000Y-94615000D01*
X130964880Y-94615000D01*
X131000000Y-94618459D01*
G36*
X95300506Y-96700537D02*
G01*
X95410820Y-96759502D01*
X95530518Y-96795812D01*
X95655000Y-96808072D01*
X95790000Y-96808072D01*
X95790001Y-97641928D01*
X95655000Y-97641928D01*
X95530518Y-97654188D01*
X95410820Y-97690498D01*
X95300506Y-97749463D01*
X95260000Y-97782705D01*
X95260000Y-96667295D01*
X95300506Y-96700537D01*
G37*
X95300506Y-96700537D02*
X95410820Y-96759502D01*
X95530518Y-96795812D01*
X95655000Y-96808072D01*
X95790000Y-96808072D01*
X95790001Y-97641928D01*
X95655000Y-97641928D01*
X95530518Y-97654188D01*
X95410820Y-97690498D01*
X95300506Y-97749463D01*
X95260000Y-97782705D01*
X95260000Y-96667295D01*
X95300506Y-96700537D01*
G36*
X145325058Y-94936230D02*
G01*
X145200846Y-95002623D01*
X145091973Y-95091973D01*
X145069583Y-95119255D01*
X144919254Y-95269585D01*
X144891974Y-95291973D01*
X144830728Y-95366601D01*
X144802624Y-95400846D01*
X144736231Y-95525058D01*
X144695347Y-95659836D01*
X144681542Y-95800000D01*
X144685001Y-95835119D01*
X144685001Y-96611888D01*
X144485241Y-96745363D01*
X144315000Y-96915604D01*
X144315000Y-95396161D01*
X144796162Y-94915000D01*
X145395045Y-94915000D01*
X145325058Y-94936230D01*
G37*
X145325058Y-94936230D02*
X145200846Y-95002623D01*
X145091973Y-95091973D01*
X145069583Y-95119255D01*
X144919254Y-95269585D01*
X144891974Y-95291973D01*
X144830728Y-95366601D01*
X144802624Y-95400846D01*
X144736231Y-95525058D01*
X144695347Y-95659836D01*
X144681542Y-95800000D01*
X144685001Y-95835119D01*
X144685001Y-96611888D01*
X144485241Y-96745363D01*
X144315000Y-96915604D01*
X144315000Y-95396161D01*
X144796162Y-94915000D01*
X145395045Y-94915000D01*
X145325058Y-94936230D01*
G36*
X133415321Y-89430000D02*
G01*
X133417761Y-89454776D01*
X133424988Y-89478601D01*
X133436724Y-89500557D01*
X133452518Y-89519803D01*
X133471764Y-89535597D01*
X133493720Y-89547333D01*
X133517545Y-89554560D01*
X133542321Y-89557000D01*
X137915000Y-89557000D01*
X137914999Y-91689889D01*
X137911541Y-91724999D01*
X137914999Y-91760109D01*
X137914999Y-91760118D01*
X137925345Y-91865162D01*
X137966229Y-91999940D01*
X138032622Y-92124152D01*
X138121972Y-92233025D01*
X138149254Y-92255415D01*
X138519579Y-92625740D01*
X138541973Y-92653027D01*
X138650846Y-92742377D01*
X138775058Y-92808770D01*
X138909836Y-92849654D01*
X139014880Y-92860000D01*
X139014889Y-92860000D01*
X139049999Y-92863458D01*
X139085109Y-92860000D01*
X141928838Y-92860000D01*
X142145001Y-93076163D01*
X142145001Y-96133840D01*
X142120420Y-96109259D01*
X142098027Y-96081973D01*
X141989154Y-95992623D01*
X141864942Y-95926230D01*
X141730164Y-95885346D01*
X141625120Y-95875000D01*
X141625110Y-95875000D01*
X141590000Y-95871542D01*
X141554890Y-95875000D01*
X138057899Y-95875000D01*
X138362550Y-95570349D01*
X138623560Y-95179721D01*
X138803346Y-94745679D01*
X138895000Y-94284902D01*
X138895000Y-93815098D01*
X138803346Y-93354321D01*
X138623560Y-92920279D01*
X138362550Y-92529651D01*
X138030349Y-92197450D01*
X137639721Y-91936440D01*
X137205679Y-91756654D01*
X136744902Y-91665000D01*
X136275098Y-91665000D01*
X135814321Y-91756654D01*
X135380279Y-91936440D01*
X134989651Y-92197450D01*
X134657450Y-92529651D01*
X134396440Y-92920279D01*
X134216654Y-93354321D01*
X134125000Y-93815098D01*
X134125000Y-93828838D01*
X133715420Y-93419259D01*
X133693027Y-93391973D01*
X133584154Y-93302623D01*
X133459942Y-93236230D01*
X133325164Y-93195346D01*
X133220120Y-93185000D01*
X133220110Y-93185000D01*
X133185000Y-93181542D01*
X133149890Y-93185000D01*
X131715000Y-93185000D01*
X131715000Y-87796161D01*
X132616163Y-86895000D01*
X133415321Y-86895000D01*
X133415321Y-89430000D01*
G37*
X133415321Y-89430000D02*
X133417761Y-89454776D01*
X133424988Y-89478601D01*
X133436724Y-89500557D01*
X133452518Y-89519803D01*
X133471764Y-89535597D01*
X133493720Y-89547333D01*
X133517545Y-89554560D01*
X133542321Y-89557000D01*
X137915000Y-89557000D01*
X137914999Y-91689889D01*
X137911541Y-91724999D01*
X137914999Y-91760109D01*
X137914999Y-91760118D01*
X137925345Y-91865162D01*
X137966229Y-91999940D01*
X138032622Y-92124152D01*
X138121972Y-92233025D01*
X138149254Y-92255415D01*
X138519579Y-92625740D01*
X138541973Y-92653027D01*
X138650846Y-92742377D01*
X138775058Y-92808770D01*
X138909836Y-92849654D01*
X139014880Y-92860000D01*
X139014889Y-92860000D01*
X139049999Y-92863458D01*
X139085109Y-92860000D01*
X141928838Y-92860000D01*
X142145001Y-93076163D01*
X142145001Y-96133840D01*
X142120420Y-96109259D01*
X142098027Y-96081973D01*
X141989154Y-95992623D01*
X141864942Y-95926230D01*
X141730164Y-95885346D01*
X141625120Y-95875000D01*
X141625110Y-95875000D01*
X141590000Y-95871542D01*
X141554890Y-95875000D01*
X138057899Y-95875000D01*
X138362550Y-95570349D01*
X138623560Y-95179721D01*
X138803346Y-94745679D01*
X138895000Y-94284902D01*
X138895000Y-93815098D01*
X138803346Y-93354321D01*
X138623560Y-92920279D01*
X138362550Y-92529651D01*
X138030349Y-92197450D01*
X137639721Y-91936440D01*
X137205679Y-91756654D01*
X136744902Y-91665000D01*
X136275098Y-91665000D01*
X135814321Y-91756654D01*
X135380279Y-91936440D01*
X134989651Y-92197450D01*
X134657450Y-92529651D01*
X134396440Y-92920279D01*
X134216654Y-93354321D01*
X134125000Y-93815098D01*
X134125000Y-93828838D01*
X133715420Y-93419259D01*
X133693027Y-93391973D01*
X133584154Y-93302623D01*
X133459942Y-93236230D01*
X133325164Y-93195346D01*
X133220120Y-93185000D01*
X133220110Y-93185000D01*
X133185000Y-93181542D01*
X133149890Y-93185000D01*
X131715000Y-93185000D01*
X131715000Y-87796161D01*
X132616163Y-86895000D01*
X133415321Y-86895000D01*
X133415321Y-89430000D01*
G36*
X134962101Y-95875000D02*
G01*
X134901162Y-95875000D01*
X134685000Y-95658838D01*
X134685000Y-95597899D01*
X134962101Y-95875000D01*
G37*
X134962101Y-95875000D02*
X134901162Y-95875000D01*
X134685000Y-95658838D01*
X134685000Y-95597899D01*
X134962101Y-95875000D01*
G36*
X123793000Y-93815838D02*
G01*
X123315000Y-94293839D01*
X123315000Y-92896161D01*
X123793000Y-92418162D01*
X123793000Y-93815838D01*
G37*
X123793000Y-93815838D02*
X123315000Y-94293839D01*
X123315000Y-92896161D01*
X123793000Y-92418162D01*
X123793000Y-93815838D01*
G36*
X95300506Y-92890537D02*
G01*
X95410820Y-92949502D01*
X95530518Y-92985812D01*
X95655000Y-92998072D01*
X95790000Y-92998072D01*
X95790001Y-93831928D01*
X95655000Y-93831928D01*
X95530518Y-93844188D01*
X95410820Y-93880498D01*
X95300506Y-93939463D01*
X95260000Y-93972705D01*
X95260000Y-92857295D01*
X95300506Y-92890537D01*
G37*
X95300506Y-92890537D02*
X95410820Y-92949502D01*
X95530518Y-92985812D01*
X95655000Y-92998072D01*
X95790000Y-92998072D01*
X95790001Y-93831928D01*
X95655000Y-93831928D01*
X95530518Y-93844188D01*
X95410820Y-93880498D01*
X95300506Y-93939463D01*
X95260000Y-93972705D01*
X95260000Y-92857295D01*
X95300506Y-92890537D01*
G36*
X145918213Y-89430000D02*
G01*
X145920653Y-89454776D01*
X145927880Y-89478601D01*
X145939616Y-89500557D01*
X145955410Y-89519803D01*
X145974656Y-89535597D01*
X145996612Y-89547333D01*
X146020437Y-89554560D01*
X146045213Y-89557000D01*
X147225001Y-89557000D01*
X147225000Y-92743827D01*
X146803838Y-93164990D01*
X144402557Y-93164990D01*
X144367447Y-93161532D01*
X144332337Y-93164990D01*
X144332328Y-93164990D01*
X144227284Y-93175336D01*
X144092506Y-93216220D01*
X144092504Y-93216221D01*
X143968292Y-93282614D01*
X143886699Y-93349576D01*
X143886696Y-93349579D01*
X143859421Y-93371963D01*
X143837036Y-93399239D01*
X143575000Y-93661276D01*
X143575000Y-92815112D01*
X143578458Y-92780000D01*
X143575000Y-92744888D01*
X143575000Y-92744880D01*
X143565847Y-92651948D01*
X143564654Y-92639835D01*
X143552211Y-92598815D01*
X143523770Y-92505058D01*
X143457377Y-92380846D01*
X143420029Y-92335337D01*
X143390415Y-92299252D01*
X143390411Y-92299248D01*
X143368027Y-92271973D01*
X143340751Y-92249588D01*
X142755420Y-91664259D01*
X142733027Y-91636973D01*
X142624154Y-91547623D01*
X142499942Y-91481230D01*
X142365164Y-91440346D01*
X142260120Y-91430000D01*
X142260110Y-91430000D01*
X142225000Y-91426542D01*
X142189890Y-91430000D01*
X139346161Y-91430000D01*
X139344999Y-91428838D01*
X139344999Y-89557000D01*
X144752321Y-89557000D01*
X144777097Y-89554560D01*
X144800922Y-89547333D01*
X144822878Y-89535597D01*
X144842124Y-89519803D01*
X144857918Y-89500557D01*
X144869654Y-89478601D01*
X144876881Y-89454776D01*
X144879321Y-89430000D01*
X144879321Y-86715000D01*
X145918213Y-86715000D01*
X145918213Y-89430000D01*
G37*
X145918213Y-89430000D02*
X145920653Y-89454776D01*
X145927880Y-89478601D01*
X145939616Y-89500557D01*
X145955410Y-89519803D01*
X145974656Y-89535597D01*
X145996612Y-89547333D01*
X146020437Y-89554560D01*
X146045213Y-89557000D01*
X147225001Y-89557000D01*
X147225000Y-92743827D01*
X146803838Y-93164990D01*
X144402557Y-93164990D01*
X144367447Y-93161532D01*
X144332337Y-93164990D01*
X144332328Y-93164990D01*
X144227284Y-93175336D01*
X144092506Y-93216220D01*
X144092504Y-93216221D01*
X143968292Y-93282614D01*
X143886699Y-93349576D01*
X143886696Y-93349579D01*
X143859421Y-93371963D01*
X143837036Y-93399239D01*
X143575000Y-93661276D01*
X143575000Y-92815112D01*
X143578458Y-92780000D01*
X143575000Y-92744888D01*
X143575000Y-92744880D01*
X143565847Y-92651948D01*
X143564654Y-92639835D01*
X143552211Y-92598815D01*
X143523770Y-92505058D01*
X143457377Y-92380846D01*
X143420029Y-92335337D01*
X143390415Y-92299252D01*
X143390411Y-92299248D01*
X143368027Y-92271973D01*
X143340751Y-92249588D01*
X142755420Y-91664259D01*
X142733027Y-91636973D01*
X142624154Y-91547623D01*
X142499942Y-91481230D01*
X142365164Y-91440346D01*
X142260120Y-91430000D01*
X142260110Y-91430000D01*
X142225000Y-91426542D01*
X142189890Y-91430000D01*
X139346161Y-91430000D01*
X139344999Y-91428838D01*
X139344999Y-89557000D01*
X144752321Y-89557000D01*
X144777097Y-89554560D01*
X144800922Y-89547333D01*
X144822878Y-89535597D01*
X144842124Y-89519803D01*
X144857918Y-89500557D01*
X144869654Y-89478601D01*
X144876881Y-89454776D01*
X144879321Y-89430000D01*
X144879321Y-86715000D01*
X145918213Y-86715000D01*
X145918213Y-89430000D01*
G36*
X149765000Y-93485000D02*
G01*
X148499744Y-93485000D01*
X148537376Y-93439145D01*
X148537378Y-93439143D01*
X148603770Y-93314932D01*
X148644654Y-93180154D01*
X148655000Y-93075110D01*
X148655000Y-93075101D01*
X148658458Y-93039991D01*
X148655000Y-93004881D01*
X148655000Y-89557000D01*
X149765001Y-89557000D01*
X149765000Y-93485000D01*
G37*
X149765000Y-93485000D02*
X148499744Y-93485000D01*
X148537376Y-93439145D01*
X148537378Y-93439143D01*
X148603770Y-93314932D01*
X148644654Y-93180154D01*
X148655000Y-93075110D01*
X148655000Y-93075101D01*
X148658458Y-93039991D01*
X148655000Y-93004881D01*
X148655000Y-89557000D01*
X149765001Y-89557000D01*
X149765000Y-93485000D01*
M02*
