M48
; DRILL file {KiCad (5.1.5)-3} date 6/28/2020 2:38:21 AM
; FORMAT={-:-/ absolute / inch / decimal}
; #@! TF.CreationDate,2020-06-28T02:38:21-04:00
; #@! TF.GenerationSoftware,Kicad,Pcbnew,(5.1.5)-3
; #@! TF.FileFunction,Plated,1,2,PTH
FMAT,2
INCH
T1C0.0315
T2C0.0394
T3C0.0866
%
G90
G05
T1
X5.8744Y-3.8528
X5.8744Y-4.2528
X5.7244Y-3.8528
X5.7244Y-4.2528
T2
X5.4244Y-5.8634
X5.5244Y-5.8634
X5.6244Y-5.8634
X5.7244Y-5.8634
X5.8244Y-5.8634
X5.9244Y-5.8634
X6.0244Y-5.8634
X4.95Y-3.6969
X4.95Y-3.7969
X4.95Y-3.8969
X4.95Y-3.9969
X4.95Y-4.0969
X4.95Y-4.1969
X4.95Y-4.2969
X4.95Y-4.3969
X4.95Y-4.4969
X4.95Y-4.5969
X4.95Y-4.6969
X4.95Y-4.7969
X4.95Y-4.8969
X4.95Y-4.9969
X4.95Y-5.0969
X4.95Y-5.1969
X4.95Y-5.2969
X4.95Y-5.3969
X4.95Y-5.4969
X4.95Y-5.5969
X5.05Y-3.6969
X5.05Y-3.7969
X5.05Y-3.8969
X5.05Y-3.9969
X5.05Y-4.0969
X5.05Y-4.1969
X5.05Y-4.2969
X5.05Y-4.3969
X5.05Y-4.4969
X5.05Y-4.5969
X5.05Y-4.6969
X5.05Y-4.7969
X5.05Y-4.8969
X5.05Y-4.9969
X5.05Y-5.0969
X5.05Y-5.1969
X5.05Y-5.2969
X5.05Y-5.3969
X5.05Y-5.4969
X5.05Y-5.5969
X5.3244Y-3.45
X5.4244Y-3.45
X5.5244Y-3.45
X5.6244Y-3.45
X5.8244Y-3.45
X5.9244Y-3.45
X6.0244Y-3.45
X6.1244Y-3.45
X3.7994Y-3.7528
X3.8994Y-3.7528
X3.7994Y-4.0528
X3.8994Y-4.0528
X3.82Y-5.4528
X3.82Y-5.5528
X3.82Y-4.25
X3.82Y-4.35
X3.82Y-4.45
X3.82Y-4.55
X3.82Y-4.65
X3.82Y-4.75
X3.82Y-4.85
X3.82Y-4.95
X3.82Y-5.05
X3.82Y-5.15
X3.82Y-5.25
X3.7994Y-3.9028
X3.8994Y-3.9028
X3.7994Y-3.6028
X3.8994Y-3.6028
X5.6646Y-4.7185
X5.7646Y-4.7185
X6.1669Y-4.0969
X6.1669Y-4.1969
X6.1669Y-3.7638
X6.1669Y-3.8638
T3
X3.8268Y-5.8504
X5.3744Y-3.7028
X3.8268Y-3.4488
T0
M30
