G04 #@! TF.GenerationSoftware,KiCad,Pcbnew,(5.1.5)-3*
G04 #@! TF.CreationDate,2020-06-28T02:39:40-04:00*
G04 #@! TF.ProjectId,SteeringWheelKicad,53746565-7269-46e6-9757-6865656c4b69,3.0*
G04 #@! TF.SameCoordinates,Original*
G04 #@! TF.FileFunction,Soldermask,Top*
G04 #@! TF.FilePolarity,Negative*
%FSLAX46Y46*%
G04 Gerber Fmt 4.6, Leading zero omitted, Abs format (unit mm)*
G04 Created by KiCad (PCBNEW (5.1.5)-3) date 2020-06-28 02:39:40*
%MOMM*%
%LPD*%
G04 APERTURE LIST*
%ADD10C,0.100000*%
G04 APERTURE END LIST*
D10*
G36*
X97725331Y-146868211D02*
G01*
X98053092Y-147003974D01*
X98348070Y-147201072D01*
X98598928Y-147451930D01*
X98796026Y-147746908D01*
X98931789Y-148074669D01*
X99001000Y-148422616D01*
X99001000Y-148777384D01*
X98931789Y-149125331D01*
X98796026Y-149453092D01*
X98598928Y-149748070D01*
X98348070Y-149998928D01*
X98053092Y-150196026D01*
X97725331Y-150331789D01*
X97377384Y-150401000D01*
X97022616Y-150401000D01*
X96674669Y-150331789D01*
X96346908Y-150196026D01*
X96051930Y-149998928D01*
X95801072Y-149748070D01*
X95603974Y-149453092D01*
X95468211Y-149125331D01*
X95399000Y-148777384D01*
X95399000Y-148422616D01*
X95468211Y-148074669D01*
X95603974Y-147746908D01*
X95801072Y-147451930D01*
X96051930Y-147201072D01*
X96346908Y-147003974D01*
X96674669Y-146868211D01*
X97022616Y-146799000D01*
X97377384Y-146799000D01*
X97725331Y-146868211D01*
G37*
G36*
X153133512Y-148033927D02*
G01*
X153282812Y-148063624D01*
X153446784Y-148131544D01*
X153594354Y-148230147D01*
X153719853Y-148355646D01*
X153818456Y-148503216D01*
X153886376Y-148667188D01*
X153921000Y-148841259D01*
X153921000Y-149018741D01*
X153886376Y-149192812D01*
X153818456Y-149356784D01*
X153719853Y-149504354D01*
X153594354Y-149629853D01*
X153446784Y-149728456D01*
X153282812Y-149796376D01*
X153133512Y-149826073D01*
X153108742Y-149831000D01*
X152931258Y-149831000D01*
X152906488Y-149826073D01*
X152757188Y-149796376D01*
X152593216Y-149728456D01*
X152445646Y-149629853D01*
X152320147Y-149504354D01*
X152221544Y-149356784D01*
X152153624Y-149192812D01*
X152119000Y-149018741D01*
X152119000Y-148841259D01*
X152153624Y-148667188D01*
X152221544Y-148503216D01*
X152320147Y-148355646D01*
X152445646Y-148230147D01*
X152593216Y-148131544D01*
X152757188Y-148063624D01*
X152906488Y-148033927D01*
X152931258Y-148029000D01*
X153108742Y-148029000D01*
X153133512Y-148033927D01*
G37*
G36*
X138681000Y-149831000D02*
G01*
X136879000Y-149831000D01*
X136879000Y-148029000D01*
X138681000Y-148029000D01*
X138681000Y-149831000D01*
G37*
G36*
X140433512Y-148033927D02*
G01*
X140582812Y-148063624D01*
X140746784Y-148131544D01*
X140894354Y-148230147D01*
X141019853Y-148355646D01*
X141118456Y-148503216D01*
X141186376Y-148667188D01*
X141221000Y-148841259D01*
X141221000Y-149018741D01*
X141186376Y-149192812D01*
X141118456Y-149356784D01*
X141019853Y-149504354D01*
X140894354Y-149629853D01*
X140746784Y-149728456D01*
X140582812Y-149796376D01*
X140433512Y-149826073D01*
X140408742Y-149831000D01*
X140231258Y-149831000D01*
X140206488Y-149826073D01*
X140057188Y-149796376D01*
X139893216Y-149728456D01*
X139745646Y-149629853D01*
X139620147Y-149504354D01*
X139521544Y-149356784D01*
X139453624Y-149192812D01*
X139419000Y-149018741D01*
X139419000Y-148841259D01*
X139453624Y-148667188D01*
X139521544Y-148503216D01*
X139620147Y-148355646D01*
X139745646Y-148230147D01*
X139893216Y-148131544D01*
X140057188Y-148063624D01*
X140206488Y-148033927D01*
X140231258Y-148029000D01*
X140408742Y-148029000D01*
X140433512Y-148033927D01*
G37*
G36*
X142973512Y-148033927D02*
G01*
X143122812Y-148063624D01*
X143286784Y-148131544D01*
X143434354Y-148230147D01*
X143559853Y-148355646D01*
X143658456Y-148503216D01*
X143726376Y-148667188D01*
X143761000Y-148841259D01*
X143761000Y-149018741D01*
X143726376Y-149192812D01*
X143658456Y-149356784D01*
X143559853Y-149504354D01*
X143434354Y-149629853D01*
X143286784Y-149728456D01*
X143122812Y-149796376D01*
X142973512Y-149826073D01*
X142948742Y-149831000D01*
X142771258Y-149831000D01*
X142746488Y-149826073D01*
X142597188Y-149796376D01*
X142433216Y-149728456D01*
X142285646Y-149629853D01*
X142160147Y-149504354D01*
X142061544Y-149356784D01*
X141993624Y-149192812D01*
X141959000Y-149018741D01*
X141959000Y-148841259D01*
X141993624Y-148667188D01*
X142061544Y-148503216D01*
X142160147Y-148355646D01*
X142285646Y-148230147D01*
X142433216Y-148131544D01*
X142597188Y-148063624D01*
X142746488Y-148033927D01*
X142771258Y-148029000D01*
X142948742Y-148029000D01*
X142973512Y-148033927D01*
G37*
G36*
X148053512Y-148033927D02*
G01*
X148202812Y-148063624D01*
X148366784Y-148131544D01*
X148514354Y-148230147D01*
X148639853Y-148355646D01*
X148738456Y-148503216D01*
X148806376Y-148667188D01*
X148841000Y-148841259D01*
X148841000Y-149018741D01*
X148806376Y-149192812D01*
X148738456Y-149356784D01*
X148639853Y-149504354D01*
X148514354Y-149629853D01*
X148366784Y-149728456D01*
X148202812Y-149796376D01*
X148053512Y-149826073D01*
X148028742Y-149831000D01*
X147851258Y-149831000D01*
X147826488Y-149826073D01*
X147677188Y-149796376D01*
X147513216Y-149728456D01*
X147365646Y-149629853D01*
X147240147Y-149504354D01*
X147141544Y-149356784D01*
X147073624Y-149192812D01*
X147039000Y-149018741D01*
X147039000Y-148841259D01*
X147073624Y-148667188D01*
X147141544Y-148503216D01*
X147240147Y-148355646D01*
X147365646Y-148230147D01*
X147513216Y-148131544D01*
X147677188Y-148063624D01*
X147826488Y-148033927D01*
X147851258Y-148029000D01*
X148028742Y-148029000D01*
X148053512Y-148033927D01*
G37*
G36*
X145513512Y-148033927D02*
G01*
X145662812Y-148063624D01*
X145826784Y-148131544D01*
X145974354Y-148230147D01*
X146099853Y-148355646D01*
X146198456Y-148503216D01*
X146266376Y-148667188D01*
X146301000Y-148841259D01*
X146301000Y-149018741D01*
X146266376Y-149192812D01*
X146198456Y-149356784D01*
X146099853Y-149504354D01*
X145974354Y-149629853D01*
X145826784Y-149728456D01*
X145662812Y-149796376D01*
X145513512Y-149826073D01*
X145488742Y-149831000D01*
X145311258Y-149831000D01*
X145286488Y-149826073D01*
X145137188Y-149796376D01*
X144973216Y-149728456D01*
X144825646Y-149629853D01*
X144700147Y-149504354D01*
X144601544Y-149356784D01*
X144533624Y-149192812D01*
X144499000Y-149018741D01*
X144499000Y-148841259D01*
X144533624Y-148667188D01*
X144601544Y-148503216D01*
X144700147Y-148355646D01*
X144825646Y-148230147D01*
X144973216Y-148131544D01*
X145137188Y-148063624D01*
X145286488Y-148033927D01*
X145311258Y-148029000D01*
X145488742Y-148029000D01*
X145513512Y-148033927D01*
G37*
G36*
X150593512Y-148033927D02*
G01*
X150742812Y-148063624D01*
X150906784Y-148131544D01*
X151054354Y-148230147D01*
X151179853Y-148355646D01*
X151278456Y-148503216D01*
X151346376Y-148667188D01*
X151381000Y-148841259D01*
X151381000Y-149018741D01*
X151346376Y-149192812D01*
X151278456Y-149356784D01*
X151179853Y-149504354D01*
X151054354Y-149629853D01*
X150906784Y-149728456D01*
X150742812Y-149796376D01*
X150593512Y-149826073D01*
X150568742Y-149831000D01*
X150391258Y-149831000D01*
X150366488Y-149826073D01*
X150217188Y-149796376D01*
X150053216Y-149728456D01*
X149905646Y-149629853D01*
X149780147Y-149504354D01*
X149681544Y-149356784D01*
X149613624Y-149192812D01*
X149579000Y-149018741D01*
X149579000Y-148841259D01*
X149613624Y-148667188D01*
X149681544Y-148503216D01*
X149780147Y-148355646D01*
X149905646Y-148230147D01*
X150053216Y-148131544D01*
X150217188Y-148063624D01*
X150366488Y-148033927D01*
X150391258Y-148029000D01*
X150568742Y-148029000D01*
X150593512Y-148033927D01*
G37*
G36*
X125843512Y-141263927D02*
G01*
X125992812Y-141293624D01*
X126156784Y-141361544D01*
X126304354Y-141460147D01*
X126429853Y-141585646D01*
X126528456Y-141733216D01*
X126596376Y-141897188D01*
X126631000Y-142071259D01*
X126631000Y-142248741D01*
X126596376Y-142422812D01*
X126528456Y-142586784D01*
X126429853Y-142734354D01*
X126304354Y-142859853D01*
X126156784Y-142958456D01*
X125992812Y-143026376D01*
X125843512Y-143056073D01*
X125818742Y-143061000D01*
X125641258Y-143061000D01*
X125616488Y-143056073D01*
X125467188Y-143026376D01*
X125303216Y-142958456D01*
X125155646Y-142859853D01*
X125030147Y-142734354D01*
X124931544Y-142586784D01*
X124863624Y-142422812D01*
X124829000Y-142248741D01*
X124829000Y-142071259D01*
X124863624Y-141897188D01*
X124931544Y-141733216D01*
X125030147Y-141585646D01*
X125155646Y-141460147D01*
X125303216Y-141361544D01*
X125467188Y-141293624D01*
X125616488Y-141263927D01*
X125641258Y-141259000D01*
X125818742Y-141259000D01*
X125843512Y-141263927D01*
G37*
G36*
X128383512Y-141263927D02*
G01*
X128532812Y-141293624D01*
X128696784Y-141361544D01*
X128844354Y-141460147D01*
X128969853Y-141585646D01*
X129068456Y-141733216D01*
X129136376Y-141897188D01*
X129171000Y-142071259D01*
X129171000Y-142248741D01*
X129136376Y-142422812D01*
X129068456Y-142586784D01*
X128969853Y-142734354D01*
X128844354Y-142859853D01*
X128696784Y-142958456D01*
X128532812Y-143026376D01*
X128383512Y-143056073D01*
X128358742Y-143061000D01*
X128181258Y-143061000D01*
X128156488Y-143056073D01*
X128007188Y-143026376D01*
X127843216Y-142958456D01*
X127695646Y-142859853D01*
X127570147Y-142734354D01*
X127471544Y-142586784D01*
X127403624Y-142422812D01*
X127369000Y-142248741D01*
X127369000Y-142071259D01*
X127403624Y-141897188D01*
X127471544Y-141733216D01*
X127570147Y-141585646D01*
X127695646Y-141460147D01*
X127843216Y-141361544D01*
X128007188Y-141293624D01*
X128156488Y-141263927D01*
X128181258Y-141259000D01*
X128358742Y-141259000D01*
X128383512Y-141263927D01*
G37*
G36*
X97141512Y-140143927D02*
G01*
X97290812Y-140173624D01*
X97454784Y-140241544D01*
X97602354Y-140340147D01*
X97727853Y-140465646D01*
X97826456Y-140613216D01*
X97894376Y-140777188D01*
X97929000Y-140951259D01*
X97929000Y-141128741D01*
X97894376Y-141302812D01*
X97826456Y-141466784D01*
X97727853Y-141614354D01*
X97602354Y-141739853D01*
X97454784Y-141838456D01*
X97290812Y-141906376D01*
X97141512Y-141936073D01*
X97116742Y-141941000D01*
X96939258Y-141941000D01*
X96914488Y-141936073D01*
X96765188Y-141906376D01*
X96601216Y-141838456D01*
X96453646Y-141739853D01*
X96328147Y-141614354D01*
X96229544Y-141466784D01*
X96161624Y-141302812D01*
X96127000Y-141128741D01*
X96127000Y-140951259D01*
X96161624Y-140777188D01*
X96229544Y-140613216D01*
X96328147Y-140465646D01*
X96453646Y-140340147D01*
X96601216Y-140241544D01*
X96765188Y-140173624D01*
X96914488Y-140143927D01*
X96939258Y-140139000D01*
X97116742Y-140139000D01*
X97141512Y-140143927D01*
G37*
G36*
X125843512Y-138723927D02*
G01*
X125992812Y-138753624D01*
X126156784Y-138821544D01*
X126304354Y-138920147D01*
X126429853Y-139045646D01*
X126528456Y-139193216D01*
X126596376Y-139357188D01*
X126631000Y-139531259D01*
X126631000Y-139708741D01*
X126596376Y-139882812D01*
X126528456Y-140046784D01*
X126429853Y-140194354D01*
X126304354Y-140319853D01*
X126156784Y-140418456D01*
X125992812Y-140486376D01*
X125843512Y-140516073D01*
X125818742Y-140521000D01*
X125641258Y-140521000D01*
X125616488Y-140516073D01*
X125467188Y-140486376D01*
X125303216Y-140418456D01*
X125155646Y-140319853D01*
X125030147Y-140194354D01*
X124931544Y-140046784D01*
X124863624Y-139882812D01*
X124829000Y-139708741D01*
X124829000Y-139531259D01*
X124863624Y-139357188D01*
X124931544Y-139193216D01*
X125030147Y-139045646D01*
X125155646Y-138920147D01*
X125303216Y-138821544D01*
X125467188Y-138753624D01*
X125616488Y-138723927D01*
X125641258Y-138719000D01*
X125818742Y-138719000D01*
X125843512Y-138723927D01*
G37*
G36*
X128383512Y-138723927D02*
G01*
X128532812Y-138753624D01*
X128696784Y-138821544D01*
X128844354Y-138920147D01*
X128969853Y-139045646D01*
X129068456Y-139193216D01*
X129136376Y-139357188D01*
X129171000Y-139531259D01*
X129171000Y-139708741D01*
X129136376Y-139882812D01*
X129068456Y-140046784D01*
X128969853Y-140194354D01*
X128844354Y-140319853D01*
X128696784Y-140418456D01*
X128532812Y-140486376D01*
X128383512Y-140516073D01*
X128358742Y-140521000D01*
X128181258Y-140521000D01*
X128156488Y-140516073D01*
X128007188Y-140486376D01*
X127843216Y-140418456D01*
X127695646Y-140319853D01*
X127570147Y-140194354D01*
X127471544Y-140046784D01*
X127403624Y-139882812D01*
X127369000Y-139708741D01*
X127369000Y-139531259D01*
X127403624Y-139357188D01*
X127471544Y-139193216D01*
X127570147Y-139045646D01*
X127695646Y-138920147D01*
X127843216Y-138821544D01*
X128007188Y-138753624D01*
X128156488Y-138723927D01*
X128181258Y-138719000D01*
X128358742Y-138719000D01*
X128383512Y-138723927D01*
G37*
G36*
X97929000Y-139401000D02*
G01*
X96127000Y-139401000D01*
X96127000Y-137599000D01*
X97929000Y-137599000D01*
X97929000Y-139401000D01*
G37*
G36*
X125843512Y-136183927D02*
G01*
X125992812Y-136213624D01*
X126156784Y-136281544D01*
X126304354Y-136380147D01*
X126429853Y-136505646D01*
X126528456Y-136653216D01*
X126596376Y-136817188D01*
X126631000Y-136991259D01*
X126631000Y-137168741D01*
X126596376Y-137342812D01*
X126528456Y-137506784D01*
X126429853Y-137654354D01*
X126304354Y-137779853D01*
X126156784Y-137878456D01*
X125992812Y-137946376D01*
X125843512Y-137976073D01*
X125818742Y-137981000D01*
X125641258Y-137981000D01*
X125616488Y-137976073D01*
X125467188Y-137946376D01*
X125303216Y-137878456D01*
X125155646Y-137779853D01*
X125030147Y-137654354D01*
X124931544Y-137506784D01*
X124863624Y-137342812D01*
X124829000Y-137168741D01*
X124829000Y-136991259D01*
X124863624Y-136817188D01*
X124931544Y-136653216D01*
X125030147Y-136505646D01*
X125155646Y-136380147D01*
X125303216Y-136281544D01*
X125467188Y-136213624D01*
X125616488Y-136183927D01*
X125641258Y-136179000D01*
X125818742Y-136179000D01*
X125843512Y-136183927D01*
G37*
G36*
X128383512Y-136183927D02*
G01*
X128532812Y-136213624D01*
X128696784Y-136281544D01*
X128844354Y-136380147D01*
X128969853Y-136505646D01*
X129068456Y-136653216D01*
X129136376Y-136817188D01*
X129171000Y-136991259D01*
X129171000Y-137168741D01*
X129136376Y-137342812D01*
X129068456Y-137506784D01*
X128969853Y-137654354D01*
X128844354Y-137779853D01*
X128696784Y-137878456D01*
X128532812Y-137946376D01*
X128383512Y-137976073D01*
X128358742Y-137981000D01*
X128181258Y-137981000D01*
X128156488Y-137976073D01*
X128007188Y-137946376D01*
X127843216Y-137878456D01*
X127695646Y-137779853D01*
X127570147Y-137654354D01*
X127471544Y-137506784D01*
X127403624Y-137342812D01*
X127369000Y-137168741D01*
X127369000Y-136991259D01*
X127403624Y-136817188D01*
X127471544Y-136653216D01*
X127570147Y-136505646D01*
X127695646Y-136380147D01*
X127843216Y-136281544D01*
X128007188Y-136213624D01*
X128156488Y-136183927D01*
X128181258Y-136179000D01*
X128358742Y-136179000D01*
X128383512Y-136183927D01*
G37*
G36*
X128383512Y-133643927D02*
G01*
X128532812Y-133673624D01*
X128696784Y-133741544D01*
X128844354Y-133840147D01*
X128969853Y-133965646D01*
X129068456Y-134113216D01*
X129136376Y-134277188D01*
X129171000Y-134451259D01*
X129171000Y-134628741D01*
X129136376Y-134802812D01*
X129068456Y-134966784D01*
X128969853Y-135114354D01*
X128844354Y-135239853D01*
X128696784Y-135338456D01*
X128532812Y-135406376D01*
X128383512Y-135436073D01*
X128358742Y-135441000D01*
X128181258Y-135441000D01*
X128156488Y-135436073D01*
X128007188Y-135406376D01*
X127843216Y-135338456D01*
X127695646Y-135239853D01*
X127570147Y-135114354D01*
X127471544Y-134966784D01*
X127403624Y-134802812D01*
X127369000Y-134628741D01*
X127369000Y-134451259D01*
X127403624Y-134277188D01*
X127471544Y-134113216D01*
X127570147Y-133965646D01*
X127695646Y-133840147D01*
X127843216Y-133741544D01*
X128007188Y-133673624D01*
X128156488Y-133643927D01*
X128181258Y-133639000D01*
X128358742Y-133639000D01*
X128383512Y-133643927D01*
G37*
G36*
X125843512Y-133643927D02*
G01*
X125992812Y-133673624D01*
X126156784Y-133741544D01*
X126304354Y-133840147D01*
X126429853Y-133965646D01*
X126528456Y-134113216D01*
X126596376Y-134277188D01*
X126631000Y-134451259D01*
X126631000Y-134628741D01*
X126596376Y-134802812D01*
X126528456Y-134966784D01*
X126429853Y-135114354D01*
X126304354Y-135239853D01*
X126156784Y-135338456D01*
X125992812Y-135406376D01*
X125843512Y-135436073D01*
X125818742Y-135441000D01*
X125641258Y-135441000D01*
X125616488Y-135436073D01*
X125467188Y-135406376D01*
X125303216Y-135338456D01*
X125155646Y-135239853D01*
X125030147Y-135114354D01*
X124931544Y-134966784D01*
X124863624Y-134802812D01*
X124829000Y-134628741D01*
X124829000Y-134451259D01*
X124863624Y-134277188D01*
X124931544Y-134113216D01*
X125030147Y-133965646D01*
X125155646Y-133840147D01*
X125303216Y-133741544D01*
X125467188Y-133673624D01*
X125616488Y-133643927D01*
X125641258Y-133639000D01*
X125818742Y-133639000D01*
X125843512Y-133643927D01*
G37*
G36*
X97141512Y-132453927D02*
G01*
X97290812Y-132483624D01*
X97454784Y-132551544D01*
X97602354Y-132650147D01*
X97727853Y-132775646D01*
X97826456Y-132923216D01*
X97894376Y-133087188D01*
X97929000Y-133261259D01*
X97929000Y-133438741D01*
X97894376Y-133612812D01*
X97826456Y-133776784D01*
X97727853Y-133924354D01*
X97602354Y-134049853D01*
X97454784Y-134148456D01*
X97290812Y-134216376D01*
X97141512Y-134246073D01*
X97116742Y-134251000D01*
X96939258Y-134251000D01*
X96914488Y-134246073D01*
X96765188Y-134216376D01*
X96601216Y-134148456D01*
X96453646Y-134049853D01*
X96328147Y-133924354D01*
X96229544Y-133776784D01*
X96161624Y-133612812D01*
X96127000Y-133438741D01*
X96127000Y-133261259D01*
X96161624Y-133087188D01*
X96229544Y-132923216D01*
X96328147Y-132775646D01*
X96453646Y-132650147D01*
X96601216Y-132551544D01*
X96765188Y-132483624D01*
X96914488Y-132453927D01*
X96939258Y-132449000D01*
X97116742Y-132449000D01*
X97141512Y-132453927D01*
G37*
G36*
X128383512Y-131103927D02*
G01*
X128532812Y-131133624D01*
X128696784Y-131201544D01*
X128844354Y-131300147D01*
X128969853Y-131425646D01*
X129068456Y-131573216D01*
X129136376Y-131737188D01*
X129171000Y-131911259D01*
X129171000Y-132088741D01*
X129136376Y-132262812D01*
X129068456Y-132426784D01*
X128969853Y-132574354D01*
X128844354Y-132699853D01*
X128696784Y-132798456D01*
X128532812Y-132866376D01*
X128383512Y-132896073D01*
X128358742Y-132901000D01*
X128181258Y-132901000D01*
X128156488Y-132896073D01*
X128007188Y-132866376D01*
X127843216Y-132798456D01*
X127695646Y-132699853D01*
X127570147Y-132574354D01*
X127471544Y-132426784D01*
X127403624Y-132262812D01*
X127369000Y-132088741D01*
X127369000Y-131911259D01*
X127403624Y-131737188D01*
X127471544Y-131573216D01*
X127570147Y-131425646D01*
X127695646Y-131300147D01*
X127843216Y-131201544D01*
X128007188Y-131133624D01*
X128156488Y-131103927D01*
X128181258Y-131099000D01*
X128358742Y-131099000D01*
X128383512Y-131103927D01*
G37*
G36*
X125843512Y-131103927D02*
G01*
X125992812Y-131133624D01*
X126156784Y-131201544D01*
X126304354Y-131300147D01*
X126429853Y-131425646D01*
X126528456Y-131573216D01*
X126596376Y-131737188D01*
X126631000Y-131911259D01*
X126631000Y-132088741D01*
X126596376Y-132262812D01*
X126528456Y-132426784D01*
X126429853Y-132574354D01*
X126304354Y-132699853D01*
X126156784Y-132798456D01*
X125992812Y-132866376D01*
X125843512Y-132896073D01*
X125818742Y-132901000D01*
X125641258Y-132901000D01*
X125616488Y-132896073D01*
X125467188Y-132866376D01*
X125303216Y-132798456D01*
X125155646Y-132699853D01*
X125030147Y-132574354D01*
X124931544Y-132426784D01*
X124863624Y-132262812D01*
X124829000Y-132088741D01*
X124829000Y-131911259D01*
X124863624Y-131737188D01*
X124931544Y-131573216D01*
X125030147Y-131425646D01*
X125155646Y-131300147D01*
X125303216Y-131201544D01*
X125467188Y-131133624D01*
X125616488Y-131103927D01*
X125641258Y-131099000D01*
X125818742Y-131099000D01*
X125843512Y-131103927D01*
G37*
G36*
X97141512Y-129913927D02*
G01*
X97290812Y-129943624D01*
X97454784Y-130011544D01*
X97602354Y-130110147D01*
X97727853Y-130235646D01*
X97826456Y-130383216D01*
X97894376Y-130547188D01*
X97929000Y-130721259D01*
X97929000Y-130898741D01*
X97894376Y-131072812D01*
X97826456Y-131236784D01*
X97727853Y-131384354D01*
X97602354Y-131509853D01*
X97454784Y-131608456D01*
X97290812Y-131676376D01*
X97141512Y-131706073D01*
X97116742Y-131711000D01*
X96939258Y-131711000D01*
X96914488Y-131706073D01*
X96765188Y-131676376D01*
X96601216Y-131608456D01*
X96453646Y-131509853D01*
X96328147Y-131384354D01*
X96229544Y-131236784D01*
X96161624Y-131072812D01*
X96127000Y-130898741D01*
X96127000Y-130721259D01*
X96161624Y-130547188D01*
X96229544Y-130383216D01*
X96328147Y-130235646D01*
X96453646Y-130110147D01*
X96601216Y-130011544D01*
X96765188Y-129943624D01*
X96914488Y-129913927D01*
X96939258Y-129909000D01*
X97116742Y-129909000D01*
X97141512Y-129913927D01*
G37*
G36*
X128383512Y-128563927D02*
G01*
X128532812Y-128593624D01*
X128696784Y-128661544D01*
X128844354Y-128760147D01*
X128969853Y-128885646D01*
X129068456Y-129033216D01*
X129136376Y-129197188D01*
X129171000Y-129371259D01*
X129171000Y-129548741D01*
X129136376Y-129722812D01*
X129068456Y-129886784D01*
X128969853Y-130034354D01*
X128844354Y-130159853D01*
X128696784Y-130258456D01*
X128532812Y-130326376D01*
X128383512Y-130356073D01*
X128358742Y-130361000D01*
X128181258Y-130361000D01*
X128156488Y-130356073D01*
X128007188Y-130326376D01*
X127843216Y-130258456D01*
X127695646Y-130159853D01*
X127570147Y-130034354D01*
X127471544Y-129886784D01*
X127403624Y-129722812D01*
X127369000Y-129548741D01*
X127369000Y-129371259D01*
X127403624Y-129197188D01*
X127471544Y-129033216D01*
X127570147Y-128885646D01*
X127695646Y-128760147D01*
X127843216Y-128661544D01*
X128007188Y-128593624D01*
X128156488Y-128563927D01*
X128181258Y-128559000D01*
X128358742Y-128559000D01*
X128383512Y-128563927D01*
G37*
G36*
X125843512Y-128563927D02*
G01*
X125992812Y-128593624D01*
X126156784Y-128661544D01*
X126304354Y-128760147D01*
X126429853Y-128885646D01*
X126528456Y-129033216D01*
X126596376Y-129197188D01*
X126631000Y-129371259D01*
X126631000Y-129548741D01*
X126596376Y-129722812D01*
X126528456Y-129886784D01*
X126429853Y-130034354D01*
X126304354Y-130159853D01*
X126156784Y-130258456D01*
X125992812Y-130326376D01*
X125843512Y-130356073D01*
X125818742Y-130361000D01*
X125641258Y-130361000D01*
X125616488Y-130356073D01*
X125467188Y-130326376D01*
X125303216Y-130258456D01*
X125155646Y-130159853D01*
X125030147Y-130034354D01*
X124931544Y-129886784D01*
X124863624Y-129722812D01*
X124829000Y-129548741D01*
X124829000Y-129371259D01*
X124863624Y-129197188D01*
X124931544Y-129033216D01*
X125030147Y-128885646D01*
X125155646Y-128760147D01*
X125303216Y-128661544D01*
X125467188Y-128593624D01*
X125616488Y-128563927D01*
X125641258Y-128559000D01*
X125818742Y-128559000D01*
X125843512Y-128563927D01*
G37*
G36*
X97141512Y-127373927D02*
G01*
X97290812Y-127403624D01*
X97454784Y-127471544D01*
X97602354Y-127570147D01*
X97727853Y-127695646D01*
X97826456Y-127843216D01*
X97894376Y-128007188D01*
X97929000Y-128181259D01*
X97929000Y-128358741D01*
X97894376Y-128532812D01*
X97826456Y-128696784D01*
X97727853Y-128844354D01*
X97602354Y-128969853D01*
X97454784Y-129068456D01*
X97290812Y-129136376D01*
X97141512Y-129166073D01*
X97116742Y-129171000D01*
X96939258Y-129171000D01*
X96914488Y-129166073D01*
X96765188Y-129136376D01*
X96601216Y-129068456D01*
X96453646Y-128969853D01*
X96328147Y-128844354D01*
X96229544Y-128696784D01*
X96161624Y-128532812D01*
X96127000Y-128358741D01*
X96127000Y-128181259D01*
X96161624Y-128007188D01*
X96229544Y-127843216D01*
X96328147Y-127695646D01*
X96453646Y-127570147D01*
X96601216Y-127471544D01*
X96765188Y-127403624D01*
X96914488Y-127373927D01*
X96939258Y-127369000D01*
X97116742Y-127369000D01*
X97141512Y-127373927D01*
G37*
G36*
X128383512Y-126023927D02*
G01*
X128532812Y-126053624D01*
X128696784Y-126121544D01*
X128844354Y-126220147D01*
X128969853Y-126345646D01*
X129068456Y-126493216D01*
X129136376Y-126657188D01*
X129171000Y-126831259D01*
X129171000Y-127008741D01*
X129136376Y-127182812D01*
X129068456Y-127346784D01*
X128969853Y-127494354D01*
X128844354Y-127619853D01*
X128696784Y-127718456D01*
X128532812Y-127786376D01*
X128383512Y-127816073D01*
X128358742Y-127821000D01*
X128181258Y-127821000D01*
X128156488Y-127816073D01*
X128007188Y-127786376D01*
X127843216Y-127718456D01*
X127695646Y-127619853D01*
X127570147Y-127494354D01*
X127471544Y-127346784D01*
X127403624Y-127182812D01*
X127369000Y-127008741D01*
X127369000Y-126831259D01*
X127403624Y-126657188D01*
X127471544Y-126493216D01*
X127570147Y-126345646D01*
X127695646Y-126220147D01*
X127843216Y-126121544D01*
X128007188Y-126053624D01*
X128156488Y-126023927D01*
X128181258Y-126019000D01*
X128358742Y-126019000D01*
X128383512Y-126023927D01*
G37*
G36*
X125843512Y-126023927D02*
G01*
X125992812Y-126053624D01*
X126156784Y-126121544D01*
X126304354Y-126220147D01*
X126429853Y-126345646D01*
X126528456Y-126493216D01*
X126596376Y-126657188D01*
X126631000Y-126831259D01*
X126631000Y-127008741D01*
X126596376Y-127182812D01*
X126528456Y-127346784D01*
X126429853Y-127494354D01*
X126304354Y-127619853D01*
X126156784Y-127718456D01*
X125992812Y-127786376D01*
X125843512Y-127816073D01*
X125818742Y-127821000D01*
X125641258Y-127821000D01*
X125616488Y-127816073D01*
X125467188Y-127786376D01*
X125303216Y-127718456D01*
X125155646Y-127619853D01*
X125030147Y-127494354D01*
X124931544Y-127346784D01*
X124863624Y-127182812D01*
X124829000Y-127008741D01*
X124829000Y-126831259D01*
X124863624Y-126657188D01*
X124931544Y-126493216D01*
X125030147Y-126345646D01*
X125155646Y-126220147D01*
X125303216Y-126121544D01*
X125467188Y-126053624D01*
X125616488Y-126023927D01*
X125641258Y-126019000D01*
X125818742Y-126019000D01*
X125843512Y-126023927D01*
G37*
G36*
X97141512Y-124833927D02*
G01*
X97290812Y-124863624D01*
X97454784Y-124931544D01*
X97602354Y-125030147D01*
X97727853Y-125155646D01*
X97826456Y-125303216D01*
X97894376Y-125467188D01*
X97929000Y-125641259D01*
X97929000Y-125818741D01*
X97894376Y-125992812D01*
X97826456Y-126156784D01*
X97727853Y-126304354D01*
X97602354Y-126429853D01*
X97454784Y-126528456D01*
X97290812Y-126596376D01*
X97141512Y-126626073D01*
X97116742Y-126631000D01*
X96939258Y-126631000D01*
X96914488Y-126626073D01*
X96765188Y-126596376D01*
X96601216Y-126528456D01*
X96453646Y-126429853D01*
X96328147Y-126304354D01*
X96229544Y-126156784D01*
X96161624Y-125992812D01*
X96127000Y-125818741D01*
X96127000Y-125641259D01*
X96161624Y-125467188D01*
X96229544Y-125303216D01*
X96328147Y-125155646D01*
X96453646Y-125030147D01*
X96601216Y-124931544D01*
X96765188Y-124863624D01*
X96914488Y-124833927D01*
X96939258Y-124829000D01*
X97116742Y-124829000D01*
X97141512Y-124833927D01*
G37*
G36*
X125843512Y-123483927D02*
G01*
X125992812Y-123513624D01*
X126156784Y-123581544D01*
X126304354Y-123680147D01*
X126429853Y-123805646D01*
X126528456Y-123953216D01*
X126596376Y-124117188D01*
X126631000Y-124291259D01*
X126631000Y-124468741D01*
X126596376Y-124642812D01*
X126528456Y-124806784D01*
X126429853Y-124954354D01*
X126304354Y-125079853D01*
X126156784Y-125178456D01*
X125992812Y-125246376D01*
X125843512Y-125276073D01*
X125818742Y-125281000D01*
X125641258Y-125281000D01*
X125616488Y-125276073D01*
X125467188Y-125246376D01*
X125303216Y-125178456D01*
X125155646Y-125079853D01*
X125030147Y-124954354D01*
X124931544Y-124806784D01*
X124863624Y-124642812D01*
X124829000Y-124468741D01*
X124829000Y-124291259D01*
X124863624Y-124117188D01*
X124931544Y-123953216D01*
X125030147Y-123805646D01*
X125155646Y-123680147D01*
X125303216Y-123581544D01*
X125467188Y-123513624D01*
X125616488Y-123483927D01*
X125641258Y-123479000D01*
X125818742Y-123479000D01*
X125843512Y-123483927D01*
G37*
G36*
X128383512Y-123483927D02*
G01*
X128532812Y-123513624D01*
X128696784Y-123581544D01*
X128844354Y-123680147D01*
X128969853Y-123805646D01*
X129068456Y-123953216D01*
X129136376Y-124117188D01*
X129171000Y-124291259D01*
X129171000Y-124468741D01*
X129136376Y-124642812D01*
X129068456Y-124806784D01*
X128969853Y-124954354D01*
X128844354Y-125079853D01*
X128696784Y-125178456D01*
X128532812Y-125246376D01*
X128383512Y-125276073D01*
X128358742Y-125281000D01*
X128181258Y-125281000D01*
X128156488Y-125276073D01*
X128007188Y-125246376D01*
X127843216Y-125178456D01*
X127695646Y-125079853D01*
X127570147Y-124954354D01*
X127471544Y-124806784D01*
X127403624Y-124642812D01*
X127369000Y-124468741D01*
X127369000Y-124291259D01*
X127403624Y-124117188D01*
X127471544Y-123953216D01*
X127570147Y-123805646D01*
X127695646Y-123680147D01*
X127843216Y-123581544D01*
X128007188Y-123513624D01*
X128156488Y-123483927D01*
X128181258Y-123479000D01*
X128358742Y-123479000D01*
X128383512Y-123483927D01*
G37*
G36*
X97141512Y-122293927D02*
G01*
X97290812Y-122323624D01*
X97454784Y-122391544D01*
X97602354Y-122490147D01*
X97727853Y-122615646D01*
X97826456Y-122763216D01*
X97894376Y-122927188D01*
X97929000Y-123101259D01*
X97929000Y-123278741D01*
X97894376Y-123452812D01*
X97826456Y-123616784D01*
X97727853Y-123764354D01*
X97602354Y-123889853D01*
X97454784Y-123988456D01*
X97290812Y-124056376D01*
X97141512Y-124086073D01*
X97116742Y-124091000D01*
X96939258Y-124091000D01*
X96914488Y-124086073D01*
X96765188Y-124056376D01*
X96601216Y-123988456D01*
X96453646Y-123889853D01*
X96328147Y-123764354D01*
X96229544Y-123616784D01*
X96161624Y-123452812D01*
X96127000Y-123278741D01*
X96127000Y-123101259D01*
X96161624Y-122927188D01*
X96229544Y-122763216D01*
X96328147Y-122615646D01*
X96453646Y-122490147D01*
X96601216Y-122391544D01*
X96765188Y-122323624D01*
X96914488Y-122293927D01*
X96939258Y-122289000D01*
X97116742Y-122289000D01*
X97141512Y-122293927D01*
G37*
G36*
X128383512Y-120943927D02*
G01*
X128532812Y-120973624D01*
X128696784Y-121041544D01*
X128844354Y-121140147D01*
X128969853Y-121265646D01*
X129068456Y-121413216D01*
X129136376Y-121577188D01*
X129171000Y-121751259D01*
X129171000Y-121928741D01*
X129136376Y-122102812D01*
X129068456Y-122266784D01*
X128969853Y-122414354D01*
X128844354Y-122539853D01*
X128696784Y-122638456D01*
X128532812Y-122706376D01*
X128383512Y-122736073D01*
X128358742Y-122741000D01*
X128181258Y-122741000D01*
X128156488Y-122736073D01*
X128007188Y-122706376D01*
X127843216Y-122638456D01*
X127695646Y-122539853D01*
X127570147Y-122414354D01*
X127471544Y-122266784D01*
X127403624Y-122102812D01*
X127369000Y-121928741D01*
X127369000Y-121751259D01*
X127403624Y-121577188D01*
X127471544Y-121413216D01*
X127570147Y-121265646D01*
X127695646Y-121140147D01*
X127843216Y-121041544D01*
X128007188Y-120973624D01*
X128156488Y-120943927D01*
X128181258Y-120939000D01*
X128358742Y-120939000D01*
X128383512Y-120943927D01*
G37*
G36*
X125843512Y-120943927D02*
G01*
X125992812Y-120973624D01*
X126156784Y-121041544D01*
X126304354Y-121140147D01*
X126429853Y-121265646D01*
X126528456Y-121413216D01*
X126596376Y-121577188D01*
X126631000Y-121751259D01*
X126631000Y-121928741D01*
X126596376Y-122102812D01*
X126528456Y-122266784D01*
X126429853Y-122414354D01*
X126304354Y-122539853D01*
X126156784Y-122638456D01*
X125992812Y-122706376D01*
X125843512Y-122736073D01*
X125818742Y-122741000D01*
X125641258Y-122741000D01*
X125616488Y-122736073D01*
X125467188Y-122706376D01*
X125303216Y-122638456D01*
X125155646Y-122539853D01*
X125030147Y-122414354D01*
X124931544Y-122266784D01*
X124863624Y-122102812D01*
X124829000Y-121928741D01*
X124829000Y-121751259D01*
X124863624Y-121577188D01*
X124931544Y-121413216D01*
X125030147Y-121265646D01*
X125155646Y-121140147D01*
X125303216Y-121041544D01*
X125467188Y-120973624D01*
X125616488Y-120943927D01*
X125641258Y-120939000D01*
X125818742Y-120939000D01*
X125843512Y-120943927D01*
G37*
G36*
X97141512Y-119753927D02*
G01*
X97290812Y-119783624D01*
X97454784Y-119851544D01*
X97602354Y-119950147D01*
X97727853Y-120075646D01*
X97826456Y-120223216D01*
X97894376Y-120387188D01*
X97929000Y-120561259D01*
X97929000Y-120738741D01*
X97894376Y-120912812D01*
X97826456Y-121076784D01*
X97727853Y-121224354D01*
X97602354Y-121349853D01*
X97454784Y-121448456D01*
X97290812Y-121516376D01*
X97141512Y-121546073D01*
X97116742Y-121551000D01*
X96939258Y-121551000D01*
X96914488Y-121546073D01*
X96765188Y-121516376D01*
X96601216Y-121448456D01*
X96453646Y-121349853D01*
X96328147Y-121224354D01*
X96229544Y-121076784D01*
X96161624Y-120912812D01*
X96127000Y-120738741D01*
X96127000Y-120561259D01*
X96161624Y-120387188D01*
X96229544Y-120223216D01*
X96328147Y-120075646D01*
X96453646Y-119950147D01*
X96601216Y-119851544D01*
X96765188Y-119783624D01*
X96914488Y-119753927D01*
X96939258Y-119749000D01*
X97116742Y-119749000D01*
X97141512Y-119753927D01*
G37*
G36*
X146533512Y-118953927D02*
G01*
X146682812Y-118983624D01*
X146846784Y-119051544D01*
X146994354Y-119150147D01*
X147119853Y-119275646D01*
X147218456Y-119423216D01*
X147286376Y-119587188D01*
X147321000Y-119761259D01*
X147321000Y-119938741D01*
X147286376Y-120112812D01*
X147218456Y-120276784D01*
X147119853Y-120424354D01*
X146994354Y-120549853D01*
X146846784Y-120648456D01*
X146682812Y-120716376D01*
X146533512Y-120746073D01*
X146508742Y-120751000D01*
X146331258Y-120751000D01*
X146306488Y-120746073D01*
X146157188Y-120716376D01*
X145993216Y-120648456D01*
X145845646Y-120549853D01*
X145720147Y-120424354D01*
X145621544Y-120276784D01*
X145553624Y-120112812D01*
X145519000Y-119938741D01*
X145519000Y-119761259D01*
X145553624Y-119587188D01*
X145621544Y-119423216D01*
X145720147Y-119275646D01*
X145845646Y-119150147D01*
X145993216Y-119051544D01*
X146157188Y-118983624D01*
X146306488Y-118953927D01*
X146331258Y-118949000D01*
X146508742Y-118949000D01*
X146533512Y-118953927D01*
G37*
G36*
X144781000Y-120751000D02*
G01*
X142979000Y-120751000D01*
X142979000Y-118949000D01*
X144781000Y-118949000D01*
X144781000Y-120751000D01*
G37*
G36*
X128383512Y-118403927D02*
G01*
X128532812Y-118433624D01*
X128696784Y-118501544D01*
X128844354Y-118600147D01*
X128969853Y-118725646D01*
X129068456Y-118873216D01*
X129136376Y-119037188D01*
X129171000Y-119211259D01*
X129171000Y-119388741D01*
X129136376Y-119562812D01*
X129068456Y-119726784D01*
X128969853Y-119874354D01*
X128844354Y-119999853D01*
X128696784Y-120098456D01*
X128532812Y-120166376D01*
X128383512Y-120196073D01*
X128358742Y-120201000D01*
X128181258Y-120201000D01*
X128156488Y-120196073D01*
X128007188Y-120166376D01*
X127843216Y-120098456D01*
X127695646Y-119999853D01*
X127570147Y-119874354D01*
X127471544Y-119726784D01*
X127403624Y-119562812D01*
X127369000Y-119388741D01*
X127369000Y-119211259D01*
X127403624Y-119037188D01*
X127471544Y-118873216D01*
X127570147Y-118725646D01*
X127695646Y-118600147D01*
X127843216Y-118501544D01*
X128007188Y-118433624D01*
X128156488Y-118403927D01*
X128181258Y-118399000D01*
X128358742Y-118399000D01*
X128383512Y-118403927D01*
G37*
G36*
X125843512Y-118403927D02*
G01*
X125992812Y-118433624D01*
X126156784Y-118501544D01*
X126304354Y-118600147D01*
X126429853Y-118725646D01*
X126528456Y-118873216D01*
X126596376Y-119037188D01*
X126631000Y-119211259D01*
X126631000Y-119388741D01*
X126596376Y-119562812D01*
X126528456Y-119726784D01*
X126429853Y-119874354D01*
X126304354Y-119999853D01*
X126156784Y-120098456D01*
X125992812Y-120166376D01*
X125843512Y-120196073D01*
X125818742Y-120201000D01*
X125641258Y-120201000D01*
X125616488Y-120196073D01*
X125467188Y-120166376D01*
X125303216Y-120098456D01*
X125155646Y-119999853D01*
X125030147Y-119874354D01*
X124931544Y-119726784D01*
X124863624Y-119562812D01*
X124829000Y-119388741D01*
X124829000Y-119211259D01*
X124863624Y-119037188D01*
X124931544Y-118873216D01*
X125030147Y-118725646D01*
X125155646Y-118600147D01*
X125303216Y-118501544D01*
X125467188Y-118433624D01*
X125616488Y-118403927D01*
X125641258Y-118399000D01*
X125818742Y-118399000D01*
X125843512Y-118403927D01*
G37*
G36*
X97141512Y-117213927D02*
G01*
X97290812Y-117243624D01*
X97454784Y-117311544D01*
X97602354Y-117410147D01*
X97727853Y-117535646D01*
X97826456Y-117683216D01*
X97894376Y-117847188D01*
X97929000Y-118021259D01*
X97929000Y-118198741D01*
X97894376Y-118372812D01*
X97826456Y-118536784D01*
X97727853Y-118684354D01*
X97602354Y-118809853D01*
X97454784Y-118908456D01*
X97290812Y-118976376D01*
X97141512Y-119006073D01*
X97116742Y-119011000D01*
X96939258Y-119011000D01*
X96914488Y-119006073D01*
X96765188Y-118976376D01*
X96601216Y-118908456D01*
X96453646Y-118809853D01*
X96328147Y-118684354D01*
X96229544Y-118536784D01*
X96161624Y-118372812D01*
X96127000Y-118198741D01*
X96127000Y-118021259D01*
X96161624Y-117847188D01*
X96229544Y-117683216D01*
X96328147Y-117535646D01*
X96453646Y-117410147D01*
X96601216Y-117311544D01*
X96765188Y-117243624D01*
X96914488Y-117213927D01*
X96939258Y-117209000D01*
X97116742Y-117209000D01*
X97141512Y-117213927D01*
G37*
G36*
X128383512Y-115863927D02*
G01*
X128532812Y-115893624D01*
X128696784Y-115961544D01*
X128844354Y-116060147D01*
X128969853Y-116185646D01*
X129068456Y-116333216D01*
X129136376Y-116497188D01*
X129171000Y-116671259D01*
X129171000Y-116848741D01*
X129136376Y-117022812D01*
X129068456Y-117186784D01*
X128969853Y-117334354D01*
X128844354Y-117459853D01*
X128696784Y-117558456D01*
X128532812Y-117626376D01*
X128383512Y-117656073D01*
X128358742Y-117661000D01*
X128181258Y-117661000D01*
X128156488Y-117656073D01*
X128007188Y-117626376D01*
X127843216Y-117558456D01*
X127695646Y-117459853D01*
X127570147Y-117334354D01*
X127471544Y-117186784D01*
X127403624Y-117022812D01*
X127369000Y-116848741D01*
X127369000Y-116671259D01*
X127403624Y-116497188D01*
X127471544Y-116333216D01*
X127570147Y-116185646D01*
X127695646Y-116060147D01*
X127843216Y-115961544D01*
X128007188Y-115893624D01*
X128156488Y-115863927D01*
X128181258Y-115859000D01*
X128358742Y-115859000D01*
X128383512Y-115863927D01*
G37*
G36*
X125843512Y-115863927D02*
G01*
X125992812Y-115893624D01*
X126156784Y-115961544D01*
X126304354Y-116060147D01*
X126429853Y-116185646D01*
X126528456Y-116333216D01*
X126596376Y-116497188D01*
X126631000Y-116671259D01*
X126631000Y-116848741D01*
X126596376Y-117022812D01*
X126528456Y-117186784D01*
X126429853Y-117334354D01*
X126304354Y-117459853D01*
X126156784Y-117558456D01*
X125992812Y-117626376D01*
X125843512Y-117656073D01*
X125818742Y-117661000D01*
X125641258Y-117661000D01*
X125616488Y-117656073D01*
X125467188Y-117626376D01*
X125303216Y-117558456D01*
X125155646Y-117459853D01*
X125030147Y-117334354D01*
X124931544Y-117186784D01*
X124863624Y-117022812D01*
X124829000Y-116848741D01*
X124829000Y-116671259D01*
X124863624Y-116497188D01*
X124931544Y-116333216D01*
X125030147Y-116185646D01*
X125155646Y-116060147D01*
X125303216Y-115961544D01*
X125467188Y-115893624D01*
X125616488Y-115863927D01*
X125641258Y-115859000D01*
X125818742Y-115859000D01*
X125843512Y-115863927D01*
G37*
G36*
X97141512Y-114673927D02*
G01*
X97290812Y-114703624D01*
X97454784Y-114771544D01*
X97602354Y-114870147D01*
X97727853Y-114995646D01*
X97826456Y-115143216D01*
X97894376Y-115307188D01*
X97929000Y-115481259D01*
X97929000Y-115658741D01*
X97894376Y-115832812D01*
X97826456Y-115996784D01*
X97727853Y-116144354D01*
X97602354Y-116269853D01*
X97454784Y-116368456D01*
X97290812Y-116436376D01*
X97141512Y-116466073D01*
X97116742Y-116471000D01*
X96939258Y-116471000D01*
X96914488Y-116466073D01*
X96765188Y-116436376D01*
X96601216Y-116368456D01*
X96453646Y-116269853D01*
X96328147Y-116144354D01*
X96229544Y-115996784D01*
X96161624Y-115832812D01*
X96127000Y-115658741D01*
X96127000Y-115481259D01*
X96161624Y-115307188D01*
X96229544Y-115143216D01*
X96328147Y-114995646D01*
X96453646Y-114870147D01*
X96601216Y-114771544D01*
X96765188Y-114703624D01*
X96914488Y-114673927D01*
X96939258Y-114669000D01*
X97116742Y-114669000D01*
X97141512Y-114673927D01*
G37*
G36*
X128383512Y-113323927D02*
G01*
X128532812Y-113353624D01*
X128696784Y-113421544D01*
X128844354Y-113520147D01*
X128969853Y-113645646D01*
X129068456Y-113793216D01*
X129136376Y-113957188D01*
X129171000Y-114131259D01*
X129171000Y-114308741D01*
X129136376Y-114482812D01*
X129068456Y-114646784D01*
X128969853Y-114794354D01*
X128844354Y-114919853D01*
X128696784Y-115018456D01*
X128532812Y-115086376D01*
X128383512Y-115116073D01*
X128358742Y-115121000D01*
X128181258Y-115121000D01*
X128156488Y-115116073D01*
X128007188Y-115086376D01*
X127843216Y-115018456D01*
X127695646Y-114919853D01*
X127570147Y-114794354D01*
X127471544Y-114646784D01*
X127403624Y-114482812D01*
X127369000Y-114308741D01*
X127369000Y-114131259D01*
X127403624Y-113957188D01*
X127471544Y-113793216D01*
X127570147Y-113645646D01*
X127695646Y-113520147D01*
X127843216Y-113421544D01*
X128007188Y-113353624D01*
X128156488Y-113323927D01*
X128181258Y-113319000D01*
X128358742Y-113319000D01*
X128383512Y-113323927D01*
G37*
G36*
X125843512Y-113323927D02*
G01*
X125992812Y-113353624D01*
X126156784Y-113421544D01*
X126304354Y-113520147D01*
X126429853Y-113645646D01*
X126528456Y-113793216D01*
X126596376Y-113957188D01*
X126631000Y-114131259D01*
X126631000Y-114308741D01*
X126596376Y-114482812D01*
X126528456Y-114646784D01*
X126429853Y-114794354D01*
X126304354Y-114919853D01*
X126156784Y-115018456D01*
X125992812Y-115086376D01*
X125843512Y-115116073D01*
X125818742Y-115121000D01*
X125641258Y-115121000D01*
X125616488Y-115116073D01*
X125467188Y-115086376D01*
X125303216Y-115018456D01*
X125155646Y-114919853D01*
X125030147Y-114794354D01*
X124931544Y-114646784D01*
X124863624Y-114482812D01*
X124829000Y-114308741D01*
X124829000Y-114131259D01*
X124863624Y-113957188D01*
X124931544Y-113793216D01*
X125030147Y-113645646D01*
X125155646Y-113520147D01*
X125303216Y-113421544D01*
X125467188Y-113353624D01*
X125616488Y-113323927D01*
X125641258Y-113319000D01*
X125818742Y-113319000D01*
X125843512Y-113323927D01*
G37*
G36*
X97141512Y-112133927D02*
G01*
X97290812Y-112163624D01*
X97454784Y-112231544D01*
X97602354Y-112330147D01*
X97727853Y-112455646D01*
X97826456Y-112603216D01*
X97894376Y-112767188D01*
X97929000Y-112941259D01*
X97929000Y-113118741D01*
X97894376Y-113292812D01*
X97826456Y-113456784D01*
X97727853Y-113604354D01*
X97602354Y-113729853D01*
X97454784Y-113828456D01*
X97290812Y-113896376D01*
X97141512Y-113926073D01*
X97116742Y-113931000D01*
X96939258Y-113931000D01*
X96914488Y-113926073D01*
X96765188Y-113896376D01*
X96601216Y-113828456D01*
X96453646Y-113729853D01*
X96328147Y-113604354D01*
X96229544Y-113456784D01*
X96161624Y-113292812D01*
X96127000Y-113118741D01*
X96127000Y-112941259D01*
X96161624Y-112767188D01*
X96229544Y-112603216D01*
X96328147Y-112455646D01*
X96453646Y-112330147D01*
X96601216Y-112231544D01*
X96765188Y-112163624D01*
X96914488Y-112133927D01*
X96939258Y-112129000D01*
X97116742Y-112129000D01*
X97141512Y-112133927D01*
G37*
G36*
X125843512Y-110783927D02*
G01*
X125992812Y-110813624D01*
X126156784Y-110881544D01*
X126304354Y-110980147D01*
X126429853Y-111105646D01*
X126528456Y-111253216D01*
X126596376Y-111417188D01*
X126631000Y-111591259D01*
X126631000Y-111768741D01*
X126596376Y-111942812D01*
X126528456Y-112106784D01*
X126429853Y-112254354D01*
X126304354Y-112379853D01*
X126156784Y-112478456D01*
X125992812Y-112546376D01*
X125843512Y-112576073D01*
X125818742Y-112581000D01*
X125641258Y-112581000D01*
X125616488Y-112576073D01*
X125467188Y-112546376D01*
X125303216Y-112478456D01*
X125155646Y-112379853D01*
X125030147Y-112254354D01*
X124931544Y-112106784D01*
X124863624Y-111942812D01*
X124829000Y-111768741D01*
X124829000Y-111591259D01*
X124863624Y-111417188D01*
X124931544Y-111253216D01*
X125030147Y-111105646D01*
X125155646Y-110980147D01*
X125303216Y-110881544D01*
X125467188Y-110813624D01*
X125616488Y-110783927D01*
X125641258Y-110779000D01*
X125818742Y-110779000D01*
X125843512Y-110783927D01*
G37*
G36*
X128383512Y-110783927D02*
G01*
X128532812Y-110813624D01*
X128696784Y-110881544D01*
X128844354Y-110980147D01*
X128969853Y-111105646D01*
X129068456Y-111253216D01*
X129136376Y-111417188D01*
X129171000Y-111591259D01*
X129171000Y-111768741D01*
X129136376Y-111942812D01*
X129068456Y-112106784D01*
X128969853Y-112254354D01*
X128844354Y-112379853D01*
X128696784Y-112478456D01*
X128532812Y-112546376D01*
X128383512Y-112576073D01*
X128358742Y-112581000D01*
X128181258Y-112581000D01*
X128156488Y-112576073D01*
X128007188Y-112546376D01*
X127843216Y-112478456D01*
X127695646Y-112379853D01*
X127570147Y-112254354D01*
X127471544Y-112106784D01*
X127403624Y-111942812D01*
X127369000Y-111768741D01*
X127369000Y-111591259D01*
X127403624Y-111417188D01*
X127471544Y-111253216D01*
X127570147Y-111105646D01*
X127695646Y-110980147D01*
X127843216Y-110881544D01*
X128007188Y-110813624D01*
X128156488Y-110783927D01*
X128181258Y-110779000D01*
X128358742Y-110779000D01*
X128383512Y-110783927D01*
G37*
G36*
X97141512Y-109593927D02*
G01*
X97290812Y-109623624D01*
X97454784Y-109691544D01*
X97602354Y-109790147D01*
X97727853Y-109915646D01*
X97826456Y-110063216D01*
X97894376Y-110227188D01*
X97929000Y-110401259D01*
X97929000Y-110578741D01*
X97894376Y-110752812D01*
X97826456Y-110916784D01*
X97727853Y-111064354D01*
X97602354Y-111189853D01*
X97454784Y-111288456D01*
X97290812Y-111356376D01*
X97141512Y-111386073D01*
X97116742Y-111391000D01*
X96939258Y-111391000D01*
X96914488Y-111386073D01*
X96765188Y-111356376D01*
X96601216Y-111288456D01*
X96453646Y-111189853D01*
X96328147Y-111064354D01*
X96229544Y-110916784D01*
X96161624Y-110752812D01*
X96127000Y-110578741D01*
X96127000Y-110401259D01*
X96161624Y-110227188D01*
X96229544Y-110063216D01*
X96328147Y-109915646D01*
X96453646Y-109790147D01*
X96601216Y-109691544D01*
X96765188Y-109623624D01*
X96914488Y-109593927D01*
X96939258Y-109589000D01*
X97116742Y-109589000D01*
X97141512Y-109593927D01*
G37*
G36*
X125843512Y-108243927D02*
G01*
X125992812Y-108273624D01*
X126156784Y-108341544D01*
X126304354Y-108440147D01*
X126429853Y-108565646D01*
X126528456Y-108713216D01*
X126596376Y-108877188D01*
X126631000Y-109051259D01*
X126631000Y-109228741D01*
X126596376Y-109402812D01*
X126528456Y-109566784D01*
X126429853Y-109714354D01*
X126304354Y-109839853D01*
X126156784Y-109938456D01*
X125992812Y-110006376D01*
X125843512Y-110036073D01*
X125818742Y-110041000D01*
X125641258Y-110041000D01*
X125616488Y-110036073D01*
X125467188Y-110006376D01*
X125303216Y-109938456D01*
X125155646Y-109839853D01*
X125030147Y-109714354D01*
X124931544Y-109566784D01*
X124863624Y-109402812D01*
X124829000Y-109228741D01*
X124829000Y-109051259D01*
X124863624Y-108877188D01*
X124931544Y-108713216D01*
X125030147Y-108565646D01*
X125155646Y-108440147D01*
X125303216Y-108341544D01*
X125467188Y-108273624D01*
X125616488Y-108243927D01*
X125641258Y-108239000D01*
X125818742Y-108239000D01*
X125843512Y-108243927D01*
G37*
G36*
X128383512Y-108243927D02*
G01*
X128532812Y-108273624D01*
X128696784Y-108341544D01*
X128844354Y-108440147D01*
X128969853Y-108565646D01*
X129068456Y-108713216D01*
X129136376Y-108877188D01*
X129171000Y-109051259D01*
X129171000Y-109228741D01*
X129136376Y-109402812D01*
X129068456Y-109566784D01*
X128969853Y-109714354D01*
X128844354Y-109839853D01*
X128696784Y-109938456D01*
X128532812Y-110006376D01*
X128383512Y-110036073D01*
X128358742Y-110041000D01*
X128181258Y-110041000D01*
X128156488Y-110036073D01*
X128007188Y-110006376D01*
X127843216Y-109938456D01*
X127695646Y-109839853D01*
X127570147Y-109714354D01*
X127471544Y-109566784D01*
X127403624Y-109402812D01*
X127369000Y-109228741D01*
X127369000Y-109051259D01*
X127403624Y-108877188D01*
X127471544Y-108713216D01*
X127570147Y-108565646D01*
X127695646Y-108440147D01*
X127843216Y-108341544D01*
X128007188Y-108273624D01*
X128156488Y-108243927D01*
X128181258Y-108239000D01*
X128358742Y-108239000D01*
X128383512Y-108243927D01*
G37*
G36*
X145648228Y-107201703D02*
G01*
X145803100Y-107265853D01*
X145942481Y-107358985D01*
X146061015Y-107477519D01*
X146154147Y-107616900D01*
X146218297Y-107771772D01*
X146251000Y-107936184D01*
X146251000Y-108103816D01*
X146218297Y-108268228D01*
X146154147Y-108423100D01*
X146061015Y-108562481D01*
X145942481Y-108681015D01*
X145803100Y-108774147D01*
X145648228Y-108838297D01*
X145483816Y-108871000D01*
X145316184Y-108871000D01*
X145151772Y-108838297D01*
X144996900Y-108774147D01*
X144857519Y-108681015D01*
X144738985Y-108562481D01*
X144645853Y-108423100D01*
X144581703Y-108268228D01*
X144549000Y-108103816D01*
X144549000Y-107936184D01*
X144581703Y-107771772D01*
X144645853Y-107616900D01*
X144738985Y-107477519D01*
X144857519Y-107358985D01*
X144996900Y-107265853D01*
X145151772Y-107201703D01*
X145316184Y-107169000D01*
X145483816Y-107169000D01*
X145648228Y-107201703D01*
G37*
G36*
X149458228Y-107201703D02*
G01*
X149613100Y-107265853D01*
X149752481Y-107358985D01*
X149871015Y-107477519D01*
X149964147Y-107616900D01*
X150028297Y-107771772D01*
X150061000Y-107936184D01*
X150061000Y-108103816D01*
X150028297Y-108268228D01*
X149964147Y-108423100D01*
X149871015Y-108562481D01*
X149752481Y-108681015D01*
X149613100Y-108774147D01*
X149458228Y-108838297D01*
X149293816Y-108871000D01*
X149126184Y-108871000D01*
X148961772Y-108838297D01*
X148806900Y-108774147D01*
X148667519Y-108681015D01*
X148548985Y-108562481D01*
X148455853Y-108423100D01*
X148391703Y-108268228D01*
X148359000Y-108103816D01*
X148359000Y-107936184D01*
X148391703Y-107771772D01*
X148455853Y-107616900D01*
X148548985Y-107477519D01*
X148667519Y-107358985D01*
X148806900Y-107265853D01*
X148961772Y-107201703D01*
X149126184Y-107169000D01*
X149293816Y-107169000D01*
X149458228Y-107201703D01*
G37*
G36*
X97929000Y-108851000D02*
G01*
X96127000Y-108851000D01*
X96127000Y-107049000D01*
X97929000Y-107049000D01*
X97929000Y-108851000D01*
G37*
G36*
X128383512Y-105703927D02*
G01*
X128532812Y-105733624D01*
X128696784Y-105801544D01*
X128844354Y-105900147D01*
X128969853Y-106025646D01*
X129068456Y-106173216D01*
X129136376Y-106337188D01*
X129171000Y-106511259D01*
X129171000Y-106688741D01*
X129136376Y-106862812D01*
X129068456Y-107026784D01*
X128969853Y-107174354D01*
X128844354Y-107299853D01*
X128696784Y-107398456D01*
X128532812Y-107466376D01*
X128383512Y-107496073D01*
X128358742Y-107501000D01*
X128181258Y-107501000D01*
X128156488Y-107496073D01*
X128007188Y-107466376D01*
X127843216Y-107398456D01*
X127695646Y-107299853D01*
X127570147Y-107174354D01*
X127471544Y-107026784D01*
X127403624Y-106862812D01*
X127369000Y-106688741D01*
X127369000Y-106511259D01*
X127403624Y-106337188D01*
X127471544Y-106173216D01*
X127570147Y-106025646D01*
X127695646Y-105900147D01*
X127843216Y-105801544D01*
X128007188Y-105733624D01*
X128156488Y-105703927D01*
X128181258Y-105699000D01*
X128358742Y-105699000D01*
X128383512Y-105703927D01*
G37*
G36*
X156753512Y-105703927D02*
G01*
X156902812Y-105733624D01*
X157066784Y-105801544D01*
X157214354Y-105900147D01*
X157339853Y-106025646D01*
X157438456Y-106173216D01*
X157506376Y-106337188D01*
X157541000Y-106511259D01*
X157541000Y-106688741D01*
X157506376Y-106862812D01*
X157438456Y-107026784D01*
X157339853Y-107174354D01*
X157214354Y-107299853D01*
X157066784Y-107398456D01*
X156902812Y-107466376D01*
X156753512Y-107496073D01*
X156728742Y-107501000D01*
X156551258Y-107501000D01*
X156526488Y-107496073D01*
X156377188Y-107466376D01*
X156213216Y-107398456D01*
X156065646Y-107299853D01*
X155940147Y-107174354D01*
X155841544Y-107026784D01*
X155773624Y-106862812D01*
X155739000Y-106688741D01*
X155739000Y-106511259D01*
X155773624Y-106337188D01*
X155841544Y-106173216D01*
X155940147Y-106025646D01*
X156065646Y-105900147D01*
X156213216Y-105801544D01*
X156377188Y-105733624D01*
X156526488Y-105703927D01*
X156551258Y-105699000D01*
X156728742Y-105699000D01*
X156753512Y-105703927D01*
G37*
G36*
X125843512Y-105703927D02*
G01*
X125992812Y-105733624D01*
X126156784Y-105801544D01*
X126304354Y-105900147D01*
X126429853Y-106025646D01*
X126528456Y-106173216D01*
X126596376Y-106337188D01*
X126631000Y-106511259D01*
X126631000Y-106688741D01*
X126596376Y-106862812D01*
X126528456Y-107026784D01*
X126429853Y-107174354D01*
X126304354Y-107299853D01*
X126156784Y-107398456D01*
X125992812Y-107466376D01*
X125843512Y-107496073D01*
X125818742Y-107501000D01*
X125641258Y-107501000D01*
X125616488Y-107496073D01*
X125467188Y-107466376D01*
X125303216Y-107398456D01*
X125155646Y-107299853D01*
X125030147Y-107174354D01*
X124931544Y-107026784D01*
X124863624Y-106862812D01*
X124829000Y-106688741D01*
X124829000Y-106511259D01*
X124863624Y-106337188D01*
X124931544Y-106173216D01*
X125030147Y-106025646D01*
X125155646Y-105900147D01*
X125303216Y-105801544D01*
X125467188Y-105733624D01*
X125616488Y-105703927D01*
X125641258Y-105699000D01*
X125818742Y-105699000D01*
X125843512Y-105703927D01*
G37*
G36*
X135881000Y-107341000D02*
G01*
X133329000Y-107341000D01*
X133329000Y-104889000D01*
X135881000Y-104889000D01*
X135881000Y-107341000D01*
G37*
G36*
X142231000Y-107341000D02*
G01*
X139679000Y-107341000D01*
X139679000Y-104889000D01*
X142231000Y-104889000D01*
X142231000Y-107341000D01*
G37*
G36*
X157541000Y-104961000D02*
G01*
X155739000Y-104961000D01*
X155739000Y-103159000D01*
X157541000Y-103159000D01*
X157541000Y-104961000D01*
G37*
G36*
X125843512Y-103163927D02*
G01*
X125992812Y-103193624D01*
X126156784Y-103261544D01*
X126304354Y-103360147D01*
X126429853Y-103485646D01*
X126528456Y-103633216D01*
X126596376Y-103797188D01*
X126631000Y-103971259D01*
X126631000Y-104148741D01*
X126596376Y-104322812D01*
X126528456Y-104486784D01*
X126429853Y-104634354D01*
X126304354Y-104759853D01*
X126156784Y-104858456D01*
X125992812Y-104926376D01*
X125843512Y-104956073D01*
X125818742Y-104961000D01*
X125641258Y-104961000D01*
X125616488Y-104956073D01*
X125467188Y-104926376D01*
X125303216Y-104858456D01*
X125155646Y-104759853D01*
X125030147Y-104634354D01*
X124931544Y-104486784D01*
X124863624Y-104322812D01*
X124829000Y-104148741D01*
X124829000Y-103971259D01*
X124863624Y-103797188D01*
X124931544Y-103633216D01*
X125030147Y-103485646D01*
X125155646Y-103360147D01*
X125303216Y-103261544D01*
X125467188Y-103193624D01*
X125616488Y-103163927D01*
X125641258Y-103159000D01*
X125818742Y-103159000D01*
X125843512Y-103163927D01*
G37*
G36*
X128383512Y-103163927D02*
G01*
X128532812Y-103193624D01*
X128696784Y-103261544D01*
X128844354Y-103360147D01*
X128969853Y-103485646D01*
X129068456Y-103633216D01*
X129136376Y-103797188D01*
X129171000Y-103971259D01*
X129171000Y-104148741D01*
X129136376Y-104322812D01*
X129068456Y-104486784D01*
X128969853Y-104634354D01*
X128844354Y-104759853D01*
X128696784Y-104858456D01*
X128532812Y-104926376D01*
X128383512Y-104956073D01*
X128358742Y-104961000D01*
X128181258Y-104961000D01*
X128156488Y-104956073D01*
X128007188Y-104926376D01*
X127843216Y-104858456D01*
X127695646Y-104759853D01*
X127570147Y-104634354D01*
X127471544Y-104486784D01*
X127403624Y-104322812D01*
X127369000Y-104148741D01*
X127369000Y-103971259D01*
X127403624Y-103797188D01*
X127471544Y-103633216D01*
X127570147Y-103485646D01*
X127695646Y-103360147D01*
X127843216Y-103261544D01*
X128007188Y-103193624D01*
X128156488Y-103163927D01*
X128181258Y-103159000D01*
X128358742Y-103159000D01*
X128383512Y-103163927D01*
G37*
G36*
X99158512Y-102043927D02*
G01*
X99307812Y-102073624D01*
X99471784Y-102141544D01*
X99619354Y-102240147D01*
X99744853Y-102365646D01*
X99843456Y-102513216D01*
X99911376Y-102677188D01*
X99946000Y-102851259D01*
X99946000Y-103028741D01*
X99911376Y-103202812D01*
X99843456Y-103366784D01*
X99744853Y-103514354D01*
X99619354Y-103639853D01*
X99471784Y-103738456D01*
X99307812Y-103806376D01*
X99158512Y-103836073D01*
X99133742Y-103841000D01*
X98956258Y-103841000D01*
X98931488Y-103836073D01*
X98782188Y-103806376D01*
X98618216Y-103738456D01*
X98470646Y-103639853D01*
X98345147Y-103514354D01*
X98246544Y-103366784D01*
X98178624Y-103202812D01*
X98144000Y-103028741D01*
X98144000Y-102851259D01*
X98178624Y-102677188D01*
X98246544Y-102513216D01*
X98345147Y-102365646D01*
X98470646Y-102240147D01*
X98618216Y-102141544D01*
X98782188Y-102073624D01*
X98931488Y-102043927D01*
X98956258Y-102039000D01*
X99133742Y-102039000D01*
X99158512Y-102043927D01*
G37*
G36*
X97406000Y-103841000D02*
G01*
X95604000Y-103841000D01*
X95604000Y-102039000D01*
X97406000Y-102039000D01*
X97406000Y-103841000D01*
G37*
G36*
X125843512Y-100623927D02*
G01*
X125992812Y-100653624D01*
X126156784Y-100721544D01*
X126304354Y-100820147D01*
X126429853Y-100945646D01*
X126528456Y-101093216D01*
X126596376Y-101257188D01*
X126631000Y-101431259D01*
X126631000Y-101608741D01*
X126596376Y-101782812D01*
X126528456Y-101946784D01*
X126429853Y-102094354D01*
X126304354Y-102219853D01*
X126156784Y-102318456D01*
X125992812Y-102386376D01*
X125843512Y-102416073D01*
X125818742Y-102421000D01*
X125641258Y-102421000D01*
X125616488Y-102416073D01*
X125467188Y-102386376D01*
X125303216Y-102318456D01*
X125155646Y-102219853D01*
X125030147Y-102094354D01*
X124931544Y-101946784D01*
X124863624Y-101782812D01*
X124829000Y-101608741D01*
X124829000Y-101431259D01*
X124863624Y-101257188D01*
X124931544Y-101093216D01*
X125030147Y-100945646D01*
X125155646Y-100820147D01*
X125303216Y-100721544D01*
X125467188Y-100653624D01*
X125616488Y-100623927D01*
X125641258Y-100619000D01*
X125818742Y-100619000D01*
X125843512Y-100623927D01*
G37*
G36*
X128383512Y-100623927D02*
G01*
X128532812Y-100653624D01*
X128696784Y-100721544D01*
X128844354Y-100820147D01*
X128969853Y-100945646D01*
X129068456Y-101093216D01*
X129136376Y-101257188D01*
X129171000Y-101431259D01*
X129171000Y-101608741D01*
X129136376Y-101782812D01*
X129068456Y-101946784D01*
X128969853Y-102094354D01*
X128844354Y-102219853D01*
X128696784Y-102318456D01*
X128532812Y-102386376D01*
X128383512Y-102416073D01*
X128358742Y-102421000D01*
X128181258Y-102421000D01*
X128156488Y-102416073D01*
X128007188Y-102386376D01*
X127843216Y-102318456D01*
X127695646Y-102219853D01*
X127570147Y-102094354D01*
X127471544Y-101946784D01*
X127403624Y-101782812D01*
X127369000Y-101608741D01*
X127369000Y-101431259D01*
X127403624Y-101257188D01*
X127471544Y-101093216D01*
X127570147Y-100945646D01*
X127695646Y-100820147D01*
X127843216Y-100721544D01*
X128007188Y-100653624D01*
X128156488Y-100623927D01*
X128181258Y-100619000D01*
X128358742Y-100619000D01*
X128383512Y-100623927D01*
G37*
G36*
X135881000Y-101141000D02*
G01*
X133329000Y-101141000D01*
X133329000Y-98689000D01*
X135881000Y-98689000D01*
X135881000Y-101141000D01*
G37*
G36*
X142231000Y-101141000D02*
G01*
X139679000Y-101141000D01*
X139679000Y-98689000D01*
X142231000Y-98689000D01*
X142231000Y-101141000D01*
G37*
G36*
X99158512Y-98233927D02*
G01*
X99307812Y-98263624D01*
X99471784Y-98331544D01*
X99619354Y-98430147D01*
X99744853Y-98555646D01*
X99843456Y-98703216D01*
X99911376Y-98867188D01*
X99941073Y-99016488D01*
X99945949Y-99041000D01*
X99946000Y-99041259D01*
X99946000Y-99218741D01*
X99911376Y-99392812D01*
X99843456Y-99556784D01*
X99744853Y-99704354D01*
X99619354Y-99829853D01*
X99471784Y-99928456D01*
X99307812Y-99996376D01*
X99158512Y-100026073D01*
X99133742Y-100031000D01*
X98956258Y-100031000D01*
X98931488Y-100026073D01*
X98782188Y-99996376D01*
X98618216Y-99928456D01*
X98470646Y-99829853D01*
X98345147Y-99704354D01*
X98246544Y-99556784D01*
X98178624Y-99392812D01*
X98144000Y-99218741D01*
X98144000Y-99041259D01*
X98144052Y-99041000D01*
X98148927Y-99016488D01*
X98178624Y-98867188D01*
X98246544Y-98703216D01*
X98345147Y-98555646D01*
X98470646Y-98430147D01*
X98618216Y-98331544D01*
X98782188Y-98263624D01*
X98931488Y-98233927D01*
X98956258Y-98229000D01*
X99133742Y-98229000D01*
X99158512Y-98233927D01*
G37*
G36*
X97406000Y-100031000D02*
G01*
X95604000Y-100031000D01*
X95604000Y-98229000D01*
X97406000Y-98229000D01*
X97406000Y-100031000D01*
G37*
G36*
X128383512Y-98083927D02*
G01*
X128532812Y-98113624D01*
X128696784Y-98181544D01*
X128844354Y-98280147D01*
X128969853Y-98405646D01*
X129068456Y-98553216D01*
X129136376Y-98717188D01*
X129171000Y-98891259D01*
X129171000Y-99068741D01*
X129136376Y-99242812D01*
X129068456Y-99406784D01*
X128969853Y-99554354D01*
X128844354Y-99679853D01*
X128696784Y-99778456D01*
X128532812Y-99846376D01*
X128383512Y-99876073D01*
X128358742Y-99881000D01*
X128181258Y-99881000D01*
X128156488Y-99876073D01*
X128007188Y-99846376D01*
X127843216Y-99778456D01*
X127695646Y-99679853D01*
X127570147Y-99554354D01*
X127471544Y-99406784D01*
X127403624Y-99242812D01*
X127369000Y-99068741D01*
X127369000Y-98891259D01*
X127403624Y-98717188D01*
X127471544Y-98553216D01*
X127570147Y-98405646D01*
X127695646Y-98280147D01*
X127843216Y-98181544D01*
X128007188Y-98113624D01*
X128156488Y-98083927D01*
X128181258Y-98079000D01*
X128358742Y-98079000D01*
X128383512Y-98083927D01*
G37*
G36*
X125843512Y-98083927D02*
G01*
X125992812Y-98113624D01*
X126156784Y-98181544D01*
X126304354Y-98280147D01*
X126429853Y-98405646D01*
X126528456Y-98553216D01*
X126596376Y-98717188D01*
X126631000Y-98891259D01*
X126631000Y-99068741D01*
X126596376Y-99242812D01*
X126528456Y-99406784D01*
X126429853Y-99554354D01*
X126304354Y-99679853D01*
X126156784Y-99778456D01*
X125992812Y-99846376D01*
X125843512Y-99876073D01*
X125818742Y-99881000D01*
X125641258Y-99881000D01*
X125616488Y-99876073D01*
X125467188Y-99846376D01*
X125303216Y-99778456D01*
X125155646Y-99679853D01*
X125030147Y-99554354D01*
X124931544Y-99406784D01*
X124863624Y-99242812D01*
X124829000Y-99068741D01*
X124829000Y-98891259D01*
X124863624Y-98717188D01*
X124931544Y-98553216D01*
X125030147Y-98405646D01*
X125155646Y-98280147D01*
X125303216Y-98181544D01*
X125467188Y-98113624D01*
X125616488Y-98083927D01*
X125641258Y-98079000D01*
X125818742Y-98079000D01*
X125843512Y-98083927D01*
G37*
G36*
X156753512Y-97243927D02*
G01*
X156902812Y-97273624D01*
X157066784Y-97341544D01*
X157214354Y-97440147D01*
X157339853Y-97565646D01*
X157438456Y-97713216D01*
X157506376Y-97877188D01*
X157536073Y-98026488D01*
X157541000Y-98051258D01*
X157541000Y-98228742D01*
X157536073Y-98253512D01*
X157506376Y-98402812D01*
X157438456Y-98566784D01*
X157339853Y-98714354D01*
X157214354Y-98839853D01*
X157066784Y-98938456D01*
X156902812Y-99006376D01*
X156753512Y-99036073D01*
X156728742Y-99041000D01*
X156551258Y-99041000D01*
X156526488Y-99036073D01*
X156377188Y-99006376D01*
X156213216Y-98938456D01*
X156065646Y-98839853D01*
X155940147Y-98714354D01*
X155841544Y-98566784D01*
X155773624Y-98402812D01*
X155743927Y-98253512D01*
X155739000Y-98228742D01*
X155739000Y-98051258D01*
X155743927Y-98026488D01*
X155773624Y-97877188D01*
X155841544Y-97713216D01*
X155940147Y-97565646D01*
X156065646Y-97440147D01*
X156213216Y-97341544D01*
X156377188Y-97273624D01*
X156526488Y-97243927D01*
X156551258Y-97239000D01*
X156728742Y-97239000D01*
X156753512Y-97243927D01*
G37*
G36*
X149458228Y-97041703D02*
G01*
X149613100Y-97105853D01*
X149752481Y-97198985D01*
X149871015Y-97317519D01*
X149964147Y-97456900D01*
X150028297Y-97611772D01*
X150061000Y-97776184D01*
X150061000Y-97943816D01*
X150028297Y-98108228D01*
X149964147Y-98263100D01*
X149871015Y-98402481D01*
X149752481Y-98521015D01*
X149613100Y-98614147D01*
X149458228Y-98678297D01*
X149293816Y-98711000D01*
X149126184Y-98711000D01*
X148961772Y-98678297D01*
X148806900Y-98614147D01*
X148667519Y-98521015D01*
X148548985Y-98402481D01*
X148455853Y-98263100D01*
X148391703Y-98108228D01*
X148359000Y-97943816D01*
X148359000Y-97776184D01*
X148391703Y-97611772D01*
X148455853Y-97456900D01*
X148548985Y-97317519D01*
X148667519Y-97198985D01*
X148806900Y-97105853D01*
X148961772Y-97041703D01*
X149126184Y-97009000D01*
X149293816Y-97009000D01*
X149458228Y-97041703D01*
G37*
G36*
X145648228Y-97041703D02*
G01*
X145803100Y-97105853D01*
X145942481Y-97198985D01*
X146061015Y-97317519D01*
X146154147Y-97456900D01*
X146218297Y-97611772D01*
X146251000Y-97776184D01*
X146251000Y-97943816D01*
X146218297Y-98108228D01*
X146154147Y-98263100D01*
X146061015Y-98402481D01*
X145942481Y-98521015D01*
X145803100Y-98614147D01*
X145648228Y-98678297D01*
X145483816Y-98711000D01*
X145316184Y-98711000D01*
X145151772Y-98678297D01*
X144996900Y-98614147D01*
X144857519Y-98521015D01*
X144738985Y-98402481D01*
X144645853Y-98263100D01*
X144581703Y-98108228D01*
X144549000Y-97943816D01*
X144549000Y-97776184D01*
X144581703Y-97611772D01*
X144645853Y-97456900D01*
X144738985Y-97317519D01*
X144857519Y-97198985D01*
X144996900Y-97105853D01*
X145151772Y-97041703D01*
X145316184Y-97009000D01*
X145483816Y-97009000D01*
X145648228Y-97041703D01*
G37*
G36*
X125843512Y-95543927D02*
G01*
X125992812Y-95573624D01*
X126156784Y-95641544D01*
X126304354Y-95740147D01*
X126429853Y-95865646D01*
X126528456Y-96013216D01*
X126596376Y-96177188D01*
X126631000Y-96351259D01*
X126631000Y-96528741D01*
X126596376Y-96702812D01*
X126528456Y-96866784D01*
X126429853Y-97014354D01*
X126304354Y-97139853D01*
X126156784Y-97238456D01*
X125992812Y-97306376D01*
X125843512Y-97336073D01*
X125818742Y-97341000D01*
X125641258Y-97341000D01*
X125616488Y-97336073D01*
X125467188Y-97306376D01*
X125303216Y-97238456D01*
X125155646Y-97139853D01*
X125030147Y-97014354D01*
X124931544Y-96866784D01*
X124863624Y-96702812D01*
X124829000Y-96528741D01*
X124829000Y-96351259D01*
X124863624Y-96177188D01*
X124931544Y-96013216D01*
X125030147Y-95865646D01*
X125155646Y-95740147D01*
X125303216Y-95641544D01*
X125467188Y-95573624D01*
X125616488Y-95543927D01*
X125641258Y-95539000D01*
X125818742Y-95539000D01*
X125843512Y-95543927D01*
G37*
G36*
X128383512Y-95543927D02*
G01*
X128532812Y-95573624D01*
X128696784Y-95641544D01*
X128844354Y-95740147D01*
X128969853Y-95865646D01*
X129068456Y-96013216D01*
X129136376Y-96177188D01*
X129171000Y-96351259D01*
X129171000Y-96528741D01*
X129136376Y-96702812D01*
X129068456Y-96866784D01*
X128969853Y-97014354D01*
X128844354Y-97139853D01*
X128696784Y-97238456D01*
X128532812Y-97306376D01*
X128383512Y-97336073D01*
X128358742Y-97341000D01*
X128181258Y-97341000D01*
X128156488Y-97336073D01*
X128007188Y-97306376D01*
X127843216Y-97238456D01*
X127695646Y-97139853D01*
X127570147Y-97014354D01*
X127471544Y-96866784D01*
X127403624Y-96702812D01*
X127369000Y-96528741D01*
X127369000Y-96351259D01*
X127403624Y-96177188D01*
X127471544Y-96013216D01*
X127570147Y-95865646D01*
X127695646Y-95740147D01*
X127843216Y-95641544D01*
X128007188Y-95573624D01*
X128156488Y-95543927D01*
X128181258Y-95539000D01*
X128358742Y-95539000D01*
X128383512Y-95543927D01*
G37*
G36*
X157541000Y-96501000D02*
G01*
X155739000Y-96501000D01*
X155739000Y-94699000D01*
X157541000Y-94699000D01*
X157541000Y-96501000D01*
G37*
G36*
X97406000Y-96221000D02*
G01*
X95604000Y-96221000D01*
X95604000Y-94419000D01*
X97406000Y-94419000D01*
X97406000Y-96221000D01*
G37*
G36*
X99158512Y-94423927D02*
G01*
X99307812Y-94453624D01*
X99471784Y-94521544D01*
X99619354Y-94620147D01*
X99744853Y-94745646D01*
X99843456Y-94893216D01*
X99911376Y-95057188D01*
X99946000Y-95231259D01*
X99946000Y-95408741D01*
X99911376Y-95582812D01*
X99843456Y-95746784D01*
X99744853Y-95894354D01*
X99619354Y-96019853D01*
X99471784Y-96118456D01*
X99307812Y-96186376D01*
X99158512Y-96216073D01*
X99133742Y-96221000D01*
X98956258Y-96221000D01*
X98931488Y-96216073D01*
X98782188Y-96186376D01*
X98618216Y-96118456D01*
X98470646Y-96019853D01*
X98345147Y-95894354D01*
X98246544Y-95746784D01*
X98178624Y-95582812D01*
X98144000Y-95408741D01*
X98144000Y-95231259D01*
X98178624Y-95057188D01*
X98246544Y-94893216D01*
X98345147Y-94745646D01*
X98470646Y-94620147D01*
X98618216Y-94521544D01*
X98782188Y-94453624D01*
X98931488Y-94423927D01*
X98956258Y-94419000D01*
X99133742Y-94419000D01*
X99158512Y-94423927D01*
G37*
G36*
X137035331Y-92318211D02*
G01*
X137363092Y-92453974D01*
X137658070Y-92651072D01*
X137908928Y-92901930D01*
X138106026Y-93196908D01*
X138241789Y-93524669D01*
X138311000Y-93872616D01*
X138311000Y-94227384D01*
X138241789Y-94575331D01*
X138106026Y-94903092D01*
X137908928Y-95198070D01*
X137658070Y-95448928D01*
X137363092Y-95646026D01*
X137035331Y-95781789D01*
X136687384Y-95851000D01*
X136332616Y-95851000D01*
X135984669Y-95781789D01*
X135656908Y-95646026D01*
X135361930Y-95448928D01*
X135111072Y-95198070D01*
X134913974Y-94903092D01*
X134778211Y-94575331D01*
X134709000Y-94227384D01*
X134709000Y-93872616D01*
X134778211Y-93524669D01*
X134913974Y-93196908D01*
X135111072Y-92901930D01*
X135361930Y-92651072D01*
X135656908Y-92453974D01*
X135984669Y-92318211D01*
X136332616Y-92249000D01*
X136687384Y-92249000D01*
X137035331Y-92318211D01*
G37*
G36*
X126631000Y-94801000D02*
G01*
X124829000Y-94801000D01*
X124829000Y-92999000D01*
X126631000Y-92999000D01*
X126631000Y-94801000D01*
G37*
G36*
X128383512Y-93003927D02*
G01*
X128532812Y-93033624D01*
X128696784Y-93101544D01*
X128844354Y-93200147D01*
X128969853Y-93325646D01*
X129068456Y-93473216D01*
X129136376Y-93637188D01*
X129171000Y-93811259D01*
X129171000Y-93988741D01*
X129136376Y-94162812D01*
X129068456Y-94326784D01*
X128969853Y-94474354D01*
X128844354Y-94599853D01*
X128696784Y-94698456D01*
X128532812Y-94766376D01*
X128383512Y-94796073D01*
X128358742Y-94801000D01*
X128181258Y-94801000D01*
X128156488Y-94796073D01*
X128007188Y-94766376D01*
X127843216Y-94698456D01*
X127695646Y-94599853D01*
X127570147Y-94474354D01*
X127471544Y-94326784D01*
X127403624Y-94162812D01*
X127369000Y-93988741D01*
X127369000Y-93811259D01*
X127403624Y-93637188D01*
X127471544Y-93473216D01*
X127570147Y-93325646D01*
X127695646Y-93200147D01*
X127843216Y-93101544D01*
X128007188Y-93033624D01*
X128156488Y-93003927D01*
X128181258Y-92999000D01*
X128358742Y-92999000D01*
X128383512Y-93003927D01*
G37*
G36*
X97406000Y-92411000D02*
G01*
X95604000Y-92411000D01*
X95604000Y-90609000D01*
X97406000Y-90609000D01*
X97406000Y-92411000D01*
G37*
G36*
X99158512Y-90613927D02*
G01*
X99307812Y-90643624D01*
X99471784Y-90711544D01*
X99619354Y-90810147D01*
X99744853Y-90935646D01*
X99843456Y-91083216D01*
X99911376Y-91247188D01*
X99946000Y-91421259D01*
X99946000Y-91598741D01*
X99911376Y-91772812D01*
X99843456Y-91936784D01*
X99744853Y-92084354D01*
X99619354Y-92209853D01*
X99471784Y-92308456D01*
X99307812Y-92376376D01*
X99158512Y-92406073D01*
X99133742Y-92411000D01*
X98956258Y-92411000D01*
X98931488Y-92406073D01*
X98782188Y-92376376D01*
X98618216Y-92308456D01*
X98470646Y-92209853D01*
X98345147Y-92084354D01*
X98246544Y-91936784D01*
X98178624Y-91772812D01*
X98144000Y-91598741D01*
X98144000Y-91421259D01*
X98178624Y-91247188D01*
X98246544Y-91083216D01*
X98345147Y-90935646D01*
X98470646Y-90810147D01*
X98618216Y-90711544D01*
X98782188Y-90643624D01*
X98931488Y-90613927D01*
X98956258Y-90609000D01*
X99133742Y-90609000D01*
X99158512Y-90613927D01*
G37*
G36*
X97725331Y-85868211D02*
G01*
X98053092Y-86003974D01*
X98348070Y-86201072D01*
X98598928Y-86451930D01*
X98796026Y-86746908D01*
X98931789Y-87074669D01*
X99001000Y-87422616D01*
X99001000Y-87777384D01*
X98931789Y-88125331D01*
X98796026Y-88453092D01*
X98598928Y-88748070D01*
X98348070Y-88998928D01*
X98053092Y-89196026D01*
X97725331Y-89331789D01*
X97377384Y-89401000D01*
X97022616Y-89401000D01*
X96674669Y-89331789D01*
X96346908Y-89196026D01*
X96051930Y-88998928D01*
X95801072Y-88748070D01*
X95603974Y-88453092D01*
X95468211Y-88125331D01*
X95399000Y-87777384D01*
X95399000Y-87422616D01*
X95468211Y-87074669D01*
X95603974Y-86746908D01*
X95801072Y-86451930D01*
X96051930Y-86201072D01*
X96346908Y-86003974D01*
X96674669Y-85868211D01*
X97022616Y-85799000D01*
X97377384Y-85799000D01*
X97725331Y-85868211D01*
G37*
G36*
X140433512Y-86733927D02*
G01*
X140582812Y-86763624D01*
X140746784Y-86831544D01*
X140894354Y-86930147D01*
X141019853Y-87055646D01*
X141118456Y-87203216D01*
X141186376Y-87367188D01*
X141221000Y-87541259D01*
X141221000Y-87718741D01*
X141186376Y-87892812D01*
X141118456Y-88056784D01*
X141019853Y-88204354D01*
X140894354Y-88329853D01*
X140746784Y-88428456D01*
X140582812Y-88496376D01*
X140433512Y-88526073D01*
X140408742Y-88531000D01*
X140231258Y-88531000D01*
X140206488Y-88526073D01*
X140057188Y-88496376D01*
X139893216Y-88428456D01*
X139745646Y-88329853D01*
X139620147Y-88204354D01*
X139521544Y-88056784D01*
X139453624Y-87892812D01*
X139419000Y-87718741D01*
X139419000Y-87541259D01*
X139453624Y-87367188D01*
X139521544Y-87203216D01*
X139620147Y-87055646D01*
X139745646Y-86930147D01*
X139893216Y-86831544D01*
X140057188Y-86763624D01*
X140206488Y-86733927D01*
X140231258Y-86729000D01*
X140408742Y-86729000D01*
X140433512Y-86733927D01*
G37*
G36*
X148841000Y-88531000D02*
G01*
X147039000Y-88531000D01*
X147039000Y-86729000D01*
X148841000Y-86729000D01*
X148841000Y-88531000D01*
G37*
G36*
X150593512Y-86733927D02*
G01*
X150742812Y-86763624D01*
X150906784Y-86831544D01*
X151054354Y-86930147D01*
X151179853Y-87055646D01*
X151278456Y-87203216D01*
X151346376Y-87367188D01*
X151381000Y-87541259D01*
X151381000Y-87718741D01*
X151346376Y-87892812D01*
X151278456Y-88056784D01*
X151179853Y-88204354D01*
X151054354Y-88329853D01*
X150906784Y-88428456D01*
X150742812Y-88496376D01*
X150593512Y-88526073D01*
X150568742Y-88531000D01*
X150391258Y-88531000D01*
X150366488Y-88526073D01*
X150217188Y-88496376D01*
X150053216Y-88428456D01*
X149905646Y-88329853D01*
X149780147Y-88204354D01*
X149681544Y-88056784D01*
X149613624Y-87892812D01*
X149579000Y-87718741D01*
X149579000Y-87541259D01*
X149613624Y-87367188D01*
X149681544Y-87203216D01*
X149780147Y-87055646D01*
X149905646Y-86930147D01*
X150053216Y-86831544D01*
X150217188Y-86763624D01*
X150366488Y-86733927D01*
X150391258Y-86729000D01*
X150568742Y-86729000D01*
X150593512Y-86733927D01*
G37*
G36*
X153133512Y-86733927D02*
G01*
X153282812Y-86763624D01*
X153446784Y-86831544D01*
X153594354Y-86930147D01*
X153719853Y-87055646D01*
X153818456Y-87203216D01*
X153886376Y-87367188D01*
X153921000Y-87541259D01*
X153921000Y-87718741D01*
X153886376Y-87892812D01*
X153818456Y-88056784D01*
X153719853Y-88204354D01*
X153594354Y-88329853D01*
X153446784Y-88428456D01*
X153282812Y-88496376D01*
X153133512Y-88526073D01*
X153108742Y-88531000D01*
X152931258Y-88531000D01*
X152906488Y-88526073D01*
X152757188Y-88496376D01*
X152593216Y-88428456D01*
X152445646Y-88329853D01*
X152320147Y-88204354D01*
X152221544Y-88056784D01*
X152153624Y-87892812D01*
X152119000Y-87718741D01*
X152119000Y-87541259D01*
X152153624Y-87367188D01*
X152221544Y-87203216D01*
X152320147Y-87055646D01*
X152445646Y-86930147D01*
X152593216Y-86831544D01*
X152757188Y-86763624D01*
X152906488Y-86733927D01*
X152931258Y-86729000D01*
X153108742Y-86729000D01*
X153133512Y-86733927D01*
G37*
G36*
X155673512Y-86733927D02*
G01*
X155822812Y-86763624D01*
X155986784Y-86831544D01*
X156134354Y-86930147D01*
X156259853Y-87055646D01*
X156358456Y-87203216D01*
X156426376Y-87367188D01*
X156461000Y-87541259D01*
X156461000Y-87718741D01*
X156426376Y-87892812D01*
X156358456Y-88056784D01*
X156259853Y-88204354D01*
X156134354Y-88329853D01*
X155986784Y-88428456D01*
X155822812Y-88496376D01*
X155673512Y-88526073D01*
X155648742Y-88531000D01*
X155471258Y-88531000D01*
X155446488Y-88526073D01*
X155297188Y-88496376D01*
X155133216Y-88428456D01*
X154985646Y-88329853D01*
X154860147Y-88204354D01*
X154761544Y-88056784D01*
X154693624Y-87892812D01*
X154659000Y-87718741D01*
X154659000Y-87541259D01*
X154693624Y-87367188D01*
X154761544Y-87203216D01*
X154860147Y-87055646D01*
X154985646Y-86930147D01*
X155133216Y-86831544D01*
X155297188Y-86763624D01*
X155446488Y-86733927D01*
X155471258Y-86729000D01*
X155648742Y-86729000D01*
X155673512Y-86733927D01*
G37*
G36*
X136141000Y-88531000D02*
G01*
X134339000Y-88531000D01*
X134339000Y-86729000D01*
X136141000Y-86729000D01*
X136141000Y-88531000D01*
G37*
G36*
X137893512Y-86733927D02*
G01*
X138042812Y-86763624D01*
X138206784Y-86831544D01*
X138354354Y-86930147D01*
X138479853Y-87055646D01*
X138578456Y-87203216D01*
X138646376Y-87367188D01*
X138681000Y-87541259D01*
X138681000Y-87718741D01*
X138646376Y-87892812D01*
X138578456Y-88056784D01*
X138479853Y-88204354D01*
X138354354Y-88329853D01*
X138206784Y-88428456D01*
X138042812Y-88496376D01*
X137893512Y-88526073D01*
X137868742Y-88531000D01*
X137691258Y-88531000D01*
X137666488Y-88526073D01*
X137517188Y-88496376D01*
X137353216Y-88428456D01*
X137205646Y-88329853D01*
X137080147Y-88204354D01*
X136981544Y-88056784D01*
X136913624Y-87892812D01*
X136879000Y-87718741D01*
X136879000Y-87541259D01*
X136913624Y-87367188D01*
X136981544Y-87203216D01*
X137080147Y-87055646D01*
X137205646Y-86930147D01*
X137353216Y-86831544D01*
X137517188Y-86763624D01*
X137666488Y-86733927D01*
X137691258Y-86729000D01*
X137868742Y-86729000D01*
X137893512Y-86733927D01*
G37*
G36*
X142973512Y-86733927D02*
G01*
X143122812Y-86763624D01*
X143286784Y-86831544D01*
X143434354Y-86930147D01*
X143559853Y-87055646D01*
X143658456Y-87203216D01*
X143726376Y-87367188D01*
X143761000Y-87541259D01*
X143761000Y-87718741D01*
X143726376Y-87892812D01*
X143658456Y-88056784D01*
X143559853Y-88204354D01*
X143434354Y-88329853D01*
X143286784Y-88428456D01*
X143122812Y-88496376D01*
X142973512Y-88526073D01*
X142948742Y-88531000D01*
X142771258Y-88531000D01*
X142746488Y-88526073D01*
X142597188Y-88496376D01*
X142433216Y-88428456D01*
X142285646Y-88329853D01*
X142160147Y-88204354D01*
X142061544Y-88056784D01*
X141993624Y-87892812D01*
X141959000Y-87718741D01*
X141959000Y-87541259D01*
X141993624Y-87367188D01*
X142061544Y-87203216D01*
X142160147Y-87055646D01*
X142285646Y-86930147D01*
X142433216Y-86831544D01*
X142597188Y-86763624D01*
X142746488Y-86733927D01*
X142771258Y-86729000D01*
X142948742Y-86729000D01*
X142973512Y-86733927D01*
G37*
M02*
